<svg width="32" height="32" version="1.1" viewBox="0 0 32 32" xmlns="http://www.w3.org/2000/svg">
<g fill="#8bc6a1">
<g stroke-width="0">
<rect x="3" y="3" width="2" height="26"/>
<rect x="5" y="27" width="24" height="2"/>
<rect x="5" y="3" width="5" height="2"/>
<rect x="5" y="15" width="4" height="2"/>
<rect x="5" y="9" width="3" height="2"/>
<rect x="5" y="21" width="3" height="2"/>
<rect x="9" y="24" width="2" height="3"/>
<rect x="21" y="24" width="2" height="3"/>
<rect x="15" y="23" width="2" height="4"/>
<rect x="27" y="22" width="2" height="5"/>
</g>
</g>
<g fill="#c7c7c7ff" stroke-width="0">
<rect x="11" y="12" width="2" height="8"/>
<rect x="16" y="14" width="2.5" height="6"/>
<rect x="21.3" y="14" width="2.5" height="6"/>
<path d="m24.8 9.03s1.19-0.941 2.07-0.958c1.73-0.0331 2.17 0.69 2.37 1.39 0.238 0.814 0.37 1.48-1.28 2.95-1.48 1.32-0.873 1.38-0.873 1.38h2.26v1.23h-4.31v-1.38s0.715-1.05 2.24-2.27c1.4-1.12 0.161-2.21-0.542-2.04-0.787 0.197-1.17 0.645-1.17 0.645z"/>
<path d="m18.5 15s0.026-1.58 1.4-1.76c1.12-0.124 1.43 0.79 1.43 0.79h2.5s0.0294-1.72-1.55-2.36c-1.58-0.643-3.66 0.181-3.97 1.3-0.0724 0.87 0.0367 1.62 0.189 2.04z"/>
<path d="m12.9 14.6 0.0207-1.94s1.1-1.61 3.84-1.05c1.99 0.58 1.65 2.43 1.65 2.43l-2.41-0.04s-0.219-0.985-1.28-0.819-1.83 1.41-1.83 1.41z"/>
</g>
</svg>