<?xml version="1.0" encoding="UTF-8" standalone="no"?>
<!DOCTYPE svg PUBLIC "-//W3C//DTD SVG 1.1//EN" "http://www.w3.org/Graphics/SVG/1.1/DTD/svg11.dtd">
<svg width="100%" height="100%" viewBox="0 0 8 8" version="1.1" xmlns="http://www.w3.org/2000/svg" xmlns:xlink="http://www.w3.org/1999/xlink" xml:space="preserve" xmlns:serif="http://www.serif.com/" style="fill-rule:evenodd;clip-rule:evenodd;stroke-linejoin:round;stroke-miterlimit:2;">
    <g transform="matrix(0.24,0,0,0.24,-20.16,-30.48)">
        <g id="Border" transform="matrix(1,0,0,1,31.5362,127)">
            <rect x="52.464" y="0" width="32" height="32" style="fill:none;"/>
            <g transform="matrix(1.25,0,0,1.25,-56.5362,-162.75)">
                <rect x="96" y="139" width="8" height="8" style="fill:rgb(199,199,199);"/>
            </g>
            <g transform="matrix(0.192893,0,0,0.192893,-210.556,-264.177)">
                <path d="M1481,1383.5L1515.5,1418L1497.84,1439.01C1491.28,1446.81 1491.28,1458.19 1497.84,1465.99L1515.5,1487L1481,1521.5L1458.83,1505.38C1451.48,1500.03 1441.52,1500.03 1434.17,1505.38L1412,1521.5L1377.5,1487L1395.31,1466.09C1401.98,1458.26 1401.98,1446.74 1395.31,1438.91L1377.5,1418L1412,1383.5L1434.17,1399.62C1441.52,1404.97 1451.48,1404.97 1458.83,1399.62L1481,1383.5ZM1479.84,1398.31L1465.47,1408.76C1454.16,1416.98 1438.84,1416.98 1427.53,1408.76L1413.16,1398.31L1392.85,1418.61L1403.9,1431.59C1414.17,1443.64 1414.17,1461.36 1403.9,1473.41L1392.85,1486.39L1413.16,1506.69L1427.53,1496.25C1438.84,1488.02 1454.16,1488.02 1465.47,1496.25L1479.84,1506.69L1500.19,1486.34L1489.2,1473.26C1479.11,1461.26 1479.11,1443.74 1489.2,1431.75L1500.19,1418.66L1479.84,1398.31Z" style="fill:rgb(139,198,161);"/>
            </g>
        </g>
    </g>
</svg>
