<?xml version="1.0" encoding="UTF-8" standalone="no"?>
<!DOCTYPE svg PUBLIC "-//W3C//DTD SVG 1.1//EN" "http://www.w3.org/Graphics/SVG/1.1/DTD/svg11.dtd">
<svg width="100%" height="100%" viewBox="0 0 8 8" version="1.1" xmlns="http://www.w3.org/2000/svg" xmlns:xlink="http://www.w3.org/1999/xlink" xml:space="preserve" xmlns:serif="http://www.serif.com/" style="fill-rule:evenodd;clip-rule:evenodd;stroke-linejoin:round;stroke-miterlimit:2;">
    <g transform="matrix(0.24,0,0,0.24,-50.4,-40.56)">
        <g id="Border" transform="matrix(1,0,0,1,157.536,169)">
            <rect x="52.464" y="0" width="32" height="32" style="fill:none;"/>
            <g>
                <g transform="matrix(0.825017,0,0,0.825017,-871.23,2.79974)">
                    <path d="M1149.11,4.3L1149.11,1.7L1153.3,1.7L1153.3,5.889L1150.7,5.889L1150.7,4.3L1149.11,4.3ZM1150.7,8.778L1153.3,8.778L1153.3,14.556L1150.7,14.556L1150.7,8.778ZM1150.7,17.444L1153.3,17.444L1153.3,23.222L1150.7,23.222L1150.7,17.444ZM1150.7,26.111L1153.3,26.111L1153.3,30.3L1149.11,30.3L1149.11,27.7L1150.7,27.7L1150.7,26.111ZM1146.22,27.7L1146.22,30.3L1140.44,30.3L1140.44,27.7L1146.22,27.7ZM1137.56,27.7L1137.56,30.3L1131.78,30.3L1131.78,27.7L1137.56,27.7ZM1128.89,27.7L1128.89,30.3L1124.7,30.3L1124.7,26.111L1127.3,26.111L1127.3,27.7L1128.89,27.7ZM1127.3,23.222L1124.7,23.222L1124.7,17.444L1127.3,17.444L1127.3,23.222ZM1127.3,14.556L1124.7,14.556L1124.7,8.778L1127.3,8.778L1127.3,14.556ZM1127.3,5.889L1124.7,5.889L1124.7,1.7L1128.89,1.7L1128.89,4.3L1127.3,4.3L1127.3,5.889ZM1131.78,4.3L1131.78,1.7L1137.56,1.7L1137.56,4.3L1131.78,4.3ZM1140.44,4.3L1140.44,1.7L1146.22,1.7L1146.22,4.3L1140.44,4.3Z" style="fill:rgb(139,198,161);"/>
                </g>
                <g transform="matrix(0.544511,0,0,0.544511,-551.734,7.28783)">
                    <rect x="1126" y="3" width="26" height="26" style="fill:rgb(199,199,199);"/>
                </g>
            </g>
        </g>
    </g>
</svg>
