<?xml version="1.0" encoding="UTF-8" standalone="no"?>
<!DOCTYPE svg PUBLIC "-//W3C//DTD SVG 1.1//EN" "http://www.w3.org/Graphics/SVG/1.1/DTD/svg11.dtd">
<svg width="100%" height="100%" viewBox="0 0 8 8" version="1.1" xmlns="http://www.w3.org/2000/svg" xmlns:xlink="http://www.w3.org/1999/xlink" xml:space="preserve" xmlns:serif="http://www.serif.com/" style="fill-rule:evenodd;clip-rule:evenodd;stroke-linejoin:round;stroke-miterlimit:2;">
    <g transform="matrix(0.24,0,0,0.24,-60.48,-40.56)">
        <g id="Checker" transform="matrix(1,0,0,1,199.536,169)">
            <rect x="52.464" y="0" width="32" height="32" style="fill:none;"/>
            <g transform="matrix(0.64111,0,0,0.64111,-840.309,2.21614)">
                <rect x="1401" y="5" width="9" height="9" style="fill:rgb(199,199,199);"/>
            </g>
            <g transform="matrix(0.64111,0,0,0.64111,-840.309,9.90946)">
                <rect x="1401" y="5" width="9" height="9" style="fill:rgb(139,198,161);"/>
            </g>
            <g transform="matrix(0.64111,0,0,0.64111,-840.309,17.6028)">
                <rect x="1401" y="5" width="9" height="9" style="fill:rgb(199,199,199);"/>
            </g>
            <g transform="matrix(0.64111,0,0,0.64111,-824.923,2.21614)">
                <rect x="1401" y="5" width="9" height="9" style="fill:rgb(199,199,199);"/>
            </g>
            <g transform="matrix(0.64111,0,0,0.64111,-824.923,9.90946)">
                <rect x="1401" y="5" width="9" height="9" style="fill:rgb(139,198,161);"/>
            </g>
            <g transform="matrix(0.64111,0,0,0.64111,-824.923,17.6028)">
                <rect x="1401" y="5" width="9" height="9" style="fill:rgb(199,199,199);"/>
            </g>
            <g transform="matrix(0.64111,0,0,0.64111,-832.616,2.21614)">
                <rect x="1401" y="5" width="9" height="9" style="fill:rgb(139,198,161);"/>
            </g>
            <g transform="matrix(0.64111,0,0,0.64111,-832.616,9.90946)">
                <rect x="1401" y="5" width="9" height="9" style="fill:rgb(199,199,199);"/>
            </g>
            <g transform="matrix(0.64111,0,0,0.64111,-832.616,17.6028)">
                <rect x="1401" y="5" width="9" height="9" style="fill:rgb(139,198,161);"/>
            </g>
        </g>
    </g>
</svg>
