<svg width="32" height="32" viewBox="0 0 32 32" xmlns="http://www.w3.org/2000/svg">
<g fill="#c7c7c7">
<path d="m29 29h-7v-2h5v-5h2z"/>
<path d="m3 3h7v2h-5v5h-2z"/>
<path d="m3 29v-7h2v5h5v2z"/>
<path d="m29 3v7h-2v-5h-5v-2z"/>
</g>
<path d="m24.3 13.5c-1.06 1.45-1.06 3.42 0 4.87 0.619 0.82 1.71 2.6 1.71 2.6l-5 5-2.53-1.78c-1.45-1.06-3.42-1.06-4.87 0-0.938 0.509-2.51 1.75-2.51 1.75l-5.05-5s1.16-1.75 1.75-2.57c1.06-1.45 1.06-3.42 0-4.87-0.618-0.82-1.75-2.57-1.75-2.57l5-5s1.75 1.16 2.57 1.75c1.45 1.06 3.42 1.06 4.87 0l2.57-1.75 5.06 5.04s-1.33 1.86-1.82 2.53zm-15.2-1.25c1.25 0.516 2.01 0.513 3.36 0.528l-0.457-3.85-0.816-0.723-2.91 2.91c0.255 0.33 0.555 0.763 0.825 1.13zm8.9-2.32c-1.15 0.347-2.85 0.347-4 0l0.293 2.8c1.2 0.0388 2.18 0.0344 3.4-0.0374zm4.84 2.23 0.748-1.03-2.79-2.79-0.805 0.591-0.758 3.82c1.2 0.00456 2.45-0.145 3.6-0.596zm-8.32 5.26c1.04-0.0809 1.88-0.0794 2.97 0v-2.86c-1.09 0.067-1.93 0.0809-2.97 0.0443zm-4.53-3.26c0.42 1.13 0.293 2.57 0.00503 3.64 0.685-0.153 1.46-0.302 2.6-0.373l-0.011-2.91c-0.824 0.0193-1.36-0.0654-2.59-0.362zm12-0.0034c-0.848 0.353-1.99 0.245-2.57 0.262v3.01c0.66 0.0403 1.91 0.187 2.6 0.361-0.372-1.3-0.42-2.2-0.0219-3.63zm-7.94 7.78c1.15-0.347 2.85-0.347 4 0l-0.514-2.77c-1.21-0.0851-1.77-0.0879-2.97 0zm-2.81 1.59 0.805-0.591 0.561-3.68c-1.31 0.0266-2.4 0.0699-3.46 0.54l-0.688 0.947zm12.4-2.79-0.685-0.942c-0.991-0.496-2.23-0.515-3.5-0.575l0.617 3.71 0.783 0.595z" fill="#8bc6a1"/>
</svg>
