<?xml version="1.0" encoding="UTF-8" standalone="no"?>
<!DOCTYPE svg PUBLIC "-//W3C//DTD SVG 1.1//EN" "http://www.w3.org/Graphics/SVG/1.1/DTD/svg11.dtd">
<svg width="100%" height="100%" viewBox="0 0 8 8" version="1.1" xmlns="http://www.w3.org/2000/svg" xmlns:xlink="http://www.w3.org/1999/xlink" xml:space="preserve" xmlns:serif="http://www.serif.com/" style="fill-rule:evenodd;clip-rule:evenodd;stroke-linejoin:round;stroke-miterlimit:2;">
    <g transform="matrix(0.24,0,0,0.24,-8.52651e-15,0)">
        <g id="Crop" transform="matrix(1,0,0,1,-52.4638,0)">
            <rect x="52.464" y="0" width="32" height="32" style="fill:none;"/>
            <g transform="matrix(1,0,0,1,-0.463818,7.10543e-15)">
                <g transform="matrix(0.907889,0,0,0.730874,55.3093,2.55868)">
                    <path d="M29.319,36.178L21.609,36.178L21.609,33.441L27.116,33.441L27.116,26.6L29.319,26.6L29.319,36.178Z" style="fill:rgb(199,199,199);"/>
                </g>
                <g transform="matrix(-0.907889,-1.11184e-16,8.95062e-17,-0.730874,82.546,29.4413)">
                    <path d="M29.319,36.178L21.609,36.178L21.609,33.441L27.116,33.441L27.116,26.6L29.319,26.6L29.319,36.178Z" style="fill:rgb(199,199,199);"/>
                </g>
                <g transform="matrix(5.55922e-17,0.907889,-0.730874,4.47531e-17,82.369,2.38166)">
                    <path d="M29.319,36.178L21.609,36.178L21.609,33.441L27.116,33.441L27.116,26.6L29.319,26.6L29.319,36.178Z" style="fill:rgb(199,199,199);"/>
                </g>
                <g transform="matrix(5.55922e-17,-0.907889,0.730874,4.47531e-17,55.4863,29.6183)">
                    <path d="M29.319,36.178L21.609,36.178L21.609,33.441L27.116,33.441L27.116,26.6L29.319,26.6L29.319,36.178Z" style="fill:rgb(199,199,199);"/>
                </g>
                <g transform="matrix(0.144736,0,0,0.144736,-140.433,-194.229)">
                    <path d="M1481.49,1383.01L1515.99,1417.51C1516.23,1417.75 1516.26,1418.13 1516.06,1418.41L1503.49,1435.68C1496.2,1445.71 1496.2,1459.29 1503.49,1469.32L1516.06,1486.59C1516.26,1486.87 1516.23,1487.25 1515.99,1487.49L1481.49,1521.99C1481.25,1522.23 1480.87,1522.26 1480.59,1522.06L1463.32,1509.49C1453.29,1502.2 1439.71,1502.2 1429.68,1509.49L1412.41,1522.06C1412.13,1522.26 1411.75,1522.23 1411.51,1521.99L1377.01,1487.49C1376.77,1487.25 1376.74,1486.87 1376.94,1486.59L1389.51,1469.32C1396.8,1459.29 1396.8,1445.71 1389.51,1435.68L1376.94,1418.41C1376.74,1418.13 1376.77,1417.75 1377.01,1417.51L1411.51,1383.01C1411.75,1382.77 1412.13,1382.74 1412.41,1382.94L1429.68,1395.51C1439.71,1402.8 1453.29,1402.8 1463.32,1395.51L1480.59,1382.94C1480.87,1382.74 1481.25,1382.77 1481.49,1383.01ZM1393.55,1419.79L1398.84,1427.07L1403.5,1427.79C1409.57,1428.73 1415.65,1429.47 1421.72,1430.01L1421.72,1405.32L1413.23,1399.14C1413.23,1399.14 1393.14,1419.23 1393.14,1419.23L1393.52,1419.76L1393.63,1419.71C1393.61,1419.74 1393.58,1419.76 1393.55,1419.79ZM1458.66,1412.48C1450.74,1414.88 1442.26,1414.88 1434.34,1412.48C1434.34,1412.48 1434.34,1430.16 1434.34,1430.16C1442.44,1430.53 1450.56,1430.53 1458.66,1430.18L1458.66,1412.48ZM1493.78,1426.42L1498.95,1419.3L1479.7,1400.05L1471.97,1405.67C1471.97,1405.67 1471.97,1429.27 1471.97,1429.27C1477.78,1428.74 1483.58,1428.02 1489.38,1427.11L1493.78,1426.42ZM1434.34,1459.41C1442.44,1458.84 1450.56,1458.83 1458.66,1459.39L1458.66,1443.5C1450.56,1443.83 1442.44,1443.83 1434.34,1443.49L1434.34,1459.41ZM1406.68,1441C1408.77,1448.33 1408.82,1456.1 1406.83,1463.45C1411.56,1462.39 1416.3,1461.52 1421.03,1460.84C1421.03,1460.84 1421.03,1442.62 1421.03,1442.62C1416.24,1442.19 1411.46,1441.66 1406.68,1441ZM1486.17,1463.44C1484.18,1456.1 1484.24,1448.33 1486.32,1441.01C1481.54,1441.67 1476.76,1442.21 1471.97,1442.63C1471.97,1442.63 1471.97,1460.81 1471.97,1460.81C1476.7,1461.49 1481.43,1462.37 1486.17,1463.44ZM1434.34,1492.52C1442.26,1490.12 1450.74,1490.12 1458.66,1492.52C1458.66,1492.52 1458.66,1472.74 1458.66,1472.73C1450.56,1472.13 1442.44,1472.14 1434.34,1472.76L1434.34,1492.52ZM1413.3,1504.95L1421.03,1499.33C1421.03,1499.33 1421.03,1474.3 1421.03,1474.29C1415.43,1475.17 1409.84,1476.32 1404.25,1477.76L1398.8,1479.16C1398.8,1479.16 1394.05,1485.7 1394.05,1485.7L1413.3,1504.95ZM1498.95,1485.7L1494.22,1479.19L1488.73,1477.76C1483.14,1476.3 1477.56,1475.14 1471.97,1474.27L1471.97,1499.33C1471.97,1499.33 1479.7,1504.95 1479.7,1504.95L1498.95,1485.7Z" style="fill:rgb(139,198,161);"/>
                </g>
            </g>
        </g>
    </g>
</svg>
