<svg width="32" height="32" viewBox="0 0 32 32" xmlns="http://www.w3.org/2000/svg">
<path d="m12 25-2 2-5.68-5.41 2.42-3.33c0.935-1.29 0.935-3.03 0-4.31l-2.42-3.33 5.68-5.61 2 2zm8-18 2-2 5.68 5.61-2.42 3.33c-0.238 0.328-0.417 0.687-0.533 1.06-0.34 1.09-0.164 2.3 0.533 3.25l2.42 3.33-5.68 5.41-2-2z" fill="#8bc6a1"/>
<g fill="#c7c7c7">
<rect x="15" y="5" width="2" height="4"/>
<rect x="15" y="11" width="2" height="4"/>
<rect x="15" y="17" width="2" height="4"/>
<rect x="15" y="23" width="2" height="4"/>
</g>
</svg>