<?xml version="1.0" encoding="UTF-8" standalone="no"?>
<!DOCTYPE svg PUBLIC "-//W3C//DTD SVG 1.1//EN" "http://www.w3.org/Graphics/SVG/1.1/DTD/svg11.dtd">
<svg width="100%" height="100%" viewBox="0 0 8 8" version="1.1" xmlns="http://www.w3.org/2000/svg" xmlns:xlink="http://www.w3.org/1999/xlink" xml:space="preserve" xmlns:serif="http://www.serif.com/" style="fill-rule:evenodd;clip-rule:evenodd;stroke-linejoin:round;stroke-miterlimit:2;">
    <g transform="matrix(0.24,0,0,0.24,-60.48,-1.7053e-15)">
        <g id="Distribute" transform="matrix(1,0,0,1,68,7.10543e-15)">
            <rect x="184" y="0" width="32" height="32" style="fill:none;"/>
            <g transform="matrix(1,0,0,1,0,-0.685185)">
                <g transform="matrix(-0.729167,-8.92972e-17,1.19063e-16,-0.972222,375,38.1218)">
                    <path d="M226.133,15.224L253.867,15.224L253.867,12.139L260.571,16.682L253.867,21.396L253.867,18.31L226.133,18.31L226.133,21.396L219.429,16.682L226.133,12.139L226.133,15.224Z" style="fill:rgb(199,199,199);"/>
                </g>
                <g transform="matrix(0.291667,-3.57189e-17,-4.28626e-16,-3.5,119.5,71.6852)">
                    <rect x="228" y="16" width="24" height="2" style="fill:rgb(139,198,161);"/>
                </g>
                <g transform="matrix(0.291667,-3.57189e-17,-4.28626e-16,-3.5,130,71.6852)">
                    <rect x="228" y="16" width="24" height="2" style="fill:rgb(139,198,161);"/>
                </g>
                <g transform="matrix(0.291667,-3.57189e-17,-4.28626e-16,-3.5,140.5,71.6852)">
                    <rect x="228" y="16" width="24" height="2" style="fill:rgb(139,198,161);"/>
                </g>
            </g>
        </g>
    </g>
</svg>
