<?xml version="1.0" encoding="UTF-8" standalone="no"?>
<!DOCTYPE svg PUBLIC "-//W3C//DTD SVG 1.1//EN" "http://www.w3.org/Graphics/SVG/1.1/DTD/svg11.dtd">
<svg width="100%" height="100%" viewBox="0 0 8 8" version="1.1" xmlns="http://www.w3.org/2000/svg" xmlns:xlink="http://www.w3.org/1999/xlink" xml:space="preserve" xmlns:serif="http://www.serif.com/" style="fill-rule:evenodd;clip-rule:evenodd;stroke-linejoin:round;stroke-miterlimit:2;">
    <g transform="matrix(0.24,0,0,0.24,-10.08,0)">
        <g id="Fill" transform="matrix(1,0,0,1,-64,0)">
            <rect x="106" y="0" width="32" height="32" style="fill:none;"/>
            <g transform="matrix(0.907889,0,0,-0.730874,108.382,29.4413)">
                <path d="M27.116,15.654L27.116,3.34L17.203,3.34L17.203,0.604L29.319,0.604L29.319,15.654L27.116,15.654Z" style="fill:rgb(199,199,199);"/>
            </g>
            <g transform="matrix(-0.907889,-1.11184e-16,-8.95062e-17,0.730874,135.618,2.55868)">
                <path d="M27.116,15.654L27.116,3.34L17.203,3.34L17.203,0.604L29.319,0.604L29.319,15.654L27.116,15.654Z" style="fill:rgb(199,199,199);"/>
            </g>
            <g transform="matrix(5.55922e-17,0.907889,0.730874,-4.47531e-17,108.559,2.38166)">
                <path d="M27.116,15.654L27.116,3.34L17.203,3.34L17.203,0.604L29.319,0.604L29.319,15.654L27.116,15.654Z" style="fill:rgb(199,199,199);"/>
            </g>
            <g transform="matrix(5.55922e-17,-0.907889,-0.730874,-4.47531e-17,135.441,29.6183)">
                <path d="M27.116,15.654L27.116,3.34L17.203,3.34L17.203,0.604L29.319,0.604L29.319,15.654L27.116,15.654Z" style="fill:rgb(199,199,199);"/>
            </g>
            <g transform="matrix(1,0,0,0.805025,103,5.19497)">
                <path d="M13.414,22.117L16,22.117L16,24.602L10,24.602L10,17.149L12,17.149L12,20.361L16,15.392L17.414,17.149L13.414,22.117Z" style="fill:rgb(139,198,161);"/>
            </g>
            <g transform="matrix(1,0,0,0.805025,103,5.19497)">
                <path d="M24.586,22.117L20.586,17.149L22,15.392L26,20.361L26,17.149L28,17.149L28,24.602L22,24.602L22,22.117L24.586,22.117Z" style="fill:rgb(139,198,161);"/>
            </g>
            <g transform="matrix(1,0,0,0.805025,103,5.19497)">
                <path d="M26,6.483L22,11.452L20.586,9.695L24.586,4.727L22,4.727L22,2.242L28,2.242L28,9.695L26,9.695L26,6.483Z" style="fill:rgb(139,198,161);"/>
            </g>
            <g transform="matrix(1,0,0,0.805025,103,5.19497)">
                <path d="M12,6.483L12,9.695L10,9.695L10,2.242L16,2.242L16,4.727L13.414,4.727L17.414,9.695L16,11.452L12,6.483Z" style="fill:rgb(139,198,161);"/>
            </g>
        </g>
    </g>
</svg>
