<svg width="32" height="32" viewBox="0 0 32 32" xmlns="http://www.w3.org/2000/svg">
<path d="m15 17v7.82c-0.262 0.0985-0.635 0.233-0.868 0.403l-4.31 3.13-6.18-6.18 3.51-4.12c0.242-0.285 0.427-0.726 0.554-1.06zm-7.3-2c-0.127-0.335-0.312-0.774-0.553-1.06l-3.51-4.12 6.18-6.18 4.31 3.13c0.233 0.17 0.607 0.304 0.868 0.403v7.82z" fill="#c7c7c7"/>
<path d="m24.3 17c0.124 0.328 0.304 0.765 0.539 1.04l3.48 4.14-6.18 6.18-4.31-3.13c-0.233-0.17-0.607-0.304-0.868-0.403v-7.82zm-7.34-2v-7.82c0.262-0.0985 0.635-0.233 0.868-0.403l4.31-3.13 6.18 6.18-3.48 4.14c-0.235 0.279-0.416 0.715-0.539 1.04z" fill="#8bc6a1"/>
</svg>
