<?xml version="1.0" encoding="UTF-8" standalone="no"?>
<!DOCTYPE svg PUBLIC "-//W3C//DTD SVG 1.1//EN" "http://www.w3.org/Graphics/SVG/1.1/DTD/svg11.dtd">
<svg width="100%" height="100%" viewBox="0 0 8 8" version="1.1" xmlns="http://www.w3.org/2000/svg" xmlns:xlink="http://www.w3.org/1999/xlink" xml:space="preserve" xmlns:serif="http://www.serif.com/" style="fill-rule:evenodd;clip-rule:evenodd;stroke-linejoin:round;stroke-miterlimit:2;">
    <g transform="matrix(0.24,0,0,0.24,-20.16,-40.56)">
        <g id="Flipped" transform="matrix(1,0,0,1,31.5362,169)">
            <rect x="52.464" y="0" width="32" height="32" style="fill:none;"/>
            <g>
                <g transform="matrix(0.179111,0,0,0.179111,-190.62,-244.158)">
                    <path d="M1440.23,1458.77L1440.23,1501.75C1438.77,1502.3 1437.37,1503.05 1436.07,1504L1412,1521.5L1377.5,1487L1397.09,1464C1398.44,1462.41 1399.47,1460.64 1400.18,1458.77L1440.23,1458.77ZM1400.18,1446.23C1399.47,1444.36 1398.44,1442.59 1397.09,1441L1377.5,1418L1412,1383.5L1436.07,1401C1437.37,1401.95 1438.77,1402.7 1440.23,1403.25L1440.23,1446.23L1400.18,1446.23Z" style="fill:rgb(199,199,199);"/>
                </g>
                <g transform="matrix(0.179111,0,0,0.179111,-190.62,-244.158)">
                    <path d="M1493.08,1458.77C1493.77,1460.6 1494.78,1462.35 1496.09,1463.91L1515.5,1487L1481,1521.5L1456.93,1504C1455.63,1503.05 1454.23,1502.3 1452.77,1501.75L1452.77,1458.77L1493.08,1458.77ZM1452.77,1446.23L1452.77,1403.25C1454.23,1402.7 1455.63,1401.95 1456.93,1401L1481,1383.5L1515.5,1418L1496.09,1441.09C1494.78,1442.65 1493.77,1444.4 1493.08,1446.23L1452.77,1446.23Z" style="fill:rgb(139,198,161);"/>
                </g>
            </g>
        </g>
    </g>
</svg>
