<?xml version="1.0" encoding="UTF-8" standalone="no"?>
<!DOCTYPE svg PUBLIC "-//W3C//DTD SVG 1.1//EN" "http://www.w3.org/Graphics/SVG/1.1/DTD/svg11.dtd">
<svg width="100%" height="100%" viewBox="0 0 8 8" version="1.1" xmlns="http://www.w3.org/2000/svg" xmlns:xlink="http://www.w3.org/1999/xlink" xml:space="preserve" xmlns:serif="http://www.serif.com/" style="fill-rule:evenodd;clip-rule:evenodd;stroke-linejoin:round;stroke-miterlimit:2;">
    <g transform="matrix(0.24,0,0,0.24,-124.56,-50.88)">
        <rect id="Gravity" x="519" y="212" width="32" height="32" style="fill:none;"/>
        <g id="Gravity1" serif:id="Gravity">
            <g transform="matrix(5.51329e-17,-0.515252,1.08333,1.15919e-16,463.5,242.88)">
                <path d="M38.582,67.846L7.53,67.846L7.53,65.077L38.582,65.077L38.582,62.308L50.227,66.462L38.582,70.615L38.582,67.846Z" style="fill:rgb(139,198,161);"/>
            </g>
            <g transform="matrix(5.51329e-17,-0.515252,1.08333,1.15919e-16,455.5,242.88)">
                <path d="M23.056,67.846L7.53,67.846L7.53,65.077L23.056,65.077L23.056,62.308L34.701,66.462L23.056,70.615L23.056,67.846Z" style="fill:rgb(139,198,161);"/>
            </g>
            <g transform="matrix(5.51329e-17,-0.515252,1.08333,1.15919e-16,471.5,242.88)">
                <path d="M23.056,67.846L7.53,67.846L7.53,65.077L23.056,65.077L23.056,62.308L34.701,66.462L23.056,70.615L23.056,67.846Z" style="fill:rgb(139,198,161);"/>
            </g>
        </g>
    </g>
</svg>
