<?xml version="1.0" encoding="UTF-8" standalone="no"?>
<!DOCTYPE svg PUBLIC "-//W3C//DTD SVG 1.1//EN" "http://www.w3.org/Graphics/SVG/1.1/DTD/svg11.dtd">
<svg width="100%" height="100%" viewBox="0 0 8 8" version="1.1" xmlns="http://www.w3.org/2000/svg" xmlns:xlink="http://www.w3.org/1999/xlink" xml:space="preserve" xmlns:serif="http://www.serif.com/" style="fill-rule:evenodd;clip-rule:evenodd;stroke-linejoin:round;stroke-miterlimit:2;">
    <g transform="matrix(0.24,0,0,0.24,-40.32,-82.08)">
        <g id="Vertical-A" serif:id="Vertical A" transform="matrix(0.914286,0,0,0.914286,206.4,306.343)">
            <rect x="-42" y="39" width="35" height="35" style="fill:none;"/>
            <g transform="matrix(1,0,0,1,-2.84217e-14,-1.09375)">
                <g transform="matrix(1.33946e-16,2.1875,-2.73437,1.67432e-16,363.781,-172.094)">
                    <rect x="104" y="138" width="2" height="8" style="fill:rgb(139,198,161);"/>
                </g>
                <g transform="matrix(-0.729167,-0.729167,0.729167,-0.729167,-206.063,312.438)">
                    <path d="M60,303L54,309L54,303L60,303Z" style="fill:rgb(199,199,199);"/>
                </g>
                <g transform="matrix(0.729167,0.729167,-0.729167,0.729167,157.062,-197.25)">
                    <path d="M60,303L54,309L54,303L60,303Z" style="fill:rgb(199,199,199);"/>
                </g>
            </g>
        </g>
    </g>
</svg>
