<?xml version="1.0" encoding="UTF-8" standalone="no"?>
<!DOCTYPE svg PUBLIC "-//W3C//DTD SVG 1.1//EN" "http://www.w3.org/Graphics/SVG/1.1/DTD/svg11.dtd">
<svg width="100%" height="100%" viewBox="0 0 8 8" version="1.1" xmlns="http://www.w3.org/2000/svg" xmlns:xlink="http://www.w3.org/1999/xlink" xml:space="preserve" xmlns:serif="http://www.serif.com/" style="fill-rule:evenodd;clip-rule:evenodd;stroke-linejoin:round;stroke-miterlimit:2;">
    <g transform="matrix(0.24,0,0,0.24,-30.24,-30.48)">
        <g id="Linked" transform="matrix(1,0,0,1,73.5362,127)">
            <rect x="52.464" y="0" width="32" height="32" style="fill:none;"/>
            <g transform="matrix(0.595073,0.595073,-0.800476,0.800476,68.9746,-15.9056)">
                <path d="M24.235,25.556C23.687,25.649 23.116,25.699 22.53,25.699L17.397,25.699C13.197,25.699 9.787,23.164 9.787,20.041C9.787,16.919 13.197,14.384 17.397,14.384L22.53,14.384C23.703,14.384 24.814,14.582 25.807,14.935C26.72,15.259 27.533,15.716 28.201,16.27C29.407,17.271 30.14,18.593 30.14,20.041C30.14,21.088 29.757,22.069 29.089,22.911L29.079,22.911C28.164,22.911 27.322,22.673 26.661,22.277C27.277,21.65 27.64,20.877 27.64,20.041C27.64,18.881 26.939,17.842 25.835,17.145C25.165,16.722 24.346,16.425 23.446,16.304C23.149,16.264 22.843,16.243 22.53,16.243L17.397,16.243C14.577,16.243 12.287,17.945 12.287,20.041C12.287,22.138 14.577,23.84 17.397,23.84L21.842,23.84C22.487,24.517 23.3,25.101 24.235,25.556Z" style="fill:rgb(139,198,161);"/>
            </g>
            <g transform="matrix(0.595073,0.595073,-0.800476,0.800476,76.0425,-8.91266)">
                <path d="M15.525,14.557C16.124,14.444 16.751,14.384 17.397,14.384L22.53,14.384C26.73,14.384 30.14,16.919 30.14,20.041C30.14,23.164 26.73,25.699 22.53,25.699L17.397,25.699C16.224,25.699 15.113,25.501 14.121,25.148C13.207,24.823 12.395,24.367 11.727,23.812C10.521,22.811 9.787,21.49 9.787,20.041C9.787,19.014 10.156,18.05 10.802,17.22C11.709,17.234 12.54,17.482 13.19,17.886C12.621,18.499 12.287,19.241 12.287,20.041C12.287,21.202 12.989,22.241 14.093,22.938C14.763,23.361 15.581,23.658 16.481,23.779C16.779,23.819 17.085,23.84 17.397,23.84L22.53,23.84C25.351,23.84 27.64,22.138 27.64,20.041C27.64,17.945 25.351,16.243 22.53,16.243L17.908,16.243C17.262,15.577 16.453,15.004 15.525,14.557Z" style="fill:rgb(199,199,199);"/>
            </g>
        </g>
    </g>
</svg>
