<?xml version="1.0" encoding="UTF-8" standalone="no"?>
<!DOCTYPE svg PUBLIC "-//W3C//DTD SVG 1.1//EN" "http://www.w3.org/Graphics/SVG/1.1/DTD/svg11.dtd">
<svg width="100%" height="100%" viewBox="0 0 8 8" version="1.1" xmlns="http://www.w3.org/2000/svg" xmlns:xlink="http://www.w3.org/1999/xlink" xml:space="preserve" xmlns:serif="http://www.serif.com/" style="fill-rule:evenodd;clip-rule:evenodd;stroke-linejoin:round;stroke-miterlimit:2;">
    <g transform="matrix(0.24,0,0,0.24,-134.88,-50.64)">
        <rect id="Artboard1" x="562" y="211" width="32" height="32" style="fill:none;"/>
        <g id="Artboard11" serif:id="Artboard1">
            <g transform="matrix(1.22222,0,0,1.22222,-129.667,-53.1944)">
                <path d="M575.727,230.068L577.364,230.068L577.364,230.886L578.182,230.886L578.182,232.523L575.727,232.523L575.727,230.068ZM579.818,232.523L579.818,230.886L583.909,230.886L583.909,232.523L579.818,232.523ZM585.545,232.523L585.545,230.886L588.818,230.886L588.818,234.159L587.182,234.159L587.182,232.523L585.545,232.523ZM587.182,235.795L588.818,235.795L588.818,239.068L585.545,239.068L585.545,237.432L587.182,237.432L587.182,235.795ZM583.909,237.432L583.909,239.068L579.818,239.068L579.818,237.432L583.909,237.432ZM578.182,237.432L578.182,239.068L574.091,239.068L574.091,237.432L578.182,237.432ZM572.455,237.432L572.455,239.068L569.182,239.068L569.182,235.795L570.818,235.795L570.818,237.432L572.455,237.432ZM570.818,234.159L569.182,234.159L569.182,230.068L570.818,230.068L570.818,234.159ZM570.818,228.432L569.182,228.432L569.182,224.341L570.818,224.341L570.818,228.432ZM570.818,222.705L569.182,222.705L569.182,219.432L572.455,219.432L572.455,221.068L570.818,221.068L570.818,222.705ZM574.091,221.068L574.091,219.432L577.364,219.432L577.364,222.705L575.727,222.705C575.727,222.705 575.727,221.068 575.727,221.068L574.091,221.068ZM575.727,224.341L577.364,224.341L577.364,228.432L575.727,228.432L575.727,224.341Z" style="fill:rgb(139,198,161);"/>
            </g>
        </g>
    </g>
</svg>
