<?xml version="1.0" encoding="UTF-8" standalone="no"?>
<svg
   width="100%"
   height="100%"
   viewBox="0 0 8 8"
   version="1.1"
   xml:space="preserve"
   style="fill-rule:evenodd;clip-rule:evenodd;stroke-linejoin:round;stroke-miterlimit:2;"
   id="svg4"
   sodipodi:docname="medium.svg"
   inkscape:version="1.4 (86a8ad7, 2024-10-11)"
   xmlns:inkscape="http://www.inkscape.org/namespaces/inkscape"
   xmlns:sodipodi="http://sodipodi.sourceforge.net/DTD/sodipodi-0.dtd"
   xmlns="http://www.w3.org/2000/svg"
   xmlns:svg="http://www.w3.org/2000/svg"><defs
   id="defs4" /><sodipodi:namedview
   id="namedview4"
   pagecolor="#ffffff"
   bordercolor="#000000"
   borderopacity="0.25"
   inkscape:showpageshadow="2"
   inkscape:pageopacity="0.0"
   inkscape:pagecheckerboard="0"
   inkscape:deskcolor="#d1d1d1"
   inkscape:zoom="106.875"
   inkscape:cx="4"
   inkscape:cy="3.1204678"
   inkscape:window-width="1920"
   inkscape:window-height="1057"
   inkscape:window-x="-8"
   inkscape:window-y="-8"
   inkscape:window-maximized="1"
   inkscape:current-layer="svg4" />
    <g
   transform="matrix(0.24,0,0,0.24,-40.32,-50.88)"
   id="g4">
        <g
   id="Medium"
   transform="matrix(1,0,0,1,-16,212)">
            <path
   id="rect1"
   style="fill:none"
   d="m 184,0 h 32 v 32 h -32 z" />
            <g
   transform="matrix(1.45249,0,0,1.45249,-392.678,-95.8964)"
   id="g2">
                <g
   transform="matrix(10.4167,0,0,10.4167,413.648,80.6835)"
   id="g1">
                </g>
                <path
   d="m 403.32444,73.392098 c -0.15625,0 -0.23959,0.08334 -0.23959,0.229174 v 6.833552 c 0,0.145838 0.0833,0.229174 0.23959,0.229174 h 1.45838 c 0.14584,0 0.23959,-0.08334 0.23959,-0.229174 v -5.364755 l 1.71881,5.375172 c 0.0417,0.145838 0.14583,0.218757 0.33334,0.218757 h 1.78131 c 0.1875,0 0.30209,-0.07292 0.34376,-0.218757 l 1.69797,-5.333504 v 5.323087 c 0,0.145838 0.0833,0.229174 0.23959,0.229174 h 1.62505 c 0.15626,0 0.23959,-0.08334 0.23959,-0.229174 v -6.833552 c 0,-0.145838 -0.0833,-0.229174 -0.23959,-0.229174 h -2.92717 c -0.18751,0 -0.3021,0.07292 -0.34377,0.218757 l -1.47921,4.875156 -1.47921,-4.875156 c -0.0417,-0.145838 -0.15626,-0.218757 -0.34376,-0.218757 z"
   id="text1"
   style="font-weight:700;font-size:10.417px;font-family:GeomGraphic-Bold, 'Geom Graphic', fantasy;fill:#8bc6a1"
   aria-label="M" />
            </g>
            <g
   transform="matrix(1.25674,0,0,1.25674,-307.095,-83.9109)"
   id="g3">
                <path
   d="M413,70L413,89L394,89L394,70L413,70ZM411.5,71.5L395.5,71.5L395.5,87.5L411.5,87.5L411.5,71.5Z"
   style="fill:rgb(139,198,161);"
   id="path2" />
            </g>
        </g>
    </g>
</svg>
