<?xml version="1.0" encoding="UTF-8" standalone="no"?>
<!DOCTYPE svg PUBLIC "-//W3C//DTD SVG 1.1//EN" "http://www.w3.org/Graphics/SVG/1.1/DTD/svg11.dtd">
<svg width="100%" height="100%" viewBox="0 0 8 8" version="1.1" xmlns="http://www.w3.org/2000/svg" xmlns:xlink="http://www.w3.org/1999/xlink" xml:space="preserve" xmlns:serif="http://www.serif.com/" style="fill-rule:evenodd;clip-rule:evenodd;stroke-linejoin:round;stroke-miterlimit:2;">
    <g transform="matrix(0.24,0,0,0.24,-8.52651e-15,-40.56)">
        <g id="Non-Splitted" transform="matrix(1,0,0,1,-52.4638,169)">
            <rect x="52.464" y="0" width="32" height="32" style="fill:none;"/>
            <g transform="matrix(9.0123e-18,0.147182,-0.147182,9.0123e-18,282.244,-196.899)">
                <path d="M1422.97,1476.02L1422.97,1519C1421.51,1519.55 1420.11,1520.3 1418.81,1521.25L1400.59,1532.9L1366.09,1498.4L1379.83,1481.25C1381.18,1479.66 1382.21,1477.89 1382.92,1476.02L1422.97,1476.02ZM1382.92,1428.38C1382.21,1426.52 1381.18,1424.75 1379.83,1423.15L1367.61,1407.53L1402.11,1373.03L1418.81,1383.16C1420.11,1384.11 1421.51,1384.86 1422.97,1385.41L1422.97,1428.38L1382.92,1428.38Z" style="fill:rgb(139,198,161);"/>
            </g>
            <g transform="matrix(9.0123e-18,-0.147182,0.147182,9.0123e-18,-145.316,228.899)">
                <path d="M1422.97,1476.02L1422.97,1519C1421.51,1519.55 1420.11,1520.3 1418.81,1521.25L1400.59,1532.9L1366.09,1498.4L1379.83,1481.25C1381.18,1479.66 1382.21,1477.89 1382.92,1476.02L1422.97,1476.02ZM1382.92,1428.38C1382.21,1426.52 1381.18,1424.75 1379.83,1423.15L1367.61,1407.53L1402.11,1373.03L1418.81,1383.16C1420.11,1384.11 1421.51,1384.86 1422.97,1385.41L1422.97,1428.38L1382.92,1428.38Z" style="fill:rgb(139,198,161);"/>
            </g>
            <g transform="matrix(1.01556,7.67808e-33,0,1.01556,52.2132,-171.878)">
                <path d="M14.896,186.104L7.896,186.104L7.896,183.896L14.896,183.896L14.896,176.896L17.104,176.896L17.104,183.896L24.104,183.896L24.104,186.104L17.104,186.104L17.104,193.104L14.896,193.104L14.896,186.104Z" style="fill:rgb(199,199,199);"/>
            </g>
        </g>
    </g>
</svg>
