<svg width="32" height="32" viewBox="0 0 32 32" xmlns="http://www.w3.org/2000/svg">

<path d="m13 13-6.7-0.0063c-0.0854-0.227-0.178-0.438-0.326-0.64l-1.87-2.84 5.4-5.42 2.69 2.2c0.247 0.21 0.522 0.369 0.812 0.479zm6-6.01c0.274-0.0537 0.464-0.151 0.7-0.35l2.3-1.8 5.14 5.09-1.49 2.46c-0.14 0.191-0.25 0.388-0.331 0.603h-6.32z" fill="#8bc6a1"/>
<path d="m19 19h6.3c0.081 0.215 0.213 0.421 0.353 0.612l1.7 2.69-5.06 5.1-2.52-2.05c-0.234-0.199-0.49-0.345-0.766-0.45zm-6 5.89c-0.274 0.104-0.535 0.256-0.771 0.455l-2.3 1.8-5.08-5.14 1.49-2.39c0.14-0.191 0.211-0.393 0.256-0.608h6.4z" fill="#8bc6a1"/>
<path d="m15 17h-7v-2h7v-7h2v7h7v2h-7v7h-2z" fill="#c7c7c7"/>

</svg>
