<?xml version="1.0" encoding="UTF-8" standalone="no"?>
<!DOCTYPE svg PUBLIC "-//W3C//DTD SVG 1.1//EN" "http://www.w3.org/Graphics/SVG/1.1/DTD/svg11.dtd">
<svg width="100%" height="100%" viewBox="0 0 8 8" version="1.1" xmlns="http://www.w3.org/2000/svg" xmlns:xlink="http://www.w3.org/1999/xlink" xml:space="preserve" xmlns:serif="http://www.serif.com/" style="fill-rule:evenodd;clip-rule:evenodd;stroke-linejoin:round;stroke-miterlimit:2;">
    <g transform="matrix(0.24,0,0,0.24,-10.08,-10.0742)">
        <g id="Normalize" transform="matrix(1,0,0,1,-142,41.9759)">
            <rect x="184" y="0" width="32" height="32" style="fill:none;"/>
            <g transform="matrix(-1.72294e-31,0.818182,-0.818182,1.7368e-31,225.545,-313.067)">
                <rect x="390" y="19" width="11" height="11" style="fill:rgb(199,199,199);"/>
            </g>
            <g transform="matrix(0.845614,4.06239e-36,-1.62999e-36,0.845614,-141.812,3.37556)">
                <circle cx="397" cy="8" r="6" style="fill:rgb(139,198,161);"/>
            </g>
            <g transform="matrix(1.00198e-16,-0.818182,0.818182,1.00198e-16,174.455,345.115)">
                <rect x="390" y="19" width="11" height="11" style="fill:rgb(199,199,199);"/>
            </g>
            <g transform="matrix(0.845614,4.06239e-36,-1.62999e-36,0.845614,-129.606,15.0946)">
                <circle cx="397" cy="8" r="6" style="fill:rgb(139,198,161);"/>
            </g>
        </g>
    </g>
</svg>
