<?xml version="1.0" encoding="UTF-8" standalone="no"?>
<!DOCTYPE svg PUBLIC "-//W3C//DTD SVG 1.1//EN" "http://www.w3.org/Graphics/SVG/1.1/DTD/svg11.dtd">
<svg width="100%" height="100%" viewBox="0 0 8 8" version="1.1" xmlns="http://www.w3.org/2000/svg" xmlns:xlink="http://www.w3.org/1999/xlink" xml:space="preserve" xmlns:serif="http://www.serif.com/" style="fill-rule:evenodd;clip-rule:evenodd;stroke-linejoin:round;stroke-miterlimit:2;">
    <g transform="matrix(0.24,0,0,0.24,-82.56,-50.88)">
        <rect id="Normal" x="344" y="212" width="32" height="32" style="fill:none;"/>
        <g id="Normal1" serif:id="Normal">
            <g id="Normal2" serif:id="Normal" transform="matrix(0.575951,-0.575951,0.575993,0.575993,343.837,225.993)">
                <g transform="matrix(8.37916e-17,1.36842,-0.811146,4.96683e-17,30.1265,-1478.27)">
                    <path d="M1091,6.894L1089.42,6.894L1092,0.73L1094.58,6.894L1093,6.894L1093,25.233L1091,25.233L1091,6.894Z" style="fill:rgb(199,199,199);"/>
                </g>
                <g transform="matrix(1,0,0,1,-2.34095,0.0438245)">
                    <path d="M22,21L22,28L3.789,28L3.789,4L22,4L22,11L19,11L19,7C19,7 6.789,7 6.789,7C6.789,7 6.789,25 6.789,25C6.789,25 19,25 19,25L19,21L22,21Z" style="fill:rgb(139,198,161);"/>
                </g>
            </g>
        </g>
    </g>
</svg>
