<svg width="32" height="32" viewBox="0 0 32 32" xmlns="http://www.w3.org/2000/svg">

<path d="m9.73 7.98 2.63 2.84-8.5 1.18 1.21-8.23 2.98 2.5c2.19-1.57 4.88-2.5 7.8-2.5 5.59 0 10.2 3.42 12.2 8.23h-2.63c-1.77-3.48-5.29-5.88-9.52-5.88-2.27 0-4.38 0.688-6.12 1.86z" fill="#8bc6a1"/>
<path d="m22.3 24-2.63-2.84 8.36-1.18-1.07 8.23-2.98-2.5c-2.19 1.57-4.88 2.5-7.8 2.5-5.59 0-10.2-3.42-12.2-8.23h2.6c1.77 3.48 5.32 5.88 9.55 5.88 2.27 0 4.38-0.688 6.12-1.86z" fill="#8bc6a1"/>
<rect x="4" y="14" width="24" height="3" fill="#c7c7c7"/>

</svg>
