<?xml version="1.0" encoding="UTF-8" standalone="no"?>
<!DOCTYPE svg PUBLIC "-//W3C//DTD SVG 1.1//EN" "http://www.w3.org/Graphics/SVG/1.1/DTD/svg11.dtd">
<svg width="100%" height="100%" viewBox="0 0 8 8" version="1.1" xmlns="http://www.w3.org/2000/svg" xmlns:xlink="http://www.w3.org/1999/xlink" xml:space="preserve" xmlns:serif="http://www.serif.com/" style="fill-rule:evenodd;clip-rule:evenodd;stroke-linejoin:round;stroke-miterlimit:2;">
    <g transform="matrix(0.24,0,0,0.24,-6.82121e-15,-30.48)">
        <g id="Pin" transform="matrix(1,0,0,1,-184,127)">
            <rect x="184" y="0" width="32" height="32" style="fill:none;"/>
            <g transform="matrix(0.959549,0.959549,-0.959549,0.959549,-676.85,-898.504)">
                <path d="M935,10C936.003,10.063 936,11 936,11L936,12L930,12L930,11C930.049,10.127 931,10 931,10L935,10Z" style="fill:rgb(139,198,161);"/>
            </g>
            <g transform="matrix(0.959549,0.959549,-1.43932,1.43932,-675.891,-901.382)">
                <path d="M928,14.358C928,14.129 928.137,13.909 928.38,13.747C928.956,13.363 930.044,12.637 930.62,12.253C930.863,12.091 931,11.871 931,11.642C931,11.067 931,10 931,10L937,10L937,11.642C937,11.871 937.137,12.091 937.38,12.253C937.956,12.637 939.044,13.363 939.62,13.747C939.863,13.909 940,14.129 940,14.358C940,14.933 940,16 940,16L928,16L928,14.358Z" style="fill:rgb(139,198,161);"/>
            </g>
            <g transform="matrix(1.07949,-1.07949,0.38382,0.38382,-820.296,1025.86)">
                <path d="M937.322,15L931.778,15L930,12.5L931.778,10L937.322,10L937.322,15Z" style="fill:rgb(199,199,199);"/>
            </g>
        </g>
    </g>
</svg>
