<?xml version="1.0" encoding="UTF-8" standalone="no"?>
<!DOCTYPE svg PUBLIC "-//W3C//DTD SVG 1.1//EN" "http://www.w3.org/Graphics/SVG/1.1/DTD/svg11.dtd">
<svg width="100%" height="100%" viewBox="0 0 8 8" version="1.1" xmlns="http://www.w3.org/2000/svg" xmlns:xlink="http://www.w3.org/1999/xlink" xml:space="preserve" xmlns:serif="http://www.serif.com/" style="fill-rule:evenodd;clip-rule:evenodd;stroke-linejoin:round;stroke-miterlimit:2;">
    <g transform="matrix(0.24,0,0,0.24,-6.82121e-15,-20.4)">
        <g id="Quadrify" transform="matrix(1,0,0,1,-106,85)">
            <rect x="106" y="0" width="32" height="32" style="fill:none;"/>
            <g transform="matrix(1,0,0,1,0.0899607,0.0241185)">
                <g transform="matrix(0.970765,-2.00508e-33,1.95969e-33,0.815442,57.685,3.3815)">
                    <rect x="69.047" y="3" width="5.906" height="25" style="fill:rgb(199,199,199);"/>
                </g>
                <g transform="matrix(1.05264,0.234237,-0.234237,1.05264,-556.722,-150.643)">
                    <path d="M643.549,25.082L640.525,20.791C641.92,19.808 642.75,18.207 642.75,16.5C642.75,13.882 640.821,11.664 638.229,11.301L638.958,6.102C644.143,6.829 648,11.264 648,16.5C648,19.914 646.34,23.115 643.549,25.082Z" style="fill:rgb(139,198,161);"/>
                </g>
            </g>
        </g>
    </g>
</svg>
