<?xml version="1.0" encoding="UTF-8" standalone="no"?>
<!DOCTYPE svg PUBLIC "-//W3C//DTD SVG 1.1//EN" "http://www.w3.org/Graphics/SVG/1.1/DTD/svg11.dtd">
<svg width="100%" height="100%" viewBox="0 0 8 8" version="1.1" xmlns="http://www.w3.org/2000/svg" xmlns:xlink="http://www.w3.org/1999/xlink" xml:space="preserve" xmlns:serif="http://www.serif.com/" style="fill-rule:evenodd;clip-rule:evenodd;stroke-linejoin:round;stroke-miterlimit:2;">
    <g transform="matrix(0.24,0,0,0.24,-40.32,-10.0742)">
        <g id="Random" transform="matrix(1,0,0,1,-16,41.9759)">
            <rect x="184" y="0" width="32" height="32" style="fill:none;"/>
            <g transform="matrix(-0.451468,0.133883,1.83611,6.19156,272.304,-112.002)">
                <path d="M252.923,16L240.462,17.454L228,16L252.923,16Z" style="fill:rgb(139,198,161);"/>
            </g>
            <g transform="matrix(-0.206993,-0.114971,-1.57674,2.83876,277.651,-12.5998)">
                <path d="M252.923,16L240.462,17.454L228,16L252.923,16Z" style="fill:rgb(199,199,199);"/>
            </g>
            <g transform="matrix(0.198991,0.367595,-0.367595,0.198991,135.285,-127.336)">
                <rect x="390" y="19" width="11" height="11" style="fill:rgb(199,199,199);"/>
            </g>
            <g transform="matrix(-0.558582,-0.242658,0.242913,-0.559169,423.064,123.239)">
                <rect x="390" y="19" width="11" height="11" style="fill:rgb(139,198,161);"/>
            </g>
            <g transform="matrix(0.335062,0,0,0.335062,65.7048,10.7878)">
                <circle cx="397" cy="8" r="6" style="fill:rgb(199,199,199);"/>
            </g>
            <g transform="matrix(0.712439,0,0,0.712439,-91.068,2.31669)">
                <circle cx="397" cy="8" r="6" style="fill:rgb(139,198,161);"/>
            </g>
        </g>
    </g>
</svg>
