<?xml version="1.0" encoding="UTF-8" standalone="no"?>
<!DOCTYPE svg PUBLIC "-//W3C//DTD SVG 1.1//EN" "http://www.w3.org/Graphics/SVG/1.1/DTD/svg11.dtd">
<svg width="100%" height="100%" viewBox="0 0 8 8" version="1.1" xmlns="http://www.w3.org/2000/svg" xmlns:xlink="http://www.w3.org/1999/xlink" xml:space="preserve" xmlns:serif="http://www.serif.com/" style="fill-rule:evenodd;clip-rule:evenodd;stroke-linejoin:round;stroke-miterlimit:2;">
    <g transform="matrix(0.24,0,0,0.24,-71.1347,-30.48)">
        <g id="Rectify" transform="matrix(1,0,0,1,243.931,127)">
            <rect x="52.464" y="0" width="32" height="32" style="fill:none;"/>
            <g transform="matrix(-1.56994e-16,-0.854634,0.854634,-1.56994e-16,-15.9889,307.354)">
                <path d="M351.568,90.488C351.044,91.54 350.62,92.764 350.322,94.109C349.996,95.571 349.818,97.177 349.818,98.86C349.818,99.941 349.892,100.99 350.031,101.991C350.142,102.795 350.296,103.568 350.488,104.299C350.779,105.409 351.158,106.425 351.609,107.314C350.569,107.69 349.747,108.522 349.385,109.568C349.08,109.413 348.76,109.266 348.426,109.128C347.765,108.855 347.051,108.618 346.294,108.422L346.296,108.428C345.564,108.237 344.792,108.084 343.987,107.973C343.003,107.839 341.972,107.767 340.911,107.767C337.633,107.767 334.648,108.442 332.441,109.566C332.079,108.519 331.255,107.687 330.213,107.312C330.399,106.945 330.573,106.556 330.734,106.149C330.997,105.479 331.224,104.757 331.411,103.994C331.584,103.284 331.722,102.538 331.821,101.764C331.94,100.832 332.003,99.86 332.003,98.86C332.003,95.631 331.348,92.687 330.255,90.49C331.304,90.098 332.127,89.24 332.469,88.168C333.566,88.723 334.854,89.167 336.273,89.474C337.706,89.783 339.272,89.952 340.911,89.952C344.177,89.952 347.153,89.282 349.357,88.165C349.699,89.237 350.52,90.095 351.568,90.488ZM347.948,101.401C347.863,100.578 347.818,99.728 347.818,98.86C347.818,98.054 347.857,97.265 347.93,96.498L347.901,96.504C346.89,96.742 345.794,96.933 344.635,97.068C344.614,97.563 344.603,98.067 344.603,98.578C344.603,99.349 344.628,100.105 344.675,100.839C345.836,100.974 346.934,101.165 347.948,101.401ZM343.267,91.841C342.501,91.914 341.714,91.952 340.911,91.952C340.14,91.952 339.385,91.917 338.649,91.85L338.653,91.873C338.872,92.931 339.041,94.071 339.151,95.271C339.618,95.29 340.093,95.299 340.574,95.299C341.319,95.299 342.049,95.276 342.759,95.232C342.869,94.072 343.034,92.969 343.246,91.942C343.252,91.908 343.259,91.875 343.267,91.841ZM348.231,94.372C348.512,92.893 348.926,91.528 349.446,90.325C348.235,90.847 346.86,91.264 345.37,91.545C345.362,91.578 345.354,91.612 345.346,91.645C345.1,92.685 344.909,93.827 344.783,95.042C346.025,94.885 347.181,94.659 348.218,94.376L348.231,94.372ZM336.55,91.563C335.022,91.282 333.613,90.859 332.376,90.325C332.916,91.577 333.343,93.004 333.624,94.552L333.642,94.556C334.708,94.808 335.882,95.003 337.133,95.129C337.006,93.856 336.809,92.66 336.553,91.576L336.55,91.563ZM333.59,103.349C333.309,104.828 332.895,106.192 332.376,107.394C333.561,106.883 334.903,106.473 336.357,106.193C336.362,106.175 336.367,106.156 336.372,106.138C336.65,105.124 336.872,103.996 337.029,102.784C335.798,102.911 334.642,103.102 333.59,103.349ZM345.522,106.204C346.954,106.484 348.276,106.89 349.446,107.394C348.948,106.241 348.546,104.939 348.267,103.53C347.241,103.251 346.098,103.029 344.871,102.872C345.027,104.075 345.247,105.196 345.522,106.204ZM333.906,96.65C333.97,97.369 334.003,98.107 334.003,98.86C334.003,99.675 333.964,100.473 333.889,101.249C334.929,101.036 336.048,100.87 337.224,100.76C337.271,100.027 337.296,99.272 337.296,98.502C337.296,98.044 337.287,97.593 337.27,97.147C336.095,97.038 334.978,96.871 333.939,96.657L333.906,96.65ZM342.627,97.241C341.957,97.279 341.272,97.299 340.574,97.299C340.136,97.299 339.703,97.291 339.275,97.276C339.289,97.68 339.296,98.089 339.296,98.502C339.296,99.226 339.275,99.936 339.233,100.63C339.674,100.614 340.119,100.606 340.57,100.606C341.282,100.606 341.98,100.627 342.663,100.666C342.624,99.985 342.603,99.287 342.603,98.578C342.603,98.127 342.611,97.681 342.627,97.241ZM338.486,105.885C339.273,105.808 340.083,105.767 340.911,105.767C341.759,105.767 342.589,105.81 343.395,105.891C343.161,104.895 342.973,103.817 342.839,102.678C342.102,102.631 341.344,102.606 340.57,102.606C340.058,102.606 339.552,102.617 339.055,102.638C338.921,103.767 338.733,104.834 338.501,105.822C338.496,105.843 338.491,105.864 338.486,105.885Z" style="fill:rgb(199,199,199);"/>
            </g>
            <g transform="matrix(6.28238e-17,1.02599,-1.02599,6.28238e-17,169.74,-283.901)">
                <circle cx="302.5" cy="88.5" r="2.5" style="fill:rgb(139,198,161);"/>
            </g>
            <g transform="matrix(6.26577e-17,1.02328,-1.02328,6.26577e-17,148.54,-283.087)">
                <circle cx="302.5" cy="88.5" r="2.5" style="fill:rgb(139,198,161);"/>
            </g>
            <g transform="matrix(6.24917e-17,1.02057,-1.02057,6.24917e-17,169.334,-303.022)">
                <circle cx="302.5" cy="88.5" r="2.5" style="fill:rgb(139,198,161);"/>
            </g>
            <g transform="matrix(6.24917e-17,1.02057,-1.02057,6.24917e-17,148.394,-303.022)">
                <circle cx="302.5" cy="88.5" r="2.5" style="fill:rgb(139,198,161);"/>
            </g>
        </g>
    </g>
</svg>
