<svg width="32" height="32" version="1.1" viewBox="0 0 32 32" xmlns="http://www.w3.org/2000/svg">

<path d="m6.401 15.45c-0.06953-1.286-0.3812-2.563-0.9351-3.759l-1.146-2.474c-0.6523-1.407-0.3554-3.071 0.7429-4.166 1.098-1.094 2.764-1.385 4.168-0.7292l2.503 1.17c2.753 1.287 5.934 1.287 8.688 0l2.365-1.107c1.413-0.6599 3.088-0.3619 4.185 0.7455 1.097 1.108 1.38 2.786 0.707 4.192l-1.077 2.249c-1.341 2.801-1.341 6.058 0 8.859l1.051 2.197c0.6749 1.409 0.389 3.091-0.7132 4.198-1.102 1.107-2.782 1.401-4.194 0.7323l-2.28-1.079c-1.312-0.621-2.722-0.9486-4.137-0.9836-0.1211 0.0046-0.2438 7e-3 -0.3664 7e-3 -0.0851 0-0.1695-0.0016-0.2547-0.0032-1.376 0.0491-2.744 0.3759-4.02 0.9798l-2.418 1.145c-1.405 0.6646-3.075 0.3782-4.178-0.7151-1.104-1.094-1.403-2.763-0.7499-4.172l1.123-2.422c0.5554-1.199 0.8671-2.479 0.9358-3.769-0.01094-0.1829-0.01641-0.3673-0.01641-0.5533 0-0.1821 0.00547-0.3626 0.01563-0.5424zm14.07 8.933c0.2757 0.1066 0.5491 0.2241 0.8186 0.3518l2.28 1.079c0.6734 0.3191 1.475 0.179 2.001-0.3494 0.5257-0.5276 0.6624-1.33 0.3406-2.002l-1.052-2.196c-0.1422-0.298-0.2719-0.5999-0.3891-0.9058-0.8921 1.708-2.291 3.115-3.999 4.022zm4.003-12.75c0.1164-0.3019 0.2445-0.6 0.3852-0.8941l1.077-2.25c0.321-0.6708 0.1859-1.471-0.3375-1.999s-1.322-0.6708-1.996-0.3556l-2.366 1.107c-0.2648 0.1237-0.5328 0.2374-0.8038 0.3408 1.728 0.9082 3.143 2.326 4.041 4.051zm-12.89-4.102c-0.2266-0.09027-0.4515-0.1868-0.6734-0.2903l-2.502-1.17c-0.6702-0.3128-1.465-0.1743-1.989 0.3478-0.5234 0.5222-0.6656 1.316-0.3546 1.987l1.146 2.474c0.1016 0.2179 0.1953 0.4382 0.2828 0.6607 0.9179-1.715 2.349-3.119 4.09-4.008zm-4.086 12.92c-0.08827 0.2257-0.1844 0.4498-0.2875 0.6716l-1.122 2.422c-0.3117 0.6724-0.1687 1.468 0.3578 1.99 0.5257 0.5221 1.323 0.6583 1.993 0.3416l2.418-1.145c0.2273-0.1074 0.457-0.2078 0.6882-0.3004-1.721-0.8895-3.136-2.282-4.047-3.98zm1.897-0.5689c0.6468 1.068 1.552 1.966 2.629 2.608l2.427-2.419-2.623-2.613zm4.547 3.421c0.5632 0.1525 1.151 0.242 1.758 0.2623 0.2016-0.0063 0.4039-0.0071 0.6054-0.0032 0.4961-0.0225 0.9796-0.091 1.447-0.2023l-1.933-1.926zm9.362-5.199c0.1968-0.6708 0.3023-1.381 0.3023-2.114 0-0.7043-0.0977-1.387-0.2797-2.035l-2.094 2.086zm-3.588 4.488c1.122-0.6295 2.068-1.531 2.746-2.614l-0.0055 0.0054-2.591-2.58-2.679 2.668zm2.78-10.53c-0.6531-1.064-1.564-1.956-2.645-2.591l-2.609 2.599 2.623 2.613zm-4.574-3.395c-0.6272-0.165-1.286-0.2529-1.965-0.2529-0.7257 0-1.429 0.1012-2.095 0.2887l2.012 2.004zm-5.962 0.8654c-1.094 0.6662-2.005 1.598-2.644 2.703l2.512 2.502 2.679-2.668zm-3.429 4.646c-0.1031 0.4163-0.1719 0.8466-0.2023 1.286 0.01562 0.3557 0.01562 0.7113 0 1.066 0.03515 0.4972 0.1187 0.9813 0.2468 1.447l1.885-1.878zm4.664 1.922 2.624 2.613 2.679-2.668-2.623-2.614z" fill="#8bc6a1"/>

</svg>
