<?xml version="1.0" encoding="UTF-8" standalone="no"?>
<!DOCTYPE svg PUBLIC "-//W3C//DTD SVG 1.1//EN" "http://www.w3.org/Graphics/SVG/1.1/DTD/svg11.dtd">
<svg width="100%" height="100%" viewBox="0 0 8 8" version="1.1" xmlns="http://www.w3.org/2000/svg" xmlns:xlink="http://www.w3.org/1999/xlink" xml:space="preserve" xmlns:serif="http://www.serif.com/" style="fill-rule:evenodd;clip-rule:evenodd;stroke-linejoin:round;stroke-miterlimit:2;">
    <g transform="matrix(0.24,0,0,0.24,-10.08,-20.4)">
        <g id="Relax" transform="matrix(1,0,0,1,-64,85)">
            <rect x="106" y="0" width="32" height="32" style="fill:none;"/>
            <g transform="matrix(0.781165,0,0,0.778198,-346.619,-240.28)">
                <path d="M587.61,328.617C587.521,326.964 587.122,325.324 586.413,323.787L584.946,320.608C584.111,318.8 584.491,316.662 585.897,315.255C587.303,313.849 589.435,313.475 591.233,314.318L594.437,315.822C597.961,317.476 602.034,317.476 605.559,315.822L608.587,314.4C610.396,313.552 612.54,313.935 613.945,315.358C615.349,316.782 615.712,318.938 614.85,320.745L613.471,323.635C611.754,327.234 611.754,331.42 613.471,335.019L614.817,337.842C615.681,339.653 615.315,341.814 613.904,343.236C612.493,344.659 610.342,345.036 608.535,344.177L605.616,342.79C603.937,341.992 602.132,341.571 600.32,341.526C600.165,341.532 600.008,341.535 599.851,341.535C599.742,341.535 599.634,341.533 599.525,341.531C597.764,341.594 596.012,342.014 594.379,342.79L591.284,344.261C589.486,345.115 587.348,344.747 585.936,343.342C584.523,341.936 584.14,339.792 584.976,337.981L586.413,334.868C587.124,333.327 587.523,331.682 587.611,330.025C587.597,329.79 587.59,329.553 587.59,329.314C587.59,329.08 587.597,328.848 587.61,328.617ZM605.625,340.096C605.978,340.233 606.328,340.384 606.673,340.548L609.592,341.935C610.454,342.345 611.48,342.165 612.153,341.486C612.826,340.808 613.001,339.777 612.589,338.913L611.242,336.091C611.06,335.708 610.894,335.32 610.744,334.927C609.602,337.122 607.811,338.93 605.625,340.096ZM610.749,323.713C610.898,323.325 611.062,322.942 611.242,322.564L612.621,319.673C613.032,318.811 612.859,317.783 612.189,317.104C611.519,316.425 610.496,316.242 609.634,316.647L606.605,318.069C606.266,318.228 605.923,318.374 605.576,318.507C607.788,319.674 609.599,321.496 610.749,323.713ZM594.252,318.442C593.962,318.326 593.674,318.202 593.39,318.069L590.187,316.565C589.329,316.163 588.312,316.341 587.641,317.012C586.971,317.683 586.789,318.703 587.187,319.565L588.654,322.744C588.784,323.024 588.904,323.307 589.016,323.593C590.191,321.389 592.023,319.585 594.252,318.442ZM589.022,335.047C588.909,335.337 588.786,335.625 588.654,335.91L587.218,339.023C586.819,339.887 587.002,340.91 587.676,341.58C588.349,342.251 589.369,342.426 590.227,342.019L593.322,340.548C593.613,340.41 593.907,340.281 594.203,340.162C592,339.019 590.189,337.23 589.022,335.047ZM591.45,334.316C592.278,335.689 593.437,336.842 594.816,337.667L597.923,334.559L594.565,331.201L591.45,334.316ZM597.271,338.712C597.992,338.908 598.745,339.023 599.521,339.049C599.779,339.041 600.038,339.04 600.296,339.045C600.931,339.016 601.55,338.928 602.148,338.785L599.674,336.31L597.271,338.712ZM609.255,332.031C609.507,331.169 609.642,330.257 609.642,329.314C609.642,328.409 609.517,327.532 609.284,326.699L606.604,329.38L609.255,332.031ZM604.662,337.798C606.098,336.989 607.309,335.831 608.177,334.439L608.17,334.446L604.853,331.13L601.424,334.559L604.662,337.798ZM608.221,324.261C607.385,322.894 606.219,321.748 604.835,320.931L601.495,324.271L604.853,327.629L608.221,324.261ZM602.366,319.899C601.563,319.687 600.72,319.574 599.851,319.574C598.922,319.574 598.022,319.704 597.169,319.945L599.745,322.52L602.366,319.899ZM594.734,321.011C593.334,321.867 592.167,323.064 591.349,324.485L594.565,327.7L597.994,324.271L594.734,321.011ZM590.344,326.981C590.212,327.516 590.124,328.069 590.085,328.634C590.105,329.091 590.105,329.548 590.085,330.004C590.13,330.643 590.237,331.265 590.401,331.864L592.814,329.451L590.344,326.981ZM596.315,329.451L599.674,332.809L603.103,329.38L599.745,326.021L596.315,329.451Z" style="fill:rgb(139,198,161);"/>
            </g>
        </g>
    </g>
</svg>
