<?xml version="1.0" encoding="UTF-8" standalone="no"?>
<!DOCTYPE svg PUBLIC "-//W3C//DTD SVG 1.1//EN" "http://www.w3.org/Graphics/SVG/1.1/DTD/svg11.dtd">
<svg width="100%" height="100%" viewBox="0 0 8 8" version="1.1" xmlns="http://www.w3.org/2000/svg" xmlns:xlink="http://www.w3.org/1999/xlink" xml:space="preserve" xmlns:serif="http://www.serif.com/" style="fill-rule:evenodd;clip-rule:evenodd;stroke-linejoin:round;stroke-miterlimit:2;">
    <g transform="matrix(0.24,0,0,0.24,-20.16,-50.88)">
        <g id="Settings-B" serif:id="Settings B" transform="matrix(0.914286,0,0,0.914286,122.4,176.343)">
            <rect x="-42" y="39" width="35" height="35" style="fill:none;"/>
            <g transform="matrix(1.10812,0,0,1.10812,2.29359,-5.58346)">
                <g transform="matrix(1.3376,-0.25718,0.25718,1.3376,-403.809,-9.04911)">
                    <path d="M262.095,95.086L262.078,96.149C262.594,96.243 263.094,96.406 263.567,96.632L264.178,95.763C264.832,96.096 265.43,96.531 265.95,97.05L265.312,97.9C265.673,98.28 265.982,98.705 266.232,99.166L267.237,98.822C267.571,99.477 267.799,100.179 267.914,100.905L266.898,101.217C266.967,101.737 266.967,102.263 266.898,102.783L267.914,103.095C267.799,103.821 267.571,104.523 267.237,105.178L266.232,104.834C265.982,105.295 265.673,105.72 265.312,106.1L265.95,106.95C265.43,107.469 264.832,107.904 264.178,108.237L263.567,107.368C263.094,107.594 262.594,107.757 262.078,107.851L262.095,108.914C261.37,109.029 260.63,109.029 259.905,108.914L259.922,107.851C259.406,107.757 258.906,107.594 258.433,107.368L257.822,108.237C257.168,107.904 256.57,107.469 256.05,106.95L256.688,106.1C256.327,105.72 256.018,105.295 255.768,104.834L254.763,105.178C254.429,104.523 254.201,103.821 254.086,103.095L255.102,102.783C255.033,102.263 255.033,101.737 255.102,101.217L254.086,100.905C254.201,100.179 254.429,99.477 254.763,98.822L255.768,99.166C256.018,98.705 256.327,98.28 256.688,97.9L256.05,97.05C256.57,96.531 257.168,96.096 257.822,95.763L258.433,96.632C258.906,96.406 259.406,96.243 259.922,96.149L259.905,95.086C260.63,94.971 261.37,94.971 262.095,95.086ZM261,97.615C263.42,97.615 265.385,99.58 265.385,102C265.385,104.42 263.42,106.385 261,106.385C258.58,106.385 256.615,104.42 256.615,102C256.615,99.58 258.58,97.615 261,97.615Z" style="fill:rgb(139,198,161);"/>
                </g>
                <g transform="matrix(0.579714,0.666745,-0.666745,0.579714,-99.6029,-185.047)">
                    <path d="M262.366,95.135L262.377,96.896C262.817,97.015 263.24,97.19 263.636,97.417L264.889,96.18C265.653,96.69 266.31,97.347 266.82,98.111L265.583,99.364C265.81,99.76 265.985,100.183 266.104,100.623L267.865,100.634C268.045,101.536 268.045,102.464 267.865,103.366L266.104,103.377C265.985,103.817 265.81,104.24 265.583,104.636L266.82,105.889C266.31,106.653 265.653,107.31 264.889,107.82L263.636,106.583C263.24,106.81 262.817,106.985 262.377,107.104L262.366,108.865C261.464,109.045 260.536,109.045 259.634,108.865L259.623,107.104C259.183,106.985 258.76,106.81 258.364,106.583L257.111,107.82C256.347,107.31 255.69,106.653 255.18,105.889L256.417,104.636C256.19,104.24 256.015,103.817 255.896,103.377L254.135,103.366C253.955,102.464 253.955,101.536 254.135,100.634L255.896,100.623C256.015,100.183 256.19,99.76 256.417,99.364L255.18,98.111C255.69,97.347 256.347,96.69 257.111,96.18L258.364,97.417C258.76,97.19 259.183,97.015 259.623,96.896L259.634,95.135C260.536,94.955 261.464,94.955 262.366,95.135ZM259.674,100.721C259.021,101.472 259.1,102.612 259.852,103.265C260.603,103.918 261.743,103.839 262.396,103.088C263.049,102.337 262.969,101.197 262.218,100.543C261.467,99.89 260.327,99.97 259.674,100.721Z" style="fill:rgb(139,198,161);"/>
                </g>
                <g transform="matrix(1.52807,0,0,1.52807,-420.663,-100.949)">
                    <circle cx="256.664" cy="105.5" r="2.5" style="fill:rgb(139,198,161);"/>
                </g>
            </g>
        </g>
    </g>
</svg>
