<svg width="32" height="32" version="1.1" viewBox="0 0 32 32" xmlns="http://www.w3.org/2000/svg">
<g fill="#8bc6a1">
<path d="m11.3 10.6c-1.01 0.033-2.02 0.227-2.97 0.572l0.301 1.44c-0.67 0.259-1.31 0.609-1.89 1.04l-1.05-1.02c-0.8 0.63-1.5 1.37-2.07 2.21l1.09 0.984c-0.39 0.61-0.699 1.27-0.918 1.96l-1.45-0.205c-0.282 0.98-0.408 1.99-0.375 3l1.46 0.158c0.042 0.72 0.179 1.43 0.408 2.12l-1.3 0.688c0.34 0.96 0.838 1.85 1.46 2.65l1.27-0.729c0.46 0.564 0.992 1.06 1.58 1.48l-0.643 1.32c0.84 0.565 1.77 0.998 2.74 1.28l0.602-1.34c0.7 0.183 1.42 0.275 2.14 0.268l0.254 1.44c1.01-0.033 2.02-0.225 2.97-0.57l-0.299-1.44c0.67-0.259 1.31-0.609 1.89-1.04l1.05 1.02c0.8-0.63 1.5-1.37 2.07-2.21l-1.09-0.986c0.39-0.61 0.697-1.27 0.916-1.96l1.45 0.205c0.282-0.98 0.408-1.99 0.375-3l-1.46-0.158c-0.042-0.72-0.179-1.43-0.408-2.12l1.3-0.688c-0.34-0.96-0.838-1.85-1.46-2.65l-1.27 0.729c-0.46-0.564-0.992-1.06-1.58-1.48l0.643-1.32c-0.84-0.565-1.77-0.998-2.74-1.28l-0.604 1.34c-0.7-0.184-1.41-0.275-2.14-0.268zm6.25 8.51c0.631 3.28-1.52 6.45-4.8 7.08-3.28 0.631-6.45-1.52-7.08-4.8-0.631-3.28 1.52-6.45 4.8-7.08 2.91-0.559 6.38 1.18 7.08 4.8z"/>
<path d="m23.8 1.72c-0.205 0.00584-0.409 0.0209-0.613 0.0469l-0.121 1.57c-0.404 0.08-0.791 0.211-1.16 0.389l-1.04-1.18c-0.72 0.4-1.35 0.949-1.85 1.6l1.03 1.2c-0.227 0.337-0.409 0.704-0.543 1.09l-1.57-0.0996c-0.216 0.79-0.274 1.62-0.17 2.44l1.57 0.121c0.08 0.404 0.209 0.793 0.387 1.16l-1.18 1.04c0.4 0.72 0.949 1.35 1.6 1.85l1.2-1.03c0.337 0.227 0.704 0.411 1.09 0.545l-0.0996 1.57c0.79 0.216 1.62 0.276 2.44 0.172l0.119-1.57c0.404-0.08 0.793-0.211 1.16-0.389l1.04 1.18c0.72-0.4 1.35-0.949 1.85-1.6l-1.03-1.2c0.227-0.337 0.409-0.704 0.543-1.09l1.57 0.0996c0.216-0.79 0.274-1.63 0.17-2.44l-1.57-0.119c-0.08-0.404-0.209-0.793-0.387-1.16l1.18-1.04c-0.4-0.72-0.949-1.35-1.6-1.85l-1.2 1.03c-0.338-0.227-0.704-0.411-1.09-0.545l0.0996-1.57c-0.593-0.162-1.21-0.234-1.83-0.217zm0.268 4.6c0.886 0 1.61 0.718 1.61 1.61 0 0.896-0.722 1.62-1.61 1.62-0.887-1e-7 -1.61-0.72-1.61-1.61 0-0.887 0.72-1.61 1.61-1.61z"/>
<circle cx="11.7" cy="20.3" r="3.87"/>
</g>
</svg>
