<?xml version="1.0" encoding="UTF-8" standalone="no"?>
<!DOCTYPE svg PUBLIC "-//W3C//DTD SVG 1.1//EN" "http://www.w3.org/Graphics/SVG/1.1/DTD/svg11.dtd">
<svg width="100%" height="100%" viewBox="0 0 8 8" version="1.1" xmlns="http://www.w3.org/2000/svg" xmlns:xlink="http://www.w3.org/1999/xlink" xml:space="preserve" xmlns:serif="http://www.serif.com/" style="fill-rule:evenodd;clip-rule:evenodd;stroke-linejoin:round;stroke-miterlimit:2;">
    <g transform="matrix(0.24,0,0,0.24,-10.08,-50.88)">
        <g id="Settings-A" serif:id="Settings A" transform="matrix(1,0,0,1,-10.4638,212)">
            <rect x="52.464" y="0" width="32" height="32" style="fill:none;"/>
            <g transform="matrix(1,0,0,1,-1,-4.98943e-11)">
                <g transform="matrix(1.33333,0,0,1.33333,-1919.76,-5.36549)">
                    <path d="M1492.79,7.066L1493.17,8.478C1493.66,8.559 1494.14,8.687 1494.6,8.861L1495.64,7.831C1496.17,8.072 1496.68,8.363 1497.15,8.702L1496.78,10.117C1497.16,10.431 1497.51,10.782 1497.83,11.163L1499.24,10.791C1499.58,11.265 1499.87,11.77 1500.11,12.299L1499.08,13.339C1499.26,13.802 1499.38,14.28 1499.46,14.768L1500.88,15.154C1500.93,15.733 1500.93,16.316 1500.88,16.895L1499.46,17.28C1499.38,17.768 1499.26,18.247 1499.08,18.709L1500.11,19.749C1499.87,20.279 1499.58,20.784 1499.24,21.257L1497.83,20.885C1497.51,21.267 1497.16,21.617 1496.78,21.931L1497.15,23.347C1496.68,23.685 1496.17,23.976 1495.64,24.217L1494.6,23.187C1494.14,23.361 1493.66,23.489 1493.17,23.57L1492.79,24.982C1492.21,25.038 1491.63,25.038 1491.05,24.982L1490.66,23.57C1490.17,23.489 1489.7,23.361 1489.23,23.187L1488.19,24.217C1487.66,23.976 1487.16,23.685 1486.69,23.347L1487.06,21.931C1486.68,21.617 1486.33,21.267 1486.01,20.885L1484.6,21.257C1484.26,20.784 1483.97,20.279 1483.73,19.749L1484.76,18.709C1484.58,18.247 1484.45,17.768 1484.37,17.28L1482.96,16.895C1482.9,16.316 1482.9,15.733 1482.96,15.154L1484.37,14.768C1484.45,14.28 1484.58,13.802 1484.76,13.339L1483.73,12.299C1483.97,11.77 1484.26,11.265 1484.6,10.791L1486.01,11.163C1486.33,10.782 1486.68,10.431 1487.06,10.117L1486.69,8.702C1487.16,8.363 1487.66,8.072 1488.19,7.831L1489.23,8.861C1489.7,8.687 1490.17,8.559 1490.66,8.478L1491.05,7.066C1491.63,7.01 1492.21,7.01 1492.79,7.066ZM1491.92,11C1489.16,11 1486.92,13.24 1486.92,16C1486.92,18.76 1489.16,21 1491.92,21C1494.68,21 1496.92,18.76 1496.92,16C1496.92,13.24 1494.68,11 1491.92,11Z" style="fill:rgb(139,198,161);"/>
                </g>
                <g transform="matrix(1.11111,0,0,1.11111,-1588.22,-1.80458)">
                    <path d="M1491.92,12.424C1493.91,12.424 1495.52,14.037 1495.52,16.024C1495.52,18.011 1493.91,19.624 1491.92,19.624C1489.93,19.624 1488.32,18.011 1488.32,16.024C1488.32,14.037 1489.93,12.424 1491.92,12.424ZM1491.92,14.224C1490.92,14.224 1490.12,15.031 1490.12,16.024C1490.12,17.018 1490.92,17.824 1491.92,17.824C1492.91,17.824 1493.72,17.018 1493.72,16.024C1493.72,15.031 1492.91,14.224 1491.92,14.224Z" style="fill:rgb(139,198,161);"/>
                </g>
            </g>
        </g>
    </g>
</svg>
