<?xml version="1.0" encoding="UTF-8" standalone="no"?>
<svg
   width="100%"
   height="100%"
   viewBox="0 0 8 8"
   version="1.1"
   xml:space="preserve"
   style="fill-rule:evenodd;clip-rule:evenodd;stroke-linejoin:round;stroke-miterlimit:2;"
   id="svg3"
   sodipodi:docname="small.svg"
   inkscape:version="1.4 (86a8ad7, 2024-10-11)"
   xmlns:inkscape="http://www.inkscape.org/namespaces/inkscape"
   xmlns:sodipodi="http://sodipodi.sourceforge.net/DTD/sodipodi-0.dtd"
   xmlns="http://www.w3.org/2000/svg"
   xmlns:svg="http://www.w3.org/2000/svg"><defs
   id="defs3" /><sodipodi:namedview
   id="namedview3"
   pagecolor="#ffffff"
   bordercolor="#000000"
   borderopacity="0.25"
   inkscape:showpageshadow="2"
   inkscape:pageopacity="0.0"
   inkscape:pagecheckerboard="0"
   inkscape:deskcolor="#d1d1d1"
   inkscape:zoom="106.875"
   inkscape:cx="4"
   inkscape:cy="4"
   inkscape:window-width="1920"
   inkscape:window-height="1057"
   inkscape:window-x="-8"
   inkscape:window-y="-8"
   inkscape:window-maximized="1"
   inkscape:current-layer="svg3" />
    <g
   transform="matrix(0.24,0,0,0.24,-30.24,-50.88)"
   id="g3">
        <g
   id="Small"
   transform="matrix(1,0,0,1,-58,212)">
            <path
   id="rect1"
   style="fill:none"
   d="m 184,0 h 32 v 32 h -32 z" />
            <g
   transform="matrix(1.25674,0,0,1.25674,-307.095,-83.9109)"
   id="g1">
                <path
   d="M413,70L413,89L394,89L394,70L413,70ZM411.5,71.5L395.5,71.5L395.5,87.5L411.5,87.5L411.5,71.5Z"
   style="fill:rgb(139,198,161);"
   id="path1" />
            </g>
            <g
   transform="matrix(1.45493,0,0,1.45493,-391.696,-96.0843)"
   id="g2">
                <path
   d="M403.043,78.392C402.887,78.392 402.804,78.475 402.804,78.621L402.804,79.048C402.804,80.277 403.221,80.684 404.502,80.684L408.825,80.684C410.054,80.684 410.564,80.184 410.564,79.017L410.564,77.871C410.564,76.704 410.054,76.204 408.825,76.204L405.45,76.204C405.106,76.204 405.002,76.1 405.002,75.84L405.002,75.434C405.002,75.173 405.106,75.069 405.45,75.069L408.033,75.069C408.283,75.069 408.377,75.173 408.377,75.392L408.377,75.454C408.377,75.6 408.46,75.684 408.616,75.684L410.179,75.684C410.335,75.684 410.418,75.6 410.418,75.454L410.418,75.027C410.418,73.798 409.991,73.392 408.721,73.392L404.637,73.392C403.408,73.392 402.898,73.892 402.898,75.059L402.898,76.142C402.898,77.309 403.408,77.809 404.637,77.809L408.012,77.809C408.356,77.809 408.46,77.913 408.46,78.173L408.46,78.642C408.46,78.902 408.356,79.006 408.012,79.006L405.179,79.006C404.939,79.006 404.846,78.902 404.846,78.684L404.846,78.621C404.846,78.475 404.752,78.392 404.606,78.392L403.043,78.392Z"
   style="fill:rgb(139,198,161);fill-rule:nonzero;"
   id="path2" />
            </g>
        </g>
    </g>
</svg>
