<?xml version="1.0" encoding="UTF-8" standalone="no"?>
<!DOCTYPE svg PUBLIC "-//W3C//DTD SVG 1.1//EN" "http://www.w3.org/Graphics/SVG/1.1/DTD/svg11.dtd">
<svg width="100%" height="100%" viewBox="0 0 8 8" version="1.1" xmlns="http://www.w3.org/2000/svg" xmlns:xlink="http://www.w3.org/1999/xlink" xml:space="preserve" xmlns:serif="http://www.serif.com/" style="fill-rule:evenodd;clip-rule:evenodd;stroke-linejoin:round;stroke-miterlimit:2;">
    <g transform="matrix(0.24,0,0,0.24,-40.32,-20.4)">
        <g id="Stitch" transform="matrix(1.03226,0,0,1.03226,168,304.871)">
            <rect x="0" y="-213" width="31" height="31" style="fill:none;"/>
            <g transform="matrix(2.90625,0,0,1.9375,-31,-287.594)">
                <rect x="15" y="43" width="2" height="1" style="fill:rgb(199,199,199);"/>
            </g>
            <g transform="matrix(2.90625,0,0,1.9375,-31,-275.969)">
                <rect x="15" y="43" width="2" height="1" style="fill:rgb(199,199,199);"/>
            </g>
            <g transform="matrix(2.90625,0,0,1.90422,-31,-280.35)">
                <rect x="15" y="43" width="2" height="1" style="fill:rgb(199,199,199);"/>
            </g>
            <g transform="matrix(0.159744,0,0,0.159744,-217.774,-429.528)">
                <path d="M1429.98,1513.14L1416.18,1523.18L1381.68,1488.68L1396.9,1467.74C1402.79,1459.66 1402.79,1448.7 1396.9,1440.62L1381.68,1419.68L1416.18,1385.18L1429.98,1397.92L1429.98,1513.14ZM1490.62,1397.92L1501.7,1383.5L1538.92,1419.68L1523.69,1440.62C1517.82,1448.7 1517.82,1459.66 1523.69,1467.74L1538.92,1488.68L1504.42,1523.18L1490.62,1513.14L1490.62,1397.92Z" style="fill:rgb(139,198,161);"/>
            </g>
        </g>
    </g>
</svg>
