<?xml version="1.0" encoding="UTF-8" standalone="no"?>
<!DOCTYPE svg PUBLIC "-//W3C//DTD SVG 1.1//EN" "http://www.w3.org/Graphics/SVG/1.1/DTD/svg11.dtd">
<svg width="100%" height="100%" viewBox="0 0 8 8" version="1.1" xmlns="http://www.w3.org/2000/svg" xmlns:xlink="http://www.w3.org/1999/xlink" xml:space="preserve" xmlns:serif="http://www.serif.com/" style="fill-rule:evenodd;clip-rule:evenodd;stroke-linejoin:round;stroke-miterlimit:2;">
    <g transform="matrix(0.24,0,0,0.24,-60.48,-10.0742)">
        <g id="Straight" transform="matrix(1,0,0,1,146,41.9759)">
            <rect x="106" y="0" width="32" height="32" style="fill:none;"/>
            <g transform="matrix(1,0,0,1,1.40621,-4.9738e-14)">
                <g transform="matrix(3.58769,0,0,1.99629,-4483.6,-1331.02)">
                    <rect x="1284" y="669.019" width="1" height="11.981" style="fill:rgb(199,199,199);"/>
                </g>
                <g transform="matrix(1.08499,0,0,1.08499,-543.692,-0.859853)">
                    <path d="M605.247,7.022L607.442,4.978L610.195,7.934C611.803,9.662 611.803,12.338 610.195,14.066L609.345,14.978C608.809,15.554 608.809,16.446 609.345,17.022L610.195,17.934C611.803,19.662 611.803,22.338 610.195,24.066L607.442,27.022L605.247,24.978L607.999,22.022C608.535,21.446 608.535,20.554 607.999,19.978L607.15,19.066C605.541,17.338 605.541,14.662 607.15,12.934L607.999,12.022C608.535,11.446 608.535,10.554 607.999,9.978L605.247,7.022Z" style="fill:rgb(139,198,161);"/>
                </g>
            </g>
        </g>
    </g>
</svg>
