<?xml version="1.0" encoding="UTF-8" standalone="no"?>
<!DOCTYPE svg PUBLIC "-//W3C//DTD SVG 1.1//EN" "http://www.w3.org/Graphics/SVG/1.1/DTD/svg11.dtd">
<svg width="100%" height="100%" viewBox="0 0 8 8" version="1.1" xmlns="http://www.w3.org/2000/svg" xmlns:xlink="http://www.w3.org/1999/xlink" xml:space="preserve" xmlns:serif="http://www.serif.com/" style="fill-rule:evenodd;clip-rule:evenodd;stroke-linejoin:round;stroke-miterlimit:2;">
    <g transform="matrix(0.24,0,0,0.24,-113.52,-71.1957)">
        <g id="Bottom-Left" transform="matrix(1,0,0,1,423,205.649)">
            <rect x="50" y="91" width="32" height="32" style="fill:none;"/>
            <clipPath id="_clip1">
                <rect x="50" y="91" width="32" height="32"/>
            </clipPath>
            <g clip-path="url(#_clip1)">
                <g transform="matrix(0.643737,0,0,0.643737,-242.443,-93.997)">
                    <path d="M482.876,302.455C485.12,300.315 488.158,299 491.5,299C498.399,299 504,304.601 504,311.5C504,318.399 498.399,324 491.5,324C488.59,324 485.91,323.003 483.785,321.333L487.651,318.432C488.791,319.067 490.104,319.429 491.5,319.429C495.876,319.429 499.429,315.876 499.429,311.5C499.429,307.124 495.876,303.571 491.5,303.571C489.657,303.571 487.96,304.201 486.612,305.258L482.876,302.455Z" style="fill:rgb(199,199,199);"/>
                </g>
                <g transform="matrix(0.681577,0,0,0.681577,-276.463,-105.311)">
                    <path d="M502.666,317.122C500.606,321.2 496.377,324 491.5,324C484.601,324 479,318.399 479,311.5C479,304.601 484.601,299 491.5,299C496.377,299 500.606,301.8 502.666,305.878L497.443,305.878C495.951,304.301 493.84,303.317 491.5,303.317C486.984,303.317 483.317,306.984 483.317,311.5C483.317,316.016 486.984,319.683 491.5,319.683C493.84,319.683 495.951,318.699 497.443,317.122L502.666,317.122Z" style="fill:rgb(139,198,161);"/>
                </g>
                <g transform="matrix(0.471273,0,0,0.990867,50.3913,41.1455)">
                    <path d="M38.322,67.846L18.133,67.846L18.133,65.077L38.322,65.077L38.322,62.308L49.967,66.462L38.322,70.615L38.322,67.846Z" style="fill:white;"/>
                </g>
            </g>
        </g>
    </g>
</svg>
