<svg width="32" height="32" version="1.1" viewBox="0 0 32 32" xmlns="http://www.w3.org/2000/svg">

<path d="m18.4 9.7c1.44-1.38 3.4-2.22 5.55-2.22 4.44 0 8.05 3.61 8.05 8.05 0 4.44-3.61 8.05-8.05 8.05-1.87 0-3.6-0.642-4.97-1.72l2.49-1.87c0.734 0.409 1.58 0.642 2.48 0.642 2.82 0 5.1-2.29 5.1-5.1s-2.29-5.1-5.1-5.1c-1.19 0-2.28 0.406-3.15 1.09z" fill="#c7c7c7"/>
<path d="m16.1 19.8c-1.4 2.78-4.29 4.69-7.61 4.69-4.7 0-8.52-3.82-8.52-8.52s3.82-8.52 8.52-8.52c3.32 0 6.21 1.91 7.61 4.69h-3.56c-1.02-1.07-2.46-1.75-4.05-1.75-3.08 0-5.58 2.5-5.58 5.58s2.5 5.58 5.58 5.58c1.59 0 3.03-0.671 4.05-1.75z" fill="#8bc6a1"/>
<path d="m18 17h-9v-2h9v-3l6 4-6 4z" fill="#fff"/>

</svg>
