<?xml version="1.0" encoding="UTF-8" standalone="no"?>
<!DOCTYPE svg PUBLIC "-//W3C//DTD SVG 1.1//EN" "http://www.w3.org/Graphics/SVG/1.1/DTD/svg11.dtd">
<svg width="100%" height="100%" viewBox="0 0 8 8" version="1.1" xmlns="http://www.w3.org/2000/svg" xmlns:xlink="http://www.w3.org/1999/xlink" xml:space="preserve" xmlns:serif="http://www.serif.com/" style="fill-rule:evenodd;clip-rule:evenodd;stroke-miterlimit:2;">
    <g transform="matrix(0.24,0,0,0.24,-20.16,-20.4)">
        <g id="Unwrap" transform="matrix(1,0,0,1,-22,85)">
            <rect x="106" y="0" width="32" height="32" style="fill:none;"/>
            <g transform="matrix(0.188406,0,0,0.188406,-150.529,-257.659)">
                <path d="M1457.31,1402.64C1461.8,1401.07 1466.01,1398.49 1469.6,1394.9L1481,1383.5L1515.5,1418L1504.1,1429.4C1500.51,1432.99 1497.93,1437.2 1496.36,1441.69L1485.61,1441.69C1487.46,1434.52 1491.2,1427.74 1496.82,1422.12C1496.82,1422.12 1500.93,1418 1500.93,1418L1481,1398.07L1476.88,1402.18C1471.27,1407.8 1464.48,1411.54 1457.31,1413.39L1457.31,1402.64Z" style="fill:rgb(139,198,161);stroke:rgb(139,198,161);stroke-width:3.72px;"/>
            </g>
            <g transform="matrix(0.188406,0,0,0.188406,-150.529,-257.659)">
                <path d="M1496.36,1463.31C1497.93,1467.8 1500.51,1472.01 1504.1,1475.6L1515.5,1487L1481,1521.5L1469.6,1510.1C1466.01,1506.51 1461.8,1503.93 1457.31,1502.36L1457.31,1491.61C1464.48,1493.46 1471.27,1497.2 1476.88,1502.82C1476.88,1502.82 1481,1506.93 1481,1506.93L1500.93,1487L1496.82,1482.88C1491.2,1477.27 1487.46,1470.48 1485.61,1463.31L1496.36,1463.31Z" style="fill:rgb(139,198,161);stroke:rgb(139,198,161);stroke-width:3.72px;"/>
            </g>
            <g transform="matrix(0.188406,0,0,0.188406,-150.529,-257.659)">
                <path d="M1435.69,1502.36C1431.2,1503.93 1426.99,1506.51 1423.4,1510.1L1412,1521.5L1377.5,1487L1388.9,1475.6C1392.49,1472.01 1395.07,1467.8 1396.64,1463.31L1407.39,1463.31C1405.54,1470.48 1401.8,1477.27 1396.18,1482.88C1396.18,1482.88 1392.07,1487 1392.07,1487L1412,1506.93L1416.12,1502.82C1421.74,1497.2 1428.52,1493.46 1435.69,1491.61L1435.69,1502.36Z" style="fill:rgb(139,198,161);stroke:rgb(139,198,161);stroke-width:3.72px;"/>
            </g>
            <g transform="matrix(0.188406,0,0,0.188406,-150.529,-257.659)">
                <path d="M1396.64,1441.69C1395.07,1437.2 1392.49,1432.99 1388.9,1429.4L1377.5,1418L1412,1383.5L1423.4,1394.9C1426.99,1398.49 1431.2,1401.07 1435.69,1402.64L1435.69,1413.39C1428.52,1411.54 1421.74,1407.8 1416.12,1402.18C1416.12,1402.18 1412,1398.07 1412,1398.07L1392.07,1418L1396.18,1422.12C1401.8,1427.74 1405.54,1434.52 1407.39,1441.69L1396.64,1441.69Z" style="fill:rgb(139,198,161);stroke:rgb(139,198,161);stroke-width:3.72px;"/>
            </g>
            <g transform="matrix(0.243151,0,0,0.243151,-278.609,-399.092)">
                <path d="M1639.32,1690.28L1629.22,1690.25L1629.22,1717.27C1629.22,1722.87 1631.77,1725.27 1637.62,1725.27L1657.62,1725.27C1663.47,1725.27 1665.97,1722.87 1665.97,1717.27L1665.97,1690.26L1655.87,1690.26L1655.86,1717.22L1639.29,1717.22L1639.32,1690.28Z" style="fill:rgb(199,199,199);fill-rule:nonzero;"/>
            </g>
        </g>
    </g>
</svg>
