<?xml version="1.0" encoding="UTF-8" standalone="no"?>
<!DOCTYPE svg PUBLIC "-//W3C//DTD SVG 1.1//EN" "http://www.w3.org/Graphics/SVG/1.1/DTD/svg11.dtd">
<svg width="100%" height="100%" viewBox="0 0 8 8" version="1.1" xmlns="http://www.w3.org/2000/svg" xmlns:xlink="http://www.w3.org/1999/xlink" xml:space="preserve" xmlns:serif="http://www.serif.com/" style="fill-rule:evenodd;clip-rule:evenodd;stroke-linejoin:round;stroke-miterlimit:2;">
    <g transform="matrix(0.24,0,0,0.24,-114.72,-50.88)">
        <rect id="Camera" x="478" y="212" width="32" height="32" style="fill:none;"/>
        <g id="Camera1" serif:id="Camera">
            <g id="Camera-Based" serif:id="Camera Based" transform="matrix(1,0,0,1,477.308,211.692)">
                <g transform="matrix(1.14,0,0,0.895317,0.0323077,7.14516)">
                    <rect x="4" y="8" width="15" height="11.169" style="fill:rgb(139,198,161);"/>
                </g>
                <g transform="matrix(0.593924,0,0,1.08333,19.2411,4.30769)">
                    <path d="M17.597,8.308L17.597,18.462L7.495,15.692L7.495,11.077L17.597,8.308Z" style="fill:rgb(139,198,161);"/>
                </g>
                <g transform="matrix(0.860938,0,0,0.860938,1.57408,1.003)">
                    <circle cx="9" cy="9" r="4" style="fill:rgb(139,198,161);"/>
                </g>
                <g transform="matrix(0.860938,0,0,0.860938,9.6095,1.003)">
                    <circle cx="9" cy="9" r="4" style="fill:rgb(139,198,161);"/>
                </g>
            </g>
        </g>
    </g>
</svg>
