<?xml version="1.0" encoding="UTF-8" standalone="no"?>
<!DOCTYPE svg PUBLIC "-//W3C//DTD SVG 1.1//EN" "http://www.w3.org/Graphics/SVG/1.1/DTD/svg11.dtd">
<svg width="100%" height="100%" viewBox="0 0 8 8" version="1.1" xmlns="http://www.w3.org/2000/svg" xmlns:xlink="http://www.w3.org/1999/xlink" xml:space="preserve" xmlns:serif="http://www.serif.com/" style="fill-rule:evenodd;clip-rule:evenodd;stroke-linejoin:round;stroke-miterlimit:2;">
    <g transform="matrix(0.24,0,0,0.24,-30.24,-20.4)">
        <g id="Weld" transform="matrix(1,0,0,1,20,85)">
            <rect x="106" y="0" width="32" height="32" style="fill:none;"/>
            <g transform="matrix(1,0,0,1,-665,4)">
                <g transform="matrix(-1.64474e-16,0.895353,-0.898691,-1.65087e-16,875.97,-2.08983)">
                    <circle cx="7.5" cy="88.5" r="3.5" style="fill:rgb(139,198,161);"/>
                </g>
                <g transform="matrix(-1.64474e-16,0.895353,-0.898691,-1.65087e-16,866.534,13.6373)">
                    <circle cx="7.5" cy="88.5" r="3.5" style="fill:white;"/>
                </g>
                <g transform="matrix(-1.63492e-16,0.890011,-0.898691,-1.65087e-16,857.098,-2.06847)">
                    <circle cx="7.5" cy="88.5" r="3.5" style="fill:rgb(139,198,161);"/>
                </g>
                <g transform="matrix(-1.92601e-16,1.04847,-1.04847,-1.92601e-16,887.653,-3.76246)">
                    <rect x="6" y="92" width="2" height="8" style="fill:rgb(199,199,199);"/>
                </g>
                <g transform="matrix(0.908004,0.524236,-0.490805,0.850099,833.278,-72.5094)">
                    <rect x="6" y="92" width="2" height="8" style="fill:rgb(199,199,199);"/>
                </g>
                <g transform="matrix(0.908004,-0.524236,0.452971,0.78457,731.772,-59.1413)">
                    <rect x="6" y="92" width="2" height="8" style="fill:rgb(199,199,199);"/>
                </g>
            </g>
        </g>
    </g>
</svg>
