<svg width="32" height="32" viewBox="0 0 32 32" xmlns="http://www.w3.org/2000/svg">

<path d="m14.1 20.4-7.52 7.52-2.16-2.16 7.41-7.41c-2.67-3.45-2.43-8.44 0.743-11.6 3.44-3.44 9.02-3.44 12.5 0 3.44 3.44 3.44 9.02 0 12.5-2.97 2.97-7.53 3.37-10.9 1.22zm9.29-12c-2.53-2.53-6.64-2.53-9.17 0-2.53 2.53-2.53 6.64 0 9.17 2.53 2.53 6.64 2.53 9.17 0 2.53-2.53 2.53-6.64 0-9.17z" fill="#8bc6a1"/>
<g fill="#c7c7c7">
<circle cx="16.2" cy="14.7" r="1.92"/>
<circle cx="21.5" cy="14.7" r="1.92"/>
<circle cx="18.9" cy="10.2" r="1.92"/>

</g>
</svg>
