<?xml version="1.0" encoding="UTF-8" standalone="no"?>
<!DOCTYPE svg PUBLIC "-//W3C//DTD SVG 1.1//EN" "http://www.w3.org/Graphics/SVG/1.1/DTD/svg11.dtd">
<svg width="100%" height="100%" viewBox="0 0 8 8" version="1.1" xmlns="http://www.w3.org/2000/svg" xmlns:xlink="http://www.w3.org/1999/xlink" xml:space="preserve" xmlns:serif="http://www.serif.com/" style="fill-rule:evenodd;clip-rule:evenodd;stroke-linejoin:round;stroke-miterlimit:2;">
    <g transform="matrix(0.24,0,0,0.24,-10.08,-40.56)">
        <g id="Zero" transform="matrix(1,0,0,1,-10.4638,169)">
            <rect x="52.464" y="0" width="32" height="32" style="fill:none;"/>
            <g transform="matrix(0.720725,0.720725,-0.720725,0.720725,-767.672,-848.347)">
                <path d="M1181.4,23.929L1181.4,34.359L1178.4,34.359L1178.4,24.071C1174.15,23.532 1170.86,19.898 1170.86,15.5C1170.86,10.731 1174.73,6.86 1179.5,6.86C1184.27,6.86 1188.14,10.731 1188.14,15.5C1188.14,19.614 1185.26,23.061 1181.4,23.929ZM1179.5,9.14C1175.99,9.14 1173.14,11.99 1173.14,15.5C1173.14,19.01 1175.99,21.86 1179.5,21.86C1183.01,21.86 1185.86,19.01 1185.86,15.5C1185.86,11.99 1183.01,9.14 1179.5,9.14Z" style="fill:rgb(139,198,161);"/>
            </g>
            <g transform="matrix(0.320498,0,0,0.320498,-58.562,12.1832)">
                <circle cx="397" cy="8" r="6" style="fill:rgb(199,199,199);"/>
            </g>
            <g transform="matrix(0.320498,0,0,0.320498,-53.2399,12.1832)">
                <circle cx="397" cy="8" r="6" style="fill:rgb(199,199,199);"/>
            </g>
            <g transform="matrix(0.320498,0,0,0.320498,-55.8789,7.65286)">
                <circle cx="397" cy="8" r="6" style="fill:rgb(199,199,199);"/>
            </g>
        </g>
    </g>
</svg>
