<svg width="32" height="32" viewBox="0 0 32 32" xmlns="http://www.w3.org/2000/svg">
<rect x="11" y="11" width="10" height="10" fill="#ffffff"/>
<path d="m22.65 2.69 6.655 6.655-3.406 4.053c-1.265 1.504-1.265 3.7 0 5.204l3.406 4.053-6.655 6.655-4.276-3.109c-1.418-1.032-3.339-1.032-4.757 0l-4.276 3.109-6.655-6.655 3.435-4.033c1.287-1.51 1.287-3.732 0-5.243l-3.435-4.033 6.655-6.655 4.276 3.109c1.418 1.032 3.339 1.032 4.757 0zm-0.2237 2.857-2.772 2.016c-2.182 1.586-5.137 1.586-7.318 0l-2.772-2.016-3.918 3.916 2.131 2.504c1.981 2.324 1.981 5.742 0 8.067l-2.131 2.504 3.918 3.916 2.772-2.014c2.182-1.588 5.137-1.588 7.318 0l2.772 2.014 3.925-3.925-2.12-2.523c-1.946-2.315-1.946-5.694 0-8.007l2.12-2.525z" fill="#62cdf9"/>
</svg>
