<svg width="32" height="32" viewBox="0 0 32 32" xmlns="http://www.w3.org/2000/svg">

<path d="m15 17h-5v-2h5v-5h2v5h5v2h-5v5h-2z" fill="#ffffff"/>
<g fill="#7d87ff">
<path d="m3.07 17c0.508 6.36 5.56 11.4 11.9 11.9v-2.51c-4.98-0.49-8.93-4.43-9.42-9.42z"/>
<path d="m26.4 17c-0.493 4.98-4.44 8.93-9.42 9.42v2.51c6.36-0.506 11.4-5.56 11.9-11.9z"/>
<path d="m17 3.07v2.51c5 0.478 8.95 4.42 9.45 9.42h2.51c-0.509-6.38-5.58-11.4-12-11.9z"/>
<path d="m15 3.08c-6.36 0.506-11.4 5.56-11.9 11.9h2.51c0.493-4.98 4.44-8.93 9.42-9.42z"/>

</g>
</svg>
