<?xml version="1.0" encoding="UTF-8" standalone="no"?>
<svg
   width="100%"
   height="100%"
   viewBox="0 0 32 32"
   version="1.1"
   xml:space="preserve"
   style="fill-rule:evenodd;clip-rule:evenodd;stroke-linejoin:round;stroke-miterlimit:2;"
   id="svg4"
   sodipodi:docname="univ_icon_cut.svg"
   inkscape:version="1.4 (86a8ad7, 2024-10-11)"
   xmlns:inkscape="http://www.inkscape.org/namespaces/inkscape"
   xmlns:sodipodi="http://sodipodi.sourceforge.net/DTD/sodipodi-0.dtd"
   xmlns="http://www.w3.org/2000/svg"
   xmlns:svg="http://www.w3.org/2000/svg"><defs
     id="defs4" /><sodipodi:namedview
     id="namedview4"
     pagecolor="#ffffff"
     bordercolor="#000000"
     borderopacity="0.25"
     inkscape:showpageshadow="2"
     inkscape:pageopacity="0.0"
     inkscape:pagecheckerboard="0"
     inkscape:deskcolor="#d1d1d1"
     inkscape:zoom="26.71875"
     inkscape:cx="16"
     inkscape:cy="16"
     inkscape:window-width="1920"
     inkscape:window-height="1057"
     inkscape:window-x="-8"
     inkscape:window-y="-8"
     inkscape:window-maximized="1"
     inkscape:current-layer="svg4" /><rect
     id="Cut"
     x="0"
     y="0"
     width="32"
     height="32"
     style="fill:none;" /><g
     id="g4"
     transform="matrix(1.4491228,0,0,1.4491228,-7.1859649,-7.1859649)"><path
       d="M 13,24.545 11,26 6,21 8.207,17.966 c 0.852,-1.172 0.852,-2.76 0,-3.932 L 6,11 11,6 13,7.455 Z M 19,7.455 21,6 l 5,5 -2.207,3.034 c -0.852,1.172 -0.852,2.76 0,3.932 L 26,21 21,26 19,24.545 Z"
       style="fill:#7d87ff"
       id="path1" /><rect
       x="15"
       y="5"
       width="2"
       height="4"
       style="fill:#ff87a9"
       id="rect1" /><rect
       x="15"
       y="11"
       width="2"
       height="4"
       style="fill:#ff87a9"
       id="rect2" /><rect
       x="15"
       y="17"
       width="2"
       height="4"
       style="fill:#ff87a9"
       id="rect3" /><rect
       x="15"
       y="23"
       width="2"
       height="4"
       style="fill:#ff87a9"
       id="rect4" /></g></svg>
