<?xml version="1.0" encoding="UTF-8" standalone="no"?>
<svg
   width="100%"
   height="100%"
   viewBox="0 0 32 32"
   version="1.1"
   xml:space="preserve"
   style="fill-rule:evenodd;clip-rule:evenodd;stroke-linejoin:round;stroke-miterlimit:2;"
   id="svg7"
   sodipodi:docname="univ_icon_edge_grow.svg"
   inkscape:version="1.4 (86a8ad7, 2024-10-11)"
   xmlns:inkscape="http://www.inkscape.org/namespaces/inkscape"
   xmlns:sodipodi="http://sodipodi.sourceforge.net/DTD/sodipodi-0.dtd"
   xmlns="http://www.w3.org/2000/svg"
   xmlns:svg="http://www.w3.org/2000/svg"
   xmlns:serif="http://www.serif.com/"><defs
   id="defs7" /><sodipodi:namedview
   id="namedview7"
   pagecolor="#ffffff"
   bordercolor="#000000"
   borderopacity="0.25"
   inkscape:showpageshadow="2"
   inkscape:pageopacity="0.0"
   inkscape:pagecheckerboard="0"
   inkscape:deskcolor="#d1d1d1"
   inkscape:zoom="13.359375"
   inkscape:cx="7.897076"
   inkscape:cy="16.05614"
   inkscape:window-width="1920"
   inkscape:window-height="1057"
   inkscape:window-x="-8"
   inkscape:window-y="-8"
   inkscape:window-maximized="1"
   inkscape:current-layer="svg7" />
    <g
   transform="matrix(1.3649116,0,0,1.3649116,-1318.8836,-5.8713342)"
   id="g7">
        <g
   id="Edge-Grow"
   serif:id="Edge Grow"
   transform="matrix(1.03226,0,0,1.03226,962,219.895)">
            <rect
   x="0"
   y="-213"
   width="31"
   height="31"
   style="fill:none"
   id="rect1" />
            <g
   transform="matrix(0.830357,0,0,0.276786,-728.085,-202.067)"
   id="g2">
                <rect
   x="892"
   y="13"
   width="7"
   height="7"
   style="fill:#62cdf9"
   id="rect2" />
            </g>
            <g
   transform="matrix(0.830357,0,0,0.276786,-735.835,-202.067)"
   id="g3">
                <rect
   x="892"
   y="13"
   width="7"
   height="7"
   style="fill:#62cdf9"
   id="rect3" />
            </g>
            <g
   transform="matrix(0,-1.52232,0.276786,0,-0.691964,1156.54)"
   id="g4">
                <path
   d="M 893.909,34 H 892 v -7 h 3.182 V 90 H 892 v -7 h 1.909 z"
   style="fill:#7d87ff"
   id="path3" />
            </g>
            <g
   transform="matrix(0,1.52232,-0.276786,0,31.692,-1552.5)"
   id="g5">
                <path
   d="m 894.545,34 h -1.909 v -7 h 3.182 v 63 h -3.182 v -7 h 1.909 z"
   style="fill:#7d87ff"
   id="path4" />
            </g>
            <g
   transform="matrix(0.830357,0,0,0.276786,-720.335,-202.067)"
   id="g6">
                <rect
   x="892"
   y="13"
   width="7"
   height="7"
   style="fill:#62cdf9"
   id="rect5" />
            </g>
        </g>
    </g>
</svg>
