<svg width="32" height="32" version="1.1" viewBox="0 0 32 32" xmlns="http://www.w3.org/2000/svg">
<g fill="#7d87ff">
<path d="m3 23s6.1-12.6 8.75-16.7c1.62-2.51 4.25-2.28 4.25-2.28v2.6s-1.86-0.016-2.99 2.05c-7.26 13.3-7.8 14.2-7.8 14.2zm26 0s-6.1-12.6-8.75-16.7c-1.62-2.51-4.25-2.28-4.25-2.28v2.6s1.86-0.016 2.99 2.05c7.26 13.3 7.8 14.2 7.8 14.2z"/>
<path d="m7.3 23c2.39-1.45 3.19-1.85 5-2.45 1.81-0.595 3.7-0.597 3.7-0.597v-2.3s-1.7-0.109-3.94 0.68c-2.27 0.8-4.94 2.1-9.06 4.66zm17.4 0c-2.39-1.45-3.19-1.85-5-2.45-1.81-0.595-3.7-0.597-3.7-0.597v-2.3s1.7-0.109 3.94 0.68c2.27 0.8 4.94 2.1 9.06 4.66z"/>
<path d="m3 23s4.97-6.59 9.01-9.68c2.59-1.85 3.99-1.65 3.99-1.65v2.71s-1.85-0.108-4.01 1.79c-2.28 1.87-5.86 6.14-5.86 6.14zm26 0s-4.97-6.59-9.01-9.68c-2.59-1.85-3.99-1.65-3.99-1.65v2.71s1.85-0.108 4.01 1.79c2.28 1.87 5.86 6.14 5.86 6.14z"/>
</g>
<rect x="3" y="25" width="26" height="3" fill="#62cdf9"/>
</svg>
