<svg width="32" height="32" version="1.1" viewBox="0 0 32 32" xmlns="http://www.w3.org/2000/svg">
<path d="m10.5 19c-0.4-0.252-0.78-0.552-1.13-0.9l-3.05-3.05c-2.5-2.5-2.5-6.56 5.9e-4 -9.06 2.5-2.5 6.56-2.5 9.06 2.1e-4l3.05 3.05c0.698 0.698 1.2 1.52 1.51 2.39 0.284 0.803 0.402 1.65 0.356 2.49-0.0836 1.52-0.706 3.01-1.86 4.17-0.838 0.838-1.85 1.4-2.92 1.67l-6e-3 -6e-3c-0.544-0.544-0.855-1.24-0.931-1.95 0.868-0.135 1.7-0.538 2.37-1.21 0.928-0.929 1.34-2.18 1.24-3.39-0.06-0.737-0.31-1.46-0.748-2.09-0.145-0.209-0.31-0.408-0.496-0.594l-3.05-3.05c-1.68-1.68-4.4-1.68-6.08-6.2e-4 -1.68 1.68-1.68 4.4-1.8e-4 6.08l2.65 2.65c-0.158 0.926-0.142 1.88 0.0504 2.8z" fill="#7d87ff"/>
<path d="m21.2 12c0.447 0.266 0.868 0.591 1.25 0.976l3.05 3.05c2.5 2.5 2.5 6.56 3e-4 9.06-2.5 2.5-6.56 2.5-9.06 6e-4l-3.05-3.05c-0.698-0.698-1.2-1.52-1.51-2.39-0.284-0.804-0.402-1.65-0.355-2.49 0.0836-1.52 0.704-3.01 1.86-4.17 0.822-0.822 1.81-1.37 2.86-1.65 0.528 0.551 0.824 1.24 0.888 1.95-0.829 0.152-1.62 0.547-2.26 1.19-0.929 0.929-1.34 2.18-1.24 3.39 0.0601 0.737 0.309 1.46 0.748 2.09 0.145 0.209 0.311 0.408 0.496 0.594l3.05 3.05c1.68 1.68 4.4 1.68 6.08-2e-4 1.68-1.68 1.68-4.4-6e-4 -6.08l-2.75-2.75c0.149-0.918 0.126-1.86-0.0684-2.77z" fill="#62cdf9"/>
</svg>
