<svg width="32" height="32" version="1.1" viewBox="0 0 32 32" xmlns="http://www.w3.org/2000/svg">
<path d="m22 17.8 1.5 8.45 7.45-3.69z" fill="#7d87ff"/>
<path d="m15.9 3.29c-6.99-5.42e-5 -12.7 5.66-12.7 12.7 0.00824 3.81 1.73 7.4 4.69 9.8l1.72-1.96c-2.38-1.89-3.76-4.76-3.77-7.79-1.14e-4 -5.53 4.48-10 10-10 5.53-1.14e-4 10 4.48 10 10-9.33e-4 1.16-0.289 2.49-0.688 3.58l2.34 1.25c0.571-1.46 1-3.3 1.01-4.87 5.4e-5 -6.99-5.66-12.7-12.7-12.7zm9.9 20.5-1.44 1.54c0.522-0.471 1-0.984 1.44-1.54z" fill="#7d87ff"/>
<rect x="11" y="14.5" width="10" height="3" fill="#62cdf9"/>
<rect x="11" y="23" width="10" height="3" fill="#ff87a9"/>
<rect x="14.5" y="11" width="3" height="10" fill="#62cdf9"/>

</svg>
