<?xml version="1.0" encoding="UTF-8" standalone="no"?>
<svg
   width="100%"
   height="100%"
   viewBox="0 0 32 32"
   version="1.1"
   xml:space="preserve"
   style="fill-rule:evenodd;clip-rule:evenodd;stroke-linejoin:round;stroke-miterlimit:2;"
   id="svg10"
   sodipodi:docname="univ_icon_pack.svg"
   inkscape:version="1.4 (86a8ad7, 2024-10-11)"
   xmlns:inkscape="http://www.inkscape.org/namespaces/inkscape"
   xmlns:sodipodi="http://sodipodi.sourceforge.net/DTD/sodipodi-0.dtd"
   xmlns="http://www.w3.org/2000/svg"
   xmlns:svg="http://www.w3.org/2000/svg"><defs
   id="defs10" /><sodipodi:namedview
   id="namedview10"
   pagecolor="#ffffff"
   bordercolor="#000000"
   borderopacity="0.25"
   inkscape:showpageshadow="2"
   inkscape:pageopacity="0.0"
   inkscape:pagecheckerboard="0"
   inkscape:deskcolor="#d1d1d1"
   inkscape:zoom="18.893009"
   inkscape:cx="12.094421"
   inkscape:cy="19.610428"
   inkscape:window-width="1920"
   inkscape:window-height="1057"
   inkscape:window-x="-8"
   inkscape:window-y="-8"
   inkscape:window-maximized="1"
   inkscape:current-layer="svg10" />
    <g
   transform="matrix(1.5127558,0,0,1.5127558,-846.2708,-8.2405781)"
   id="g10">
        <g
   id="Pack"
   transform="translate(448,0.0241185)">
            <rect
   x="106"
   y="0"
   width="32"
   height="32"
   style="fill:none"
   id="rect1" />
            <g
   transform="translate(-447)"
   id="g2">
                <rect
   x="559"
   y="6"
   width="6"
   height="14"
   style="fill:#7d87ff"
   id="rect2" />
            </g>
            <g
   transform="matrix(1.33333,0,0,0.285714,-633.333,20.2857)"
   id="g3">
                <rect
   x="559"
   y="6"
   width="6"
   height="14"
   style="fill:#ff87a9"
   id="rect3" />
            </g>
            <g
   transform="matrix(1,0,0,1.5,-447,-10)"
   id="g4">
                <rect
   x="567"
   y="16"
   width="4"
   height="4"
   style="fill:#dc87ff"
   id="rect4" />
            </g>
            <g
   transform="matrix(1,0,0,0.666667,-447,2)"
   id="g5">
                <rect
   x="573"
   y="6"
   width="6"
   height="3"
   style="fill:#dc87ff"
   id="rect5" />
            </g>
            <g
   transform="matrix(0,-1.66667,0.428571,0,123.429,951.667)"
   id="g6">
                <rect
   x="559"
   y="6"
   width="6"
   height="14"
   style="fill:#ff87a9"
   id="rect6" />
            </g>
            <g
   transform="translate(-448)"
   id="g7">
                <rect
   x="570"
   y="22"
   width="4"
   height="4"
   style="fill:#7d87ff"
   id="rect7" />
            </g>
            <g
   transform="translate(-442)"
   id="g8">
                <rect
   x="570"
   y="22"
   width="4"
   height="4"
   style="fill:#62cdf9"
   id="rect8" />
            </g>
            <g
   transform="matrix(-0.666667,0,0,-0.428571,496.667,14.5714)"
   id="g9">
                <rect
   x="559"
   y="6"
   width="6"
   height="14"
   style="fill:#62cdf9"
   id="rect9" />
            </g>
        </g>
    </g>
</svg>
