<svg width="32" height="32" version="1.1" viewBox="0 0 32 32" xmlns="http://www.w3.org/2000/svg">

<path d="m26.7 8.27c0.902 1.02 0 1.92 0 1.92l-0.96 0.96-5.76-5.76 0.96-0.96c0.885-0.791 1.92 0 1.92 0z" fill="#7d87ff"/>
<path d="m9.9 9.75c0.33-0.33 0.778-0.515 1.24-0.515 1.11 0 3.19-9.5e-4 4.3-9.5e-4 0.466 0 0.914-0.185 1.24-0.515l2.36-2.36 5.76 5.76-2.36 2.36c-0.33 0.33-0.515 0.778-0.515 1.24 0 1.11-1e-3 3.19-1e-3 4.3 0 0.466-0.185 0.914-0.515 1.24l-2.36 2.36-11.5-11.5z" fill="#7d87ff"/>
<path d="m13.3 19.8-5.98 5.98-2.88 0.96 0.96-2.88 5.98-5.98z" fill="#ffffff"/>

</svg>
