<?xml version="1.0" encoding="UTF-8" standalone="no"?>
<svg
   width="100%"
   height="100%"
   viewBox="0 0 32 32"
   version="1.1"
   xml:space="preserve"
   style="fill-rule:evenodd;clip-rule:evenodd;stroke-linejoin:round;stroke-miterlimit:2;"
   id="svg5"
   sodipodi:docname="univ_icon_quadrify.svg"
   inkscape:version="1.4 (86a8ad7, 2024-10-11)"
   xmlns:inkscape="http://www.inkscape.org/namespaces/inkscape"
   xmlns:sodipodi="http://sodipodi.sourceforge.net/DTD/sodipodi-0.dtd"
   xmlns="http://www.w3.org/2000/svg"
   xmlns:svg="http://www.w3.org/2000/svg"><defs
   id="defs5" /><sodipodi:namedview
   id="namedview5"
   pagecolor="#ffffff"
   bordercolor="#000000"
   borderopacity="0.25"
   inkscape:showpageshadow="2"
   inkscape:pageopacity="0.0"
   inkscape:pagecheckerboard="0"
   inkscape:deskcolor="#d1d1d1"
   inkscape:zoom="13.359375"
   inkscape:cx="25.936842"
   inkscape:cy="13.960234"
   inkscape:window-width="1920"
   inkscape:window-height="1057"
   inkscape:window-x="-8"
   inkscape:window-y="-8"
   inkscape:window-maximized="1"
   inkscape:current-layer="svg5" />
    <g
   transform="matrix(1.5028315,0,0,1.5028315,-962.3433,-8.0815499)"
   id="g5">
        <g
   id="Quadrify"
   transform="translate(529,0.0241185)">
            <rect
   x="106"
   y="0"
   width="32"
   height="32"
   style="fill:none"
   id="rect1" />
            <g
   transform="translate(0.0899607,0.0241185)"
   id="g4">
                <g
   transform="matrix(0.92211,0,0,0.774572,60.881,4.01273)"
   id="g2">
                    <rect
   x="69.046997"
   y="3"
   width="5.9060001"
   height="25"
   style="fill:#7d87ff"
   id="rect2" />
                </g>
                <g
   transform="matrix(0.999886,0.222498,-0.222498,0.999886,-522.732,-142.292)"
   id="g3">
                    <path
   d="m 643.549,25.082 -3.024,-4.291 c 1.395,-0.983 2.225,-2.584 2.225,-4.291 0,-2.618 -1.929,-4.836 -4.521,-5.199 l 0.729,-5.199 C 644.143,6.829 648,11.264 648,16.5 c 0,3.414 -1.66,6.615 -4.451,8.582 z"
   style="fill:#ff87a9"
   id="path2" />
                </g>
            </g>
        </g>
    </g>
</svg>
