<svg width="32" height="32" version="1.1" viewBox="0 0 32 32" xmlns="http://www.w3.org/2000/svg">

<path d="m8.88 6.89c0.899 0.448 1.95 0.81 3.09 1.06 1.25 0.279 2.62 0.431 4.06 0.431 0.924 0 1.82-0.0632 2.68-0.182 0.687-0.0949 1.35-0.226 1.97-0.391 0.949-0.249 1.82-0.573 2.58-0.958 0.321 0.889 1.03 1.59 1.93 1.9-0.132 0.261-0.258 0.534-0.376 0.82-0.233 0.565-0.436 1.18-0.603 1.82l0.0052-0.0017c-0.163 0.626-0.294 1.29-0.389 1.97-0.114 0.841-0.176 1.72-0.176 2.63 0 2.8 0.577 5.35 1.54 7.24-0.895 0.309-1.61 1.01-1.93 1.9-0.314-0.159-0.646-0.308-0.994-0.445-0.573-0.225-1.19-0.419-1.84-0.579-0.607-0.148-1.24-0.266-1.91-0.35-0.796-0.102-1.63-0.156-2.48-0.156-2.76 0-5.28 0.56-7.15 1.49-0.335-0.896-1.07-1.6-1.98-1.89 0.474-0.938 0.854-2.04 1.12-3.25 0.264-1.22 0.409-2.56 0.409-3.96 0-2.79-0.573-5.33-1.53-7.22 0.916-0.292 1.65-0.994 1.99-1.89zm9.33 3.09c-0.703 0.0727-1.43 0.111-2.17 0.111-0.689 0-1.36-0.0333-2.02-0.0957l0.0051 0.0248c0.203 0.864 0.367 1.8 0.482 2.79 0.423 0.018 0.854 0.0274 1.29 0.0274 0.659 0 1.3-0.0214 1.93-0.0616 0.115-0.992 0.279-1.93 0.48-2.8zm-8.17 4c0.0624 0.655 0.0949 1.33 0.0949 2.01 0 0.659-0.0299 1.3-0.0872 1.93l0.0197-0.0035c0.904-0.187 1.88-0.332 2.9-0.426 0.0163-0.399 0.024-0.805 0.024-1.22 0-0.637-0.0197-1.26-0.0573-1.87-0.991-0.094-1.93-0.235-2.81-0.416-0.0291-0.0051-0.0573-0.0111-0.0864-0.0179zm2.16-4.24c-1.26-0.24-2.43-0.594-3.46-1.04 0.446 1.03 0.802 2.21 1.04 3.48 0.0282 0.0068 0.0573 0.0136 0.0855 0.0205 0.889 0.21 1.86 0.373 2.9 0.481-0.134-1.06-0.327-2.05-0.569-2.94zm-2.4 9.98c-0.24 1.31-0.602 2.51-1.06 3.57 1.07-0.462 2.29-0.826 3.61-1.07l0.0034-0.0154c0.215-0.911 0.382-1.91 0.49-2.98-1.09 0.108-2.11 0.277-3.04 0.496zm10.1 2.53c1.26 0.24 2.43 0.594 3.46 1.04-0.437-1.01-0.787-2.16-1.03-3.4-0.0153-0.0043-0.0316-0.0086-0.047-0.0128-0.867-0.238-1.83-0.427-2.87-0.562 0.108 1.05 0.272 2.04 0.483 2.94zm2.44-10.2c0.239-1.22 0.586-2.35 1.02-3.35-0.985 0.426-2.1 0.769-3.3 1.01-0.238 0.877-0.428 1.85-0.562 2.9 1.03-0.133 1.99-0.321 2.85-0.556zm-8.17 9.93c0.614-0.0547 1.25-0.0829 1.89-0.0829 0.696 0 1.38 0.0333 2.04 0.0974-0.182-0.889-0.324-1.85-0.418-2.85-0.626-0.0402-1.27-0.0615-1.93-0.0615-0.392 0-0.777 0.0077-1.16 0.0222-0.0931 1-0.236 1.96-0.419 2.85zm0.505-7.45c0.0324 0.573 0.0495 1.16 0.0495 1.75 0 0.374-0.0068 0.744-0.0196 1.11 0.345-0.0119 0.695-0.0179 1.05-0.0179 0.619 0 1.23 0.0179 1.82 0.0538-0.0137-0.377-0.0205-0.757-0.0205-1.14 0-0.608 0.018-1.2 0.0513-1.79-0.582 0.0334-1.18 0.0513-1.78 0.0513-0.385 0-0.767-0.0068-1.14-0.0205zm7.39 3.54c-0.0658-0.673-0.101-1.36-0.101-2.07 0-0.725 0.0367-1.43 0.106-2.12-0.851 0.2-1.77 0.361-2.75 0.475-0.0402 0.63-0.0615 1.28-0.0615 1.94 0 0.438 0.0094 0.87 0.0273 1.29 0.965 0.114 1.88 0.275 2.72 0.473l0.0538 0.0129z" fill="#7d87ff"/>
<g fill="#ff87a9">
<circle cx="26.5" cy="26.5" r="2.56"/>
<circle cx="5.52" cy="26.5" r="2.56"/>
<circle cx="26.5" cy="5.7" r="2.55"/>
<circle cx="5.61" cy="5.7" r="2.55"/>
</g>
</svg>
