<?xml version="1.0" encoding="UTF-8" standalone="no"?>
<svg
   width="100%"
   height="100%"
   viewBox="0 0 32 32"
   version="1.1"
   xml:space="preserve"
   style="fill-rule:evenodd;clip-rule:evenodd;stroke-linejoin:round;stroke-miterlimit:2;"
   id="svg2"
   sodipodi:docname="univ_icon_relax.svg"
   inkscape:version="1.4 (86a8ad7, 2024-10-11)"
   xmlns:inkscape="http://www.inkscape.org/namespaces/inkscape"
   xmlns:sodipodi="http://sodipodi.sourceforge.net/DTD/sodipodi-0.dtd"
   xmlns="http://www.w3.org/2000/svg"
   xmlns:svg="http://www.w3.org/2000/svg"><defs
   id="defs2" /><sodipodi:namedview
   id="namedview2"
   pagecolor="#ffffff"
   bordercolor="#000000"
   borderopacity="0.25"
   inkscape:showpageshadow="2"
   inkscape:pageopacity="0.0"
   inkscape:pagecheckerboard="0"
   inkscape:deskcolor="#d1d1d1"
   inkscape:zoom="13.359375"
   inkscape:cx="8.4210526"
   inkscape:cy="4.4538012"
   inkscape:window-width="1920"
   inkscape:window-height="1057"
   inkscape:window-x="-8"
   inkscape:window-y="-8"
   inkscape:window-maximized="1"
   inkscape:current-layer="svg2" />
    <g
   transform="matrix(1.4584795,0,0,1.4584795,-997.64327,-7.3708488)"
   id="g2">
        <g
   id="Relax"
   transform="translate(573,0.0241185)">
            <rect
   x="106"
   y="0"
   width="32"
   height="32"
   style="fill:none"
   id="rect1" />
            <g
   transform="matrix(0.665841,0,0,0.663312,-277.435,-202.449)"
   id="g1">
                <path
   d="m 587.61,328.617 c -0.089,-1.653 -0.488,-3.293 -1.197,-4.83 l -1.467,-3.179 c -0.835,-1.808 -0.455,-3.946 0.951,-5.353 1.406,-1.406 3.538,-1.78 5.336,-0.937 l 3.204,1.504 c 3.524,1.654 7.597,1.654 11.122,0 l 3.028,-1.422 c 1.809,-0.848 3.953,-0.465 5.358,0.958 1.404,1.424 1.767,3.58 0.905,5.387 l -1.379,2.89 c -1.717,3.599 -1.717,7.785 0,11.384 l 1.346,2.823 c 0.864,1.811 0.498,3.972 -0.913,5.394 -1.411,1.423 -3.562,1.8 -5.369,0.941 l -2.919,-1.387 c -1.679,-0.798 -3.484,-1.219 -5.296,-1.264 -0.155,0.006 -0.312,0.009 -0.469,0.009 -0.109,0 -0.217,-0.002 -0.326,-0.004 -1.761,0.063 -3.513,0.483 -5.146,1.259 l -3.095,1.471 c -1.798,0.854 -3.936,0.486 -5.348,-0.919 -1.413,-1.406 -1.796,-3.55 -0.96,-5.361 l 1.437,-3.113 c 0.711,-1.541 1.11,-3.186 1.198,-4.843 -0.014,-0.235 -0.021,-0.472 -0.021,-0.711 0,-0.234 0.007,-0.466 0.02,-0.697 z m 18.015,11.479 c 0.353,0.137 0.703,0.288 1.048,0.452 l 2.919,1.387 c 0.862,0.41 1.888,0.23 2.561,-0.449 0.673,-0.678 0.848,-1.709 0.436,-2.573 l -1.347,-2.822 c -0.182,-0.383 -0.348,-0.771 -0.498,-1.164 -1.142,2.195 -2.933,4.003 -5.119,5.169 z m 5.124,-16.383 c 0.149,-0.388 0.313,-0.771 0.493,-1.149 l 1.379,-2.891 c 0.411,-0.862 0.238,-1.89 -0.432,-2.569 -0.67,-0.679 -1.693,-0.862 -2.555,-0.457 l -3.029,1.422 c -0.339,0.159 -0.682,0.305 -1.029,0.438 2.212,1.167 4.023,2.989 5.173,5.206 z m -16.497,-5.271 c -0.29,-0.116 -0.578,-0.24 -0.862,-0.373 l -3.203,-1.504 c -0.858,-0.402 -1.875,-0.224 -2.546,0.447 -0.67,0.671 -0.852,1.691 -0.454,2.553 l 1.467,3.179 c 0.13,0.28 0.25,0.563 0.362,0.849 1.175,-2.204 3.007,-4.008 5.236,-5.151 z m -5.23,16.605 c -0.113,0.29 -0.236,0.578 -0.368,0.863 l -1.436,3.113 c -0.399,0.864 -0.216,1.887 0.458,2.557 0.673,0.671 1.693,0.846 2.551,0.439 l 3.095,-1.471 c 0.291,-0.138 0.585,-0.267 0.881,-0.386 -2.203,-1.143 -4.014,-2.932 -5.181,-5.115 z m 2.428,-0.731 c 0.828,1.373 1.987,2.526 3.366,3.351 l 3.107,-3.108 -3.358,-3.358 z m 5.821,4.396 c 0.721,0.196 1.474,0.311 2.25,0.337 0.258,-0.008 0.517,-0.009 0.775,-0.004 0.635,-0.029 1.254,-0.117 1.852,-0.26 l -2.474,-2.475 z m 11.984,-6.681 c 0.252,-0.862 0.387,-1.774 0.387,-2.717 0,-0.905 -0.125,-1.782 -0.358,-2.615 l -2.68,2.681 z m -4.593,5.767 c 1.436,-0.809 2.647,-1.967 3.515,-3.359 l -0.007,0.007 -3.317,-3.316 -3.429,3.429 z m 3.559,-13.537 c -0.836,-1.367 -2.002,-2.513 -3.386,-3.33 l -3.34,3.34 3.358,3.358 z m -5.855,-4.362 c -0.803,-0.212 -1.646,-0.325 -2.515,-0.325 -0.929,0 -1.829,0.13 -2.682,0.371 l 2.576,2.575 z m -7.632,1.112 c -1.4,0.856 -2.567,2.053 -3.385,3.474 l 3.216,3.215 3.429,-3.429 z m -4.39,5.97 c -0.132,0.535 -0.22,1.088 -0.259,1.653 0.02,0.457 0.02,0.914 0,1.37 0.045,0.639 0.152,1.261 0.316,1.86 l 2.413,-2.413 z m 5.971,2.47 3.359,3.358 3.429,-3.429 -3.358,-3.359 z"
   style="fill:#7d87ff"
   id="path1" />
            </g>
        </g>
    </g>
</svg>
