<?xml version="1.0" encoding="UTF-8" standalone="no"?>
<svg
   width="100%"
   height="100%"
   viewBox="0 0 32 32"
   version="1.1"
   xml:space="preserve"
   style="fill-rule:evenodd;clip-rule:evenodd;stroke-linejoin:round;stroke-miterlimit:2;"
   id="svg2"
   sodipodi:docname="univ_icon_remove.svg"
   inkscape:version="1.4 (86a8ad7, 2024-10-11)"
   xmlns:inkscape="http://www.inkscape.org/namespaces/inkscape"
   xmlns:sodipodi="http://sodipodi.sourceforge.net/DTD/sodipodi-0.dtd"
   xmlns="http://www.w3.org/2000/svg"
   xmlns:svg="http://www.w3.org/2000/svg"
   xmlns:serif="http://www.serif.com/"><defs
     id="defs2" /><sodipodi:namedview
     id="namedview2"
     pagecolor="#ffffff"
     bordercolor="#000000"
     borderopacity="0.25"
     inkscape:showpageshadow="2"
     inkscape:pageopacity="0.0"
     inkscape:pagecheckerboard="0"
     inkscape:deskcolor="#d1d1d1"
     inkscape:zoom="151.14407"
     inkscape:cx="17.377459"
     inkscape:cy="2.1668067"
     inkscape:window-width="1920"
     inkscape:window-height="1057"
     inkscape:window-x="-8"
     inkscape:window-y="-8"
     inkscape:window-maximized="1"
     inkscape:current-layer="svg2" /><rect
     id="Remove-Checker"
     serif:id="Remove Checker"
     x="0"
     y="0"
     width="32"
     height="32"
     style="fill:none;" /><g
     id="g2"
     transform="matrix(1.7734893,0,0,1.7734893,-12.552571,-12.375828)"><path
       d="m 9.543,12.657 h 13.371 c 0,0 -0.994,7.957 -1.386,11.094 C 21.438,24.464 20.832,25 20.113,25 18.135,25 14.322,25 12.345,25 11.625,25 11.019,24.464 10.93,23.751 10.538,20.614 9.543,12.657 9.543,12.657 Z m 10.286,2.057 H 18.8 v 7.715 h 1.029 z m -3.086,0 h -1.029 v 7.715 h 1.029 z m -3.086,0 h -1.028 v 7.715 h 1.028 z"
       style="fill:#ff87a9"
       id="path1" /><path
       d="m 18.286,9.057 h 6.171 v 2.057 H 8 V 9.057 h 6.686 V 7.72 C 14.686,7.322 15.008,7 15.406,7 h 2.16 c 0.397,0 0.72,0.322 0.72,0.72 z"
       style="fill:#ff87a9"
       id="path2" /></g></svg>
