<?xml version="1.0" encoding="UTF-8" standalone="no"?>
<svg
   width="100%"
   height="100%"
   viewBox="0 0 32 32"
   version="1.1"
   xml:space="preserve"
   style="fill-rule:evenodd;clip-rule:evenodd;stroke-linejoin:round;stroke-miterlimit:2;"
   id="svg1"
   sodipodi:docname="univ_icon_rotate.svg"
   inkscape:version="1.4 (86a8ad7, 2024-10-11)"
   xmlns:inkscape="http://www.inkscape.org/namespaces/inkscape"
   xmlns:sodipodi="http://sodipodi.sourceforge.net/DTD/sodipodi-0.dtd"
   xmlns="http://www.w3.org/2000/svg"
   xmlns:svg="http://www.w3.org/2000/svg"><defs
     id="defs1" /><sodipodi:namedview
     id="namedview1"
     pagecolor="#ffffff"
     bordercolor="#000000"
     borderopacity="0.25"
     inkscape:showpageshadow="2"
     inkscape:pageopacity="0.0"
     inkscape:pagecheckerboard="0"
     inkscape:deskcolor="#d1d1d1"
     inkscape:zoom="9.4465047"
     inkscape:cx="20.589626"
     inkscape:cy="28.317352"
     inkscape:window-width="1920"
     inkscape:window-height="1057"
     inkscape:window-x="-8"
     inkscape:window-y="-8"
     inkscape:window-maximized="1"
     inkscape:current-layer="svg1" /><rect
     id="Rotate"
     x="-7.727726"
     y="-7.727726"
     width="47.455452"
     height="47.455452"
     style="fill:none;stroke-width:1.48298" /><g
     id="g1"
     transform="matrix(1.4829829,0,0,1.4829829,-7.727726,-7.727726)"><path
       d="m 23.978,16 c 0,4.965 -4.024,8.989 -8.989,8.989 C 10.028,24.989 6,20.961 6,16 c 0,-4.961 4.028,-8.989 8.989,-8.989 2.1,0 4.133,0.735 5.747,2.077 l -1.437,1.728 c -1.21,-1.007 -2.735,-1.558 -4.31,-1.558 -3.721,0 -6.742,3.021 -6.742,6.742 0,3.721 3.021,6.742 6.742,6.742 3.724,0 6.742,-3.019 6.742,-6.742 h -2.16 L 22.806,11.31 26,16 Z"
       style="fill:#62cdf9"
       id="path1" /></g><circle
     cx="14.500705"
     cy="16"
     r="4.6372876"
     style="fill:#6b6b6b;stroke-width:1.48298"
     id="circle1" /></svg>
