<svg width="32" height="32" version="1.1" viewBox="0 0 32 32" xmlns="http://www.w3.org/2000/svg">
<path d="m17.2 4.06 0.507 1.88c0.653 0.108 1.29 0.279 1.91 0.511l1.39-1.37c0.707 0.321 1.39 0.709 2.01 1.16l-0.493 1.89c0.507 0.419 0.973 0.887 1.4 1.39l1.88-0.496c0.453 0.632 0.84 1.31 1.16 2.01l-1.37 1.39c0.24 0.617 0.4 1.25 0.507 1.91l1.89 0.515c0.0667 0.772 0.0667 1.55 0 2.32l-1.89 0.513c-0.107 0.651-0.267 1.29-0.507 1.91l1.37 1.39c-0.32 0.707-0.707 1.38-1.16 2.01l-1.88-0.496c-0.427 0.509-0.893 0.976-1.4 1.39l0.493 1.89c-0.627 0.451-1.31 0.839-2.01 1.16l-1.39-1.37c-0.613 0.232-1.25 0.403-1.91 0.511l-0.507 1.88c-0.773 0.0746-1.55 0.0746-2.32 0l-0.52-1.88c-0.653-0.108-1.28-0.279-1.91-0.511l-1.39 1.37c-0.707-0.321-1.37-0.709-2-1.16l0.493-1.89c-0.507-0.419-0.973-0.885-1.4-1.39l-1.88 0.496c-0.453-0.631-0.84-1.3-1.16-2.01l1.37-1.39c-0.24-0.616-0.413-1.25-0.52-1.91l-1.88-0.513c-0.08-0.772-0.08-1.55 0-2.32l1.88-0.515c0.107-0.651 0.28-1.29 0.52-1.91l-1.37-1.39c0.32-0.705 0.707-1.38 1.16-2.01l1.88 0.496c0.427-0.508 0.893-0.976 1.4-1.39l-0.493-1.89c0.627-0.452 1.29-0.84 2-1.16l1.39 1.37c0.627-0.232 1.25-0.403 1.91-0.511l0.52-1.88c0.773-0.0747 1.55-0.0747 2.32 0zm-1.16 5.25c-3.68 0-6.67 2.99-6.67 6.67s2.99 6.67 6.67 6.67 6.67-2.99 6.67-6.67-2.99-6.67-6.67-6.67z" fill="#7d87ff"/>
<path d="m16 12c2.21 0 4 1.79 4 4 0 2.21-1.79 4-4 4s-4-1.79-4-4c0-2.21 1.79-4 4-4zm0 2c-1.11 0-2 0.897-2 2 0 1.1 0.889 2 2 2 1.1 0 2-0.896 2-2 0-1.1-0.9-2-2-2z" fill="#7d87ff"/>
</svg>
