<?xml version="1.0" encoding="UTF-8" standalone="no"?>
<svg
   width="100%"
   height="100%"
   viewBox="0 0 32 32"
   version="1.1"
   xml:space="preserve"
   style="fill-rule:evenodd;clip-rule:evenodd;stroke-linejoin:round;stroke-miterlimit:2;"
   id="svg3"
   sodipodi:docname="univ_icon_settings_a.svg"
   inkscape:version="1.4 (86a8ad7, 2024-10-11)"
   xmlns:inkscape="http://www.inkscape.org/namespaces/inkscape"
   xmlns:sodipodi="http://sodipodi.sourceforge.net/DTD/sodipodi-0.dtd"
   xmlns="http://www.w3.org/2000/svg"
   xmlns:svg="http://www.w3.org/2000/svg"
   xmlns:serif="http://www.serif.com/"><defs
     id="defs3" /><sodipodi:namedview
     id="namedview3"
     pagecolor="#ffffff"
     bordercolor="#000000"
     borderopacity="0.25"
     inkscape:showpageshadow="2"
     inkscape:pageopacity="0.0"
     inkscape:pagecheckerboard="0"
     inkscape:deskcolor="#d1d1d1"
     inkscape:zoom="13.359375"
     inkscape:cx="18.900585"
     inkscape:cy="25.038596"
     inkscape:window-width="1920"
     inkscape:window-height="1057"
     inkscape:window-x="-8"
     inkscape:window-y="-8"
     inkscape:window-maximized="1"
     inkscape:current-layer="svg3" /><rect
     id="Pack-Settings"
     serif:id="Pack Settings"
     x="0"
     y="0"
     width="32"
     height="32"
     style="fill:none;" /><g
     id="g3"
     transform="matrix(1.3448993,0,0,1.3448993,-5.5602766,-5.4588787)"><path
       d="m 12.449,11.838 0.195,1.11 c 0.556,-0.004 1.11,0.065 1.647,0.206 l 0.462,-1.028 c 0.749,0.216 1.459,0.549 2.104,0.986 l -0.495,1.012 c 0.452,0.324 0.86,0.705 1.212,1.135 l 0.978,-0.56 c 0.479,0.615 0.857,1.302 1.122,2.034 l -0.995,0.529 c 0.176,0.527 0.281,1.075 0.314,1.63 l 1.12,0.122 c 0.025,0.779 -0.072,1.557 -0.288,2.305 l -1.116,-0.157 c -0.168,0.53 -0.405,1.035 -0.705,1.503 l 0.835,0.757 c -0.437,0.645 -0.973,1.218 -1.588,1.696 l -0.81,-0.783 c -0.447,0.33 -0.936,0.6 -1.454,0.802 l 0.231,1.103 c -0.733,0.265 -1.503,0.413 -2.281,0.439 l -0.196,-1.11 c -0.556,0.004 -1.11,-0.065 -1.647,-0.206 l -0.462,1.028 C 9.883,26.174 9.173,25.842 8.528,25.405 L 9.023,24.392 C 8.571,24.069 8.163,23.687 7.811,23.257 l -0.978,0.56 C 6.354,23.202 5.976,22.516 5.711,21.783 L 6.706,21.255 C 6.53,20.727 6.425,20.179 6.393,19.624 L 5.272,19.502 C 5.247,18.724 5.344,17.946 5.56,17.197 l 1.116,0.158 c 0.168,-0.53 0.405,-1.036 0.705,-1.504 L 6.546,15.094 c 0.437,-0.645 0.973,-1.217 1.588,-1.695 l 0.81,0.783 c 0.447,-0.33 0.936,-0.6 1.454,-0.802 l -0.231,-1.103 c 0.733,-0.265 1.503,-0.413 2.282,-0.439 z m -0.635,2.853 c 2.521,-0.485 4.961,1.168 5.446,3.689 0.484,2.521 -1.169,4.961 -3.689,5.446 -2.521,0.484 -4.961,-1.169 -5.446,-3.69 -0.484,-2.52 1.169,-4.96 3.689,-5.445 z"
       style="fill:#62cdf9"
       id="path1" /><path
       d="m 26.34,7.402 -0.91,0.8 c 0.138,0.283 0.238,0.581 0.298,0.889 l 1.208,0.092 c 0.08,0.628 0.036,1.265 -0.131,1.875 l -1.209,-0.077 c -0.103,0.297 -0.243,0.579 -0.418,0.839 l 0.789,0.92 c -0.387,0.5 -0.869,0.919 -1.418,1.232 L 23.748,13.063 C 23.466,13.2 23.167,13.3 22.859,13.36 l -0.092,1.209 c -0.627,0.08 -1.264,0.035 -1.874,-0.131 L 20.97,13.229 C 20.673,13.126 20.391,12.985 20.131,12.81 l -0.92,0.79 c -0.5,-0.387 -0.919,-0.869 -1.233,-1.418 l 0.91,-0.801 C 18.751,11.099 18.651,10.8 18.59,10.492 L 17.382,10.4 C 17.302,9.773 17.347,9.136 17.513,8.525 l 1.209,0.077 C 18.825,8.306 18.965,8.024 19.14,7.763 L 18.351,6.844 c 0.387,-0.5 0.869,-0.919 1.418,-1.233 L 20.57,6.52 c 0.282,-0.137 0.581,-0.237 0.889,-0.297 l 0.092,-1.209 c 0.627,-0.079 1.264,-0.035 1.874,0.131 l -0.076,1.21 c 0.296,0.102 0.578,0.243 0.839,0.418 l 0.919,-0.789 c 0.5,0.387 0.919,0.869 1.233,1.418 z m -2.288,0.744 c 0.908,1.045 0.797,2.63 -0.247,3.538 -1.045,0.908 -2.63,0.798 -3.538,-0.247 -0.909,-1.044 -0.798,-2.63 0.247,-3.538 1.044,-0.908 2.63,-0.797 3.538,0.247 z"
       style="fill:#7d87ff"
       id="path2" /><circle
       cx="12.693"
       cy="19.257999"
       r="2.9749999"
       style="fill:#6b6b6b"
       id="circle2" /><circle
       cx="22.159"
       cy="9.7919998"
       r="1.452"
       style="fill:#6b6b6b"
       id="circle3" /></g></svg>
