<?xml version="1.0" encoding="UTF-8" standalone="no"?>
<svg
   width="100%"
   height="100%"
   viewBox="0 0 32 32"
   version="1.1"
   xml:space="preserve"
   style="fill-rule:evenodd;clip-rule:evenodd;stroke-linejoin:round;stroke-miterlimit:2;"
   id="svg2"
   sodipodi:docname="univ_icon_small.svg"
   inkscape:version="1.4 (86a8ad7, 2024-10-11)"
   xmlns:inkscape="http://www.inkscape.org/namespaces/inkscape"
   xmlns:sodipodi="http://sodipodi.sourceforge.net/DTD/sodipodi-0.dtd"
   xmlns="http://www.w3.org/2000/svg"
   xmlns:svg="http://www.w3.org/2000/svg"><defs
     id="defs2" /><sodipodi:namedview
     id="namedview2"
     pagecolor="#ffffff"
     bordercolor="#000000"
     borderopacity="0.25"
     inkscape:showpageshadow="2"
     inkscape:pageopacity="0.0"
     inkscape:pagecheckerboard="0"
     inkscape:deskcolor="#d1d1d1"
     inkscape:zoom="26.71875"
     inkscape:cx="16"
     inkscape:cy="16"
     inkscape:window-width="1920"
     inkscape:window-height="1057"
     inkscape:window-x="-8"
     inkscape:window-y="-8"
     inkscape:window-maximized="1"
     inkscape:current-layer="svg2" /><rect
     id="Small"
     x="0"
     y="0"
     width="32"
     height="32"
     style="fill:none;" /><g
     id="g2"
     transform="matrix(1.6500462,0,0,1.6500462,-10.400739,-10.400739)"><path
       d="m 12.359,17.354 c -0.156,0 -0.239,0.084 -0.239,0.229 v 0.427 c 0,1.23 0.416,1.636 1.698,1.636 h 4.323 c 1.229,0 1.739,-0.5 1.739,-1.667 v -1.146 c 0,-1.166 -0.51,-1.666 -1.739,-1.666 h -3.375 c -0.344,0 -0.448,-0.104 -0.448,-0.365 v -0.406 c 0,-0.261 0.104,-0.365 0.448,-0.365 h 2.583 c 0.25,0 0.344,0.104 0.344,0.323 v 0.063 c 0,0.146 0.083,0.229 0.239,0.229 h 1.563 c 0.156,0 0.239,-0.083 0.239,-0.229 V 13.99 c 0,-1.23 -0.427,-1.636 -1.698,-1.636 h -4.083 c -1.229,0 -1.739,0.5 -1.739,1.667 v 1.083 c 0,1.167 0.51,1.667 1.739,1.667 h 3.375 c 0.344,0 0.448,0.104 0.448,0.364 v 0.469 c 0,0.261 -0.104,0.365 -0.448,0.365 h -2.833 c -0.24,0 -0.334,-0.104 -0.334,-0.323 v -0.063 c 0,-0.145 -0.093,-0.229 -0.239,-0.229 z"
       style="fill:#7d87ff;fill-rule:nonzero"
       id="path1" /><path
       d="m 25.5,6.5 v 19 H 6.5 V 6.5 Z M 24,8 H 8 v 16 h 16 z"
       style="fill:#7d87ff"
       id="path2" /></g></svg>
