<svg width="32" height="32" viewBox="0 0 32 32" xmlns="http://www.w3.org/2000/svg">
<path d="m16.9 12.4v-3.74h-1.87v3.74zm0-5.61v-3.74h-1.87v3.74zm0 22.4v-3.74h-1.87v3.74zm0-5.61v-3.74h-1.87v3.74zm0-5.61v-3.74h-1.87v3.74z" fill="#fff"/>
<path d="m6.59 4.87c-2.57 0-4.67 2.1-4.67 4.67 0 2.21 1.29 3.48 2.12 4.37 1.11 1.2 2.25 2.28 3.1 3.1l-1.68 1.68c-1.71 1.71-2.16 4.35-1.05 6.27 1.06 1.83 3.22 2.72 5.26 2.18 2.04-0.546 3.47-2.4 3.47-4.51a0.935 0.935 0 1 0-1.87 0c0 1.27-0.847 2.38-2.08 2.71-1.23 0.33-2.52-0.204-3.15-1.31-0.582-1.01-0.347-2.91 0.752-4.01l2.34-2.34a0.935 0.935 0 0 0 0-1.32c-0.807-0.807-2.45-2.34-3.71-3.71-0.898-0.973-1.62-1.57-1.62-3.1 0-1.56 1.24-2.8 2.8-2.8 2.18 0 3.79 2.31 4.95 3.47a0.935 0.935 0 1 0 1.32-1.32c-0.714-0.714-2.84-4.01-6.27-4.01z" fill="#ff87a9"/>
<path d="m25.3 4.87c-3.43 0-5.55 3.3-6.27 4.01-0.916 0.881 0.441 2.24 1.32 1.32 1.16-1.16 2.77-3.47 4.95-3.47 1.56 0 2.8 1.24 2.8 2.8 0 1.53-0.724 2.13-1.62 3.1-1.27 1.37-2.91 2.91-3.71 3.71-0.365 0.365-0.365 0.957 0 1.32l2.34 2.34c1.1 1.1 1.33 3.01 0.752 4.01-0.637 1.1-1.92 1.64-3.15 1.31-1.23-0.33-2.08-1.44-2.08-2.71 0.0187-1.26-1.89-1.26-1.87 0 0 2.11 1.43 3.97 3.47 4.51 2.04 0.546 4.2-0.348 5.26-2.18 1.11-1.92 0.654-4.56-1.05-6.27l-1.68-1.68c0.852-0.828 2-1.9 3.1-3.1 0.827-0.896 2.12-2.17 2.12-4.37 0-2.57-2.1-4.67-4.67-4.67z" fill="#62cdf9"/>
</svg>
