<?xml version="1.0" encoding="UTF-8" standalone="no"?>
<svg
   width="100%"
   height="100%"
   viewBox="0 0 32 32"
   version="1.1"
   xml:space="preserve"
   style="fill-rule:evenodd;clip-rule:evenodd;stroke-linejoin:round;stroke-miterlimit:2;"
   id="svg2"
   sodipodi:docname="univ_icon_border.svg"
   inkscape:version="1.4 (86a8ad7, 2024-10-11)"
   xmlns:inkscape="http://www.inkscape.org/namespaces/inkscape"
   xmlns:sodipodi="http://sodipodi.sourceforge.net/DTD/sodipodi-0.dtd"
   xmlns="http://www.w3.org/2000/svg"
   xmlns:svg="http://www.w3.org/2000/svg"><defs
     id="defs2" /><sodipodi:namedview
     id="namedview2"
     pagecolor="#ffffff"
     bordercolor="#000000"
     borderopacity="0.25"
     inkscape:showpageshadow="2"
     inkscape:pageopacity="0.0"
     inkscape:pagecheckerboard="0"
     inkscape:deskcolor="#d1d1d1"
     inkscape:zoom="26.71875"
     inkscape:cx="16"
     inkscape:cy="16"
     inkscape:window-width="1920"
     inkscape:window-height="1057"
     inkscape:window-x="-8"
     inkscape:window-y="-8"
     inkscape:window-maximized="1"
     inkscape:current-layer="svg2" /><rect
     id="Border"
     x="0"
     y="0"
     width="32"
     height="32"
     style="fill:none;" /><g
     id="g1"
     transform="matrix(1.4525253,0,0,1.4525253,-7.240404,-7.5780968)"><path
       d="m 13.101,14.989 h -1.657 v -1.656 h 1.657 v -1.657 h 1.657 v 1.657 h 2.484 v -1.657 h 1.657 v 1.657 h 1.657 v 1.656 h -1.657 v 2.485 h 1.657 v 1.657 h -1.657 v 1.657 h -1.657 v -1.657 h -2.484 v 1.657 h -1.657 v -1.657 h -1.657 v -1.657 h 1.657 z m 4.141,0 h -2.484 v 2.485 h 2.484 z"
       style="fill:#6b6b6b"
       id="path1" /></g><path
     d="M 23.988889,0.04766082 31.977778,8.0365497 27.887467,12.90251 c -1.517889,1.805489 -1.517889,4.440369 0,6.245858 l 4.090311,4.86596 -7.988889,7.988889 -5.133224,-3.73299 c -1.70236,-1.239004 -4.00897,-1.239004 -5.71133,0 L 8.0111111,32.003217 0.02222222,24.014328 4.1459414,19.173061 c 1.5440344,-1.814204 1.5440344,-4.48104 0,-6.295244 L 0.02222222,8.0365497 8.0111111,0.04766082 13.144335,3.7806507 c 1.70236,1.2390041 4.00897,1.2390041 5.71133,0 z M 23.720172,3.4756204 20.392436,5.8955275 c -2.618903,1.9042606 -6.165969,1.9042606 -8.784872,0 L 8.2798283,3.4756204 3.578004,8.1788972 6.135901,11.18272 c 2.3777838,2.790301 2.3777838,6.895137 0,9.685438 L 3.578004,23.87198 8.2798283,28.575257 11.607564,26.15535 c 2.618903,-1.90426 6.165969,-1.90426 8.784872,0 l 3.327736,2.419907 4.713444,-4.713444 -2.546277,-3.029968 c -2.33566,-2.778681 -2.33566,-6.834131 0,-9.612812 l 2.546277,-3.0299681 z"
     style="fill:#62cdf9;stroke-width:1.45253"
     id="path2" /></svg>
