<?xml version="1.0" encoding="UTF-8" standalone="no"?>
<svg
   width="100%"
   height="100%"
   viewBox="0 0 32 32"
   version="1.1"
   xml:space="preserve"
   style="fill-rule:evenodd;clip-rule:evenodd;stroke-linejoin:round;stroke-miterlimit:2;"
   id="svg9"
   sodipodi:docname="univ_icon_fill.svg"
   inkscape:version="1.4 (86a8ad7, 2024-10-11)"
   xmlns:inkscape="http://www.inkscape.org/namespaces/inkscape"
   xmlns:sodipodi="http://sodipodi.sourceforge.net/DTD/sodipodi-0.dtd"
   xmlns="http://www.w3.org/2000/svg"
   xmlns:svg="http://www.w3.org/2000/svg"><defs
   id="defs9" /><sodipodi:namedview
   id="namedview9"
   pagecolor="#ffffff"
   bordercolor="#000000"
   borderopacity="0.25"
   inkscape:showpageshadow="2"
   inkscape:pageopacity="0.0"
   inkscape:pagecheckerboard="0"
   inkscape:deskcolor="#d1d1d1"
   inkscape:zoom="18.893009"
   inkscape:cx="18.340117"
   inkscape:cy="12.676646"
   inkscape:window-width="1920"
   inkscape:window-height="1057"
   inkscape:window-x="-8"
   inkscape:window-y="-8"
   inkscape:window-maximized="1"
   inkscape:current-layer="svg9" />
    <g
   transform="matrix(1.5259882,0,0,1.5259882,-156.43667,-8.4158112)"
   id="g9">
        <g
   id="Fill"
   transform="translate(-9)">
            <rect
   x="106"
   y="0"
   width="32"
   height="32"
   style="fill:none"
   id="rect1" />
            <g
   transform="matrix(0.716008,0,0,0.576405,111.26,5.39948)"
   id="g1">
                <path
   d="M 16.586,1 H 29 V 16.656 H 27 V 3.484 H 16.586 Z"
   style="fill:#7d87ff"
   id="path1" />
            </g>
            <g
   transform="matrix(0.716008,0,0,-0.576405,111.26,26.6005)"
   id="g2">
                <path
   d="M 27,16.656 V 3.484 H 16.397 V 1 H 29 v 15.656 z"
   style="fill:#7d87ff"
   id="path2" />
            </g>
            <g
   transform="matrix(0,-0.716008,0.576405,0,111.399,26.7401)"
   id="g3">
                <path
   d="M 27,16.656 V 3.484 H 16.397 V 1 H 29 v 15.656 z"
   style="fill:#7d87ff"
   id="path3" />
            </g>
            <g
   transform="matrix(0,0.716008,0.576405,0,111.399,5.25987)"
   id="g4">
                <path
   d="M 27,16.656 V 3.484 H 16.397 V 1 H 29 v 15.656 z"
   style="fill:#7d87ff"
   id="path4" />
            </g>
            <g
   transform="matrix(0.716008,0,0,0.576405,108.396,8.26351)"
   id="g5">
                <path
   d="M 13.414,22.117 H 16 v 2.485 h -6 v -7.453 h 2 v 3.212 l 4,-4.969 1.414,1.757 z"
   style="fill:#62cdf9"
   id="path5" />
            </g>
            <g
   transform="matrix(0.716008,0,0,0.576405,108.396,8.26351)"
   id="g6">
                <path
   d="m 24.586,22.117 -4,-4.968 1.414,-1.757 4,4.969 v -3.212 h 2 v 7.453 h -6 v -2.485 z"
   style="fill:#62cdf9"
   id="path6" />
            </g>
            <g
   transform="matrix(0.716008,0,0,0.576405,108.396,8.26351)"
   id="g7">
                <path
   d="m 26,6.483 -4,4.969 -1.414,-1.757 4,-4.968 H 22 V 2.242 h 6 v 7.453 h -2 z"
   style="fill:#62cdf9"
   id="path7" />
            </g>
            <g
   transform="matrix(0.716008,0,0,0.576405,108.396,8.26351)"
   id="g8">
                <path
   d="M 12,6.483 V 9.695 H 10 V 2.242 h 6 v 2.485 h -2.586 l 4,4.968 L 16,11.452 Z"
   style="fill:#62cdf9"
   id="path8" />
            </g>
        </g>
    </g>
</svg>
