<?xml version="1.0" encoding="UTF-8" standalone="no"?>
<svg
   width="100%"
   height="100%"
   viewBox="0 0 32 32"
   version="1.1"
   xml:space="preserve"
   style="fill-rule:evenodd;clip-rule:evenodd;stroke-linejoin:round;stroke-miterlimit:2;"
   id="svg2"
   sodipodi:docname="univ_icon_flipped.svg"
   inkscape:version="1.4 (86a8ad7, 2024-10-11)"
   xmlns:inkscape="http://www.inkscape.org/namespaces/inkscape"
   xmlns:sodipodi="http://sodipodi.sourceforge.net/DTD/sodipodi-0.dtd"
   xmlns="http://www.w3.org/2000/svg"
   xmlns:svg="http://www.w3.org/2000/svg"><defs
     id="defs2" /><sodipodi:namedview
     id="namedview2"
     pagecolor="#ffffff"
     bordercolor="#000000"
     borderopacity="0.25"
     inkscape:showpageshadow="2"
     inkscape:pageopacity="0.0"
     inkscape:pagecheckerboard="0"
     inkscape:deskcolor="#d1d1d1"
     inkscape:zoom="26.71875"
     inkscape:cx="16"
     inkscape:cy="16"
     inkscape:window-width="1920"
     inkscape:window-height="1057"
     inkscape:window-x="-8"
     inkscape:window-y="-8"
     inkscape:window-maximized="1"
     inkscape:current-layer="svg2" /><rect
     id="Flipped"
     x="0"
     y="0"
     width="32"
     height="32"
     style="fill:none;" /><g
     id="g2"
     transform="matrix(1.591345,0,0,1.591345,-9.4615205,-9.4615205)"><path
       d="m 15.091,16.909 v 6.229 c -0.211,0.079 -0.414,0.188 -0.603,0.325 L 11,26 6,21 8.839,17.667 C 9.035,17.436 9.185,17.179 9.287,16.909 Z M 9.287,15.091 C 9.185,14.821 9.035,14.564 8.839,14.333 L 6,11 11,6 14.488,8.537 c 0.189,0.137 0.392,0.246 0.603,0.325 v 6.229 z"
       style="fill:#7d87ff"
       id="path1" /><path
       d="m 22.75,16.909 c 0.101,0.265 0.246,0.518 0.438,0.745 L 26,21 21,26 17.512,23.463 C 17.323,23.326 17.12,23.217 16.909,23.138 V 16.909 Z M 16.909,15.091 V 8.862 C 17.12,8.783 17.323,8.674 17.512,8.537 L 21,6 l 5,5 -2.812,3.346 c -0.192,0.227 -0.337,0.48 -0.438,0.745 z"
       style="fill:#ff87a9"
       id="path2" /></g></svg>
