<?xml version="1.0" encoding="UTF-8" standalone="no"?>
<svg
   width="100%"
   height="100%"
   viewBox="0 0 32 32"
   version="1.1"
   xml:space="preserve"
   style="fill-rule:evenodd;clip-rule:evenodd;stroke-linejoin:round;stroke-miterlimit:2;"
   id="svg3"
   sodipodi:docname="univ_icon_pin.svg"
   inkscape:version="1.4 (86a8ad7, 2024-10-11)"
   xmlns:inkscape="http://www.inkscape.org/namespaces/inkscape"
   xmlns:sodipodi="http://sodipodi.sourceforge.net/DTD/sodipodi-0.dtd"
   xmlns="http://www.w3.org/2000/svg"
   xmlns:svg="http://www.w3.org/2000/svg"><defs
     id="defs3" /><sodipodi:namedview
     id="namedview3"
     pagecolor="#ffffff"
     bordercolor="#000000"
     borderopacity="0.25"
     inkscape:showpageshadow="2"
     inkscape:pageopacity="0.0"
     inkscape:pagecheckerboard="0"
     inkscape:deskcolor="#d1d1d1"
     inkscape:zoom="26.71875"
     inkscape:cx="16"
     inkscape:cy="16"
     inkscape:window-width="1920"
     inkscape:window-height="1057"
     inkscape:window-x="-8"
     inkscape:window-y="-8"
     inkscape:window-maximized="1"
     inkscape:current-layer="svg3" /><rect
     id="Pin"
     x="0"
     y="0"
     width="32"
     height="32"
     style="fill:none;" /><path
     d="m 31.071426,6.103325 c 1.232479,1.3954119 0,2.6198253 0,2.6198253 -1.196989,1.1986024 -1.3083,1.3099127 -1.3083,1.3099127 L 21.905264,2.1752003 23.215176,0.8652876 c 1.206669,-1.07922606 2.618212,0 2.618212,0 z"
     style="fill:#7d87ff;stroke-width:1.61319"
     id="path1" /><path
     d="m 7.9785688,8.2456452 c 0.5323537,-0.5323536 1.2534509,-0.8324075 2.006812,-0.8324075 1.4841382,0 4.0216902,0 5.5058282,0 0.753361,0 1.474458,-0.2984407 2.006812,-0.8307944 1.153433,-1.1534329 3.09733,-3.0973304 3.09733,-3.0973304 l 7.857863,7.8562491 c 0,0 -1.943898,1.945511 -3.097331,3.097331 -0.532353,0.532353 -0.830794,1.255064 -0.830794,2.008425 0,1.484137 0,4.02169 0,5.505827 0,0.751748 -0.300054,1.474459 -0.832408,2.006812 -1.153432,1.153433 -3.09733,3.097331 -3.09733,3.097331 L 4.8812384,11.341362 c 0,0 1.9438975,-1.943897 3.0973304,-3.0957168 z"
     style="fill:#7d87ff;stroke-width:1.61319"
     id="path2" /><path
     d="M 12.731036,21.825503 4.5634394,29.993099 0.63531463,31.303011 1.9452273,27.373273 10.112823,19.207291 Z"
     style="fill:#7d87ff;stroke-width:1.61319"
     id="path3" /></svg>
