<?xml version="1.0" encoding="UTF-8" standalone="no"?>
<svg
   width="100%"
   height="100%"
   viewBox="0 0 32 32"
   version="1.1"
   xml:space="preserve"
   style="fill-rule:evenodd;clip-rule:evenodd;stroke-linejoin:round;stroke-miterlimit:2;"
   id="svg4"
   sodipodi:docname="univ_icon_orient.svg"
   inkscape:version="1.4 (86a8ad7, 2024-10-11)"
   xmlns:inkscape="http://www.inkscape.org/namespaces/inkscape"
   xmlns:sodipodi="http://sodipodi.sourceforge.net/DTD/sodipodi-0.dtd"
   xmlns="http://www.w3.org/2000/svg"
   xmlns:svg="http://www.w3.org/2000/svg"><defs
   id="defs4" /><sodipodi:namedview
   id="namedview4"
   pagecolor="#ffffff"
   bordercolor="#000000"
   borderopacity="0.25"
   inkscape:showpageshadow="2"
   inkscape:pageopacity="0.0"
   inkscape:pagecheckerboard="0"
   inkscape:deskcolor="#d1d1d1"
   inkscape:zoom="13.359375"
   inkscape:cx="31.326316"
   inkscape:cy="15.906433"
   inkscape:window-width="1920"
   inkscape:window-height="1057"
   inkscape:window-x="-8"
   inkscape:window-y="-8"
   inkscape:window-maximized="1"
   inkscape:current-layer="svg4" />
    <g
   transform="matrix(1.7890143,0,0,1.7890143,-266.66425,-12.624228)"
   id="g4">
        <g
   id="Orient"
   transform="translate(97)">
            <rect
   x="45"
   y="0"
   width="32"
   height="32"
   style="fill:none"
   id="rect1" />
            <g
   transform="matrix(0.62106,0,0,0.608576,23.0141,7.02103)"
   id="g1">
                <path
   d="M 54.513,5.561 57.299,8.636 48.282,9.909 49.57,1 52.732,3.704 C 55.049,2.004 57.908,1 61,1 66.931,1 72.006,4.696 74.044,9.909 H 71.262 C 69.387,6.139 65.494,3.545 61,3.545 c -2.407,0 -4.642,0.745 -6.487,2.016 z"
   style="fill:#62cdf9"
   id="path1" />
            </g>
            <g
   transform="matrix(-0.62106,0,0,-0.608576,98.9859,24.979)"
   id="g2">
                <path
   d="M 54.513,5.561 57.299,8.636 48.282,9.909 49.57,1 52.732,3.704 C 55.049,2.004 57.908,1 61,1 66.931,1 72.006,4.696 74.044,9.909 H 71.262 C 69.387,6.139 65.494,3.545 61,3.545 c -2.407,0 -4.642,0.745 -6.487,2.016 z"
   style="fill:#62cdf9"
   id="path2" />
            </g>
            <g
   transform="matrix(0.592593,0,0,0.287467,24.5556,11.2568)"
   id="g3">
                <rect
   x="48"
   y="13"
   width="27"
   height="7"
   style="fill:#6b6b6b"
   id="rect2" />
            </g>
        </g>
    </g>
</svg>
