<?xml version="1.0" encoding="UTF-8" standalone="no"?>
<svg
   width="100%"
   height="100%"
   viewBox="0 0 32 32"
   version="1.1"
   xml:space="preserve"
   style="fill-rule:evenodd;clip-rule:evenodd;stroke-linejoin:round;stroke-miterlimit:2;"
   id="svg5"
   sodipodi:docname="univ_icon_crop.svg"
   inkscape:version="1.4 (86a8ad7, 2024-10-11)"
   xmlns:inkscape="http://www.inkscape.org/namespaces/inkscape"
   xmlns:sodipodi="http://sodipodi.sourceforge.net/DTD/sodipodi-0.dtd"
   xmlns="http://www.w3.org/2000/svg"
   xmlns:svg="http://www.w3.org/2000/svg"><defs
     id="defs5" /><sodipodi:namedview
     id="namedview5"
     pagecolor="#ffffff"
     bordercolor="#000000"
     borderopacity="0.25"
     inkscape:showpageshadow="2"
     inkscape:pageopacity="0.0"
     inkscape:pagecheckerboard="0"
     inkscape:deskcolor="#d1d1d1"
     inkscape:zoom="26.71875"
     inkscape:cx="16"
     inkscape:cy="16"
     inkscape:window-width="1920"
     inkscape:window-height="1057"
     inkscape:window-x="-8"
     inkscape:window-y="-8"
     inkscape:window-maximized="1"
     inkscape:current-layer="svg5" /><rect
     id="Crop"
     x="0"
     y="0"
     width="32"
     height="32"
     style="fill:none;" /><g
     id="g5"
     transform="matrix(1.5917961,0,0,1.5936629,-9.4500236,-9.4986069)"><path
       d="m 5.976,26.024 v -5.012 h 1.432 v 3.58 h 3.58 v 1.432 z"
       style="fill:#62cdf9"
       id="path1" /><path
       d="m 26.024,26.024 h -5.012 v -1.432 h 3.58 v -3.58 h 1.432 z"
       style="fill:#62cdf9"
       id="path2" /><path
       d="m 24.592,7.408 h -3.58 V 5.976 h 5.012 v 5.012 h -1.432 z"
       style="fill:#62cdf9"
       id="path3" /><path
       d="m 19.938,8.124 3.938,3.938 -1.434,1.972 c -0.853,1.172 -0.853,2.76 0,3.932 l 1.434,1.972 -3.938,3.938 -1.972,-1.434 c -1.172,-0.853 -2.76,-0.853 -3.932,0 l -1.972,1.434 -3.938,-3.938 1.434,-1.972 c 0.853,-1.172 0.853,-2.76 0,-3.932 l -1.434,-1.972 3.938,-3.938 1.972,1.434 c 1.172,0.853 2.76,0.853 3.932,0 z m -9.43,10.85 -0.599,0.824 c 0,0 2.293,2.293 2.293,2.293 l 0.969,-0.705 v -2.99 c -0.671,0.101 -1.342,0.239 -2.014,0.411 z m 4.025,1.702 c 0.952,-0.313 1.982,-0.313 2.934,0 v -2.439 c -0.978,-0.077 -1.956,-0.075 -2.934,0.002 z m 4.296,0.71 0.969,0.705 c 0,0 2.293,-2.293 2.293,-2.293 l -0.597,-0.821 -0.654,-0.17 c -0.67,-0.175 -1.341,-0.313 -2.011,-0.415 z m 1.811,-4.031 c -0.27,-0.9 -0.265,-1.864 0.016,-2.762 -0.609,0.087 -1.218,0.156 -1.827,0.209 v 2.214 c 0.604,0.086 1.207,0.199 1.811,0.339 z m 0.801,-4.259 0.65,-0.894 -2.293,-2.293 -0.969,0.705 v 2.821 c 0.692,-0.062 1.385,-0.147 2.078,-0.255 z m -3.974,-1.772 c -0.952,0.313 -1.982,0.313 -2.934,0 v 2.202 c 0.978,0.046 1.956,0.046 2.934,10e-4 z m -4.296,-0.71 -0.969,-0.705 c 0,0 -2.293,2.293 -2.293,2.293 l 0.651,0.895 0.532,0.082 c 0.693,0.107 1.386,0.192 2.079,0.254 z m -1.827,3.978 c 0.281,0.899 0.286,1.864 0.015,2.765 0.604,-0.139 1.208,-0.252 1.812,-0.337 v -2.221 c -0.609,-0.052 -1.218,-0.121 -1.827,-0.207 z m 3.189,2.281 c 0.978,-0.072 1.956,-0.073 2.934,-0.002 V 14.89 c -0.978,0.043 -1.956,0.043 -2.934,-0.001 z"
       style="fill:#7d87ff"
       id="path4" /><path
       d="M 5.976,10.988 V 5.976 h 5.012 v 1.432 h -3.58 v 3.58 z"
       style="fill:#62cdf9"
       id="path5" /></g></svg>
