<?xml version="1.0" encoding="UTF-8" standalone="no"?>
<svg
   width="100%"
   height="100%"
   viewBox="0 0 32 32"
   version="1.1"
   xml:space="preserve"
   style="fill-rule:evenodd;clip-rule:evenodd;stroke-linejoin:round;stroke-miterlimit:2;"
   id="svg5"
   sodipodi:docname="univ_icon_straight.svg"
   inkscape:version="1.4 (86a8ad7, 2024-10-11)"
   xmlns:inkscape="http://www.inkscape.org/namespaces/inkscape"
   xmlns:sodipodi="http://sodipodi.sourceforge.net/DTD/sodipodi-0.dtd"
   xmlns="http://www.w3.org/2000/svg"
   xmlns:svg="http://www.w3.org/2000/svg"><defs
   id="defs5" /><sodipodi:namedview
   id="namedview5"
   pagecolor="#ffffff"
   bordercolor="#000000"
   borderopacity="0.25"
   inkscape:showpageshadow="2"
   inkscape:pageopacity="0.0"
   inkscape:pagecheckerboard="0"
   inkscape:deskcolor="#d1d1d1"
   inkscape:zoom="13.359375"
   inkscape:cx="23.54152"
   inkscape:cy="19.649123"
   inkscape:window-width="1920"
   inkscape:window-height="1057"
   inkscape:window-x="-8"
   inkscape:window-y="-8"
   inkscape:window-maximized="1"
   inkscape:current-layer="svg5" />
    <g
   transform="matrix(1.5847953,0,0,1.5847953,-949.8269,-10.030409)"
   id="g5">
        <g
   id="Straight"
   transform="translate(488)">
            <rect
   x="106"
   y="0"
   width="32"
   height="32"
   style="fill:none"
   id="rect1" />
            <g
   transform="translate(1.40621)"
   id="g4">
                <g
   transform="matrix(2.85,0,0,1.58582,-3537.07,-1053.95)"
   id="g2">
                    <rect
   x="1284"
   y="669.01898"
   width="1"
   height="11.981"
   style="fill:#62cdf9"
   id="rect2" />
                </g>
                <g
   transform="matrix(0.861899,0,0,0.861899,-407.271,2.70961)"
   id="g3">
                    <path
   d="m 605.247,7.022 2.195,-2.044 2.753,2.956 c 1.608,1.728 1.608,4.404 0,6.132 l -0.85,0.912 c -0.536,0.576 -0.536,1.468 0,2.044 l 0.85,0.912 c 1.608,1.728 1.608,4.404 0,6.132 l -2.753,2.956 -2.195,-2.044 2.752,-2.956 c 0.536,-0.576 0.536,-1.468 0,-2.044 l -0.849,-0.912 c -1.609,-1.728 -1.609,-4.404 0,-6.132 l 0.849,-0.912 c 0.536,-0.576 0.536,-1.468 0,-2.044 z"
   style="fill:#ff87a9"
   id="path2" />
                </g>
            </g>
        </g>
    </g>
</svg>
