<?xml version="1.0" encoding="UTF-8" standalone="no"?>
<svg
   width="100%"
   height="100%"
   viewBox="0 0 32 32"
   version="1.1"
   xml:space="preserve"
   style="fill-rule:evenodd;clip-rule:evenodd;stroke-linejoin:round;stroke-miterlimit:2;"
   id="svg16"
   sodipodi:docname="univ_icon_grow.svg"
   inkscape:version="1.4 (86a8ad7, 2024-10-11)"
   xmlns:inkscape="http://www.inkscape.org/namespaces/inkscape"
   xmlns:sodipodi="http://sodipodi.sourceforge.net/DTD/sodipodi-0.dtd"
   xmlns="http://www.w3.org/2000/svg"
   xmlns:svg="http://www.w3.org/2000/svg"><defs
   id="defs16" /><sodipodi:namedview
   id="namedview16"
   pagecolor="#ffffff"
   bordercolor="#000000"
   borderopacity="0.25"
   inkscape:showpageshadow="2"
   inkscape:pageopacity="0.0"
   inkscape:pagecheckerboard="0"
   inkscape:deskcolor="#d1d1d1"
   inkscape:zoom="13.359375"
   inkscape:cx="8.5707602"
   inkscape:cy="14.035088"
   inkscape:window-width="1920"
   inkscape:window-height="1057"
   inkscape:window-x="-8"
   inkscape:window-y="-8"
   inkscape:window-maximized="1"
   inkscape:current-layer="svg16" />
    <g
   transform="matrix(1.4959055,0,0,1.4959055,-1327.3232,-7.9703347)"
   id="g16">
        <g
   id="Grow"
   transform="matrix(1.03226,0,0,1.03226,882,219.895)">
            <rect
   x="0"
   y="-213"
   width="31"
   height="31"
   style="fill:none"
   id="rect1" />
            <g
   transform="matrix(0.46131,0,0,0.46131,-397.603,-205.112)"
   id="g2">
                <rect
   x="892"
   y="13"
   width="7"
   height="7"
   style="fill:#62cdf9"
   id="rect2" />
            </g>
            <g
   transform="matrix(0.46131,0,0,0.46131,-393.566,-205.112)"
   id="g3">
                <rect
   x="892"
   y="13"
   width="7"
   height="7"
   style="fill:#62cdf9"
   id="rect3" />
            </g>
            <g
   transform="matrix(0.46131,0,0,0.46131,-389.53,-205.112)"
   id="g4">
                <rect
   x="892"
   y="13"
   width="7"
   height="7"
   style="fill:#7d87ff"
   id="rect4" />
            </g>
            <g
   transform="matrix(0.46131,0,0,0.46131,-393.566,-209.148)"
   id="g5">
                <rect
   x="892"
   y="13"
   width="7"
   height="7"
   style="fill:#7d87ff"
   id="rect5" />
            </g>
            <g
   transform="matrix(0.46131,0,0,0.46131,-401.639,-209.148)"
   id="g6">
                <rect
   x="892"
   y="13"
   width="7"
   height="7"
   style="fill:#7d87ff"
   id="rect6" />
            </g>
            <g
   transform="matrix(0.46131,0,0,0.46131,-393.566,-201.075)"
   id="g7">
                <rect
   x="892"
   y="13"
   width="7"
   height="7"
   style="fill:#7d87ff"
   id="rect7" />
            </g>
            <g
   transform="matrix(0.46131,0,0,0.46131,-401.639,-201.075)"
   id="g8">
                <rect
   x="892"
   y="13"
   width="7"
   height="7"
   style="fill:#7d87ff"
   id="rect8" />
            </g>
            <g
   transform="matrix(0.46131,0,0,0.46131,-397.603,-213.185)"
   id="g9">
                <rect
   x="892"
   y="13"
   width="7"
   height="7"
   style="fill:#7d87ff"
   id="rect9" />
            </g>
            <g
   transform="matrix(0.46131,0,0,0.46131,-401.639,-205.112)"
   id="g10">
                <rect
   x="892"
   y="13"
   width="7"
   height="7"
   style="fill:#62cdf9"
   id="rect10" />
            </g>
            <g
   transform="matrix(0.46131,0,0,0.46131,-405.676,-205.112)"
   id="g11">
                <rect
   x="892"
   y="13"
   width="7"
   height="7"
   style="fill:#7d87ff"
   id="rect11" />
            </g>
            <g
   transform="matrix(0.46131,0,0,0.46131,-397.603,-209.148)"
   id="g12">
                <rect
   x="892"
   y="13"
   width="7"
   height="7"
   style="fill:#62cdf9"
   id="rect12" />
            </g>
            <g
   transform="matrix(0.46131,0,0,0.46131,-397.603,-213.185)"
   id="g13">
                <rect
   x="892"
   y="13"
   width="7"
   height="7"
   style="fill:#7d87ff"
   id="rect13" />
            </g>
            <g
   transform="matrix(0.46131,0,0,0.46131,-397.603,-201.075)"
   id="g14">
                <rect
   x="892"
   y="13"
   width="7"
   height="7"
   style="fill:#62cdf9"
   id="rect14" />
            </g>
            <g
   transform="matrix(0.46131,0,0,0.46131,-397.603,-197.039)"
   id="g15">
                <rect
   x="892"
   y="13"
   width="7"
   height="7"
   style="fill:#7d87ff"
   id="rect15" />
            </g>
        </g>
    </g>
</svg>
