<?xml version="1.0" encoding="UTF-8" standalone="no"?>
<svg
   width="100%"
   height="100%"
   viewBox="0 0 32 32"
   version="1.1"
   xml:space="preserve"
   style="fill-rule:evenodd;clip-rule:evenodd;stroke-linejoin:round;stroke-miterlimit:2;"
   id="svg8"
   sodipodi:docname="univ_icon_home.svg"
   inkscape:version="1.4 (86a8ad7, 2024-10-11)"
   xmlns:inkscape="http://www.inkscape.org/namespaces/inkscape"
   xmlns:sodipodi="http://sodipodi.sourceforge.net/DTD/sodipodi-0.dtd"
   xmlns="http://www.w3.org/2000/svg"
   xmlns:svg="http://www.w3.org/2000/svg"><defs
   id="defs8" /><sodipodi:namedview
   id="namedview8"
   pagecolor="#ffffff"
   bordercolor="#000000"
   borderopacity="0.25"
   inkscape:showpageshadow="2"
   inkscape:pageopacity="0.0"
   inkscape:pagecheckerboard="0"
   inkscape:deskcolor="#d1d1d1"
   inkscape:zoom="18.893009"
   inkscape:cx="27.92038"
   inkscape:cy="11.406335"
   inkscape:window-width="1920"
   inkscape:window-height="1057"
   inkscape:window-x="-8"
   inkscape:window-y="-8"
   inkscape:window-maximized="1"
   inkscape:current-layer="svg8" />
    <g
   transform="matrix(1.4631343,0,0,1.4631343,-636.55788,-7.4454369)"
   id="g8">
        <g
   id="Home"
   transform="translate(324,0.0241185)">
            <rect
   x="106"
   y="0"
   width="32"
   height="32"
   style="fill:none"
   id="rect1" />
            <g
   transform="matrix(0.714286,0,0,0.575018,111.31,5.40086)"
   id="g1">
                <path
   d="M 27,16.652 V 3.484 H 16.366 V 1 H 29 v 15.652 z"
   style="fill:#7d87ff"
   id="path1" />
            </g>
            <g
   transform="matrix(0.714286,0,0,-0.575018,111.31,26.5509)"
   id="g2">
                <path
   d="M 27,16.652 V 3.484 H 16.366 V 1 H 29 v 15.652 z"
   style="fill:#ff87a9"
   id="path2" />
            </g>
            <g
   transform="matrix(0,-0.714286,0.575018,0,111.449,26.6902)"
   id="g3">
                <path
   d="M 27,16.61 V 3.484 H 16.4 V 1 H 29 v 15.61 z"
   style="fill:#64d2ff"
   id="path3" />
            </g>
            <g
   transform="matrix(0,0.714286,0.575018,0,111.449,5.2616)"
   id="g4">
                <path
   d="M 27,16.61 V 3.484 H 16.4 V 1 H 29 v 15.61 z"
   style="fill:#dc87ff"
   id="path4" />
            </g>
            <g
   transform="matrix(0.730519,0,0,0.48913,-203.422,11.1063)"
   id="g5">
                <path
   d="m 441.36,22.222 h -2.737 V 12 h 13.688 v 10.222 h -8.213 v -8.178 h -2.738 z m 8.214,-8.178 h -2.738 v 4.089 h 2.738 z"
   style="fill:#ffffff"
   id="path5" />
            </g>
            <g
   transform="matrix(0.803571,0,0,0.898403,-235.678,-4.44781)"
   id="g6">
                <path
   d="m 450.169,20.454 2.409,2.306 -14.934,-0.027 4.978,-5.565 h 4.342 v 1.877 z"
   style="fill:#ffffff"
   id="path6" />
            </g>
            <g
   transform="matrix(0.803571,0,0,0.803571,-235.565,3.11874)"
   id="g7">
                <path
   d="m 450,8 v 4 l -2,-1 V 8 Z"
   style="fill:#ffffff"
   id="path7" />
            </g>
        </g>
    </g>
</svg>
