<?xml version="1.0" encoding="UTF-8" standalone="no"?>
<svg
   width="100%"
   height="100%"
   viewBox="0 0 32 32"
   version="1.1"
   xml:space="preserve"
   style="fill-rule:evenodd;clip-rule:evenodd;stroke-linejoin:round;stroke-miterlimit:2;"
   id="svg6"
   sodipodi:docname="univ_icon_stitch.svg"
   inkscape:version="1.4 (86a8ad7, 2024-10-11)"
   xmlns:inkscape="http://www.inkscape.org/namespaces/inkscape"
   xmlns:sodipodi="http://sodipodi.sourceforge.net/DTD/sodipodi-0.dtd"
   xmlns="http://www.w3.org/2000/svg"
   xmlns:svg="http://www.w3.org/2000/svg"><defs
   id="defs6" /><sodipodi:namedview
   id="namedview6"
   pagecolor="#ffffff"
   bordercolor="#000000"
   borderopacity="0.25"
   inkscape:showpageshadow="2"
   inkscape:pageopacity="0.0"
   inkscape:pagecheckerboard="0"
   inkscape:deskcolor="#d1d1d1"
   inkscape:zoom="13.359375"
   inkscape:cx="13.660819"
   inkscape:cy="21.37076"
   inkscape:window-width="1920"
   inkscape:window-height="1057"
   inkscape:window-x="-8"
   inkscape:window-y="-8"
   inkscape:window-maximized="1"
   inkscape:current-layer="svg6" />
    <g
   transform="matrix(1.3228064,0,0,1.3228064,-1066.0557,-5.1966555)"
   id="g6">
        <g
   id="Stitch"
   transform="matrix(1.03226,0,0,1.03226,802,219.895)">
            <rect
   x="0"
   y="-213"
   width="31"
   height="31"
   style="fill:none"
   id="rect1" />
            <g
   transform="matrix(1.9375,0,0,1.76136,-15.5,-279.403)"
   id="g2">
                <rect
   x="15"
   y="43"
   width="2"
   height="1"
   style="fill:#ff87a9"
   id="rect2" />
            </g>
            <g
   transform="matrix(1.9375,0,0,1.76136,-15.5,-268.835)"
   id="g3">
                <rect
   x="15"
   y="43"
   width="2"
   height="1"
   style="fill:#ff87a9"
   id="rect3" />
            </g>
            <g
   transform="matrix(1.9375,0,0,1.84943,-15.5,-277.906)"
   id="g4">
                <rect
   x="15"
   y="43"
   width="2"
   height="1"
   style="fill:#ff87a9"
   id="rect4" />
            </g>
            <g
   transform="matrix(0.140399,0,0,0.140399,-189.524,-401.429)"
   id="g5">
                <path
   d="m 1432.7,1511.46 -13.8,10.04 -34.5,-34.5 15.23,-20.94 c 5.88,-8.08 5.88,-19.04 0,-27.12 l -15.23,-20.94 34.5,-34.5 13.8,10.04 z m 55.2,-117.92 13.8,-10.04 34.5,34.5 -15.23,20.94 c -5.88,8.08 -5.88,19.04 0,27.12 l 15.23,20.94 -34.5,34.5 -13.8,-10.04 z"
   style="fill:#7d87ff"
   id="path4" />
            </g>
        </g>
    </g>
</svg>
