<?xml version="1.0" encoding="UTF-8" standalone="no"?>
<svg
   width="100%"
   height="100%"
   viewBox="0 0 32 32"
   version="1.1"
   xml:space="preserve"
   style="fill-rule:evenodd;clip-rule:evenodd;stroke-linejoin:round;stroke-miterlimit:2;"
   id="svg1"
   sodipodi:docname="univ_icon_overlap.svg"
   inkscape:version="1.4 (86a8ad7, 2024-10-11)"
   xmlns:inkscape="http://www.inkscape.org/namespaces/inkscape"
   xmlns:sodipodi="http://sodipodi.sourceforge.net/DTD/sodipodi-0.dtd"
   xmlns="http://www.w3.org/2000/svg"
   xmlns:svg="http://www.w3.org/2000/svg"><defs
     id="defs1" /><sodipodi:namedview
     id="namedview1"
     pagecolor="#ffffff"
     bordercolor="#000000"
     borderopacity="0.25"
     inkscape:showpageshadow="2"
     inkscape:pageopacity="0.0"
     inkscape:pagecheckerboard="0"
     inkscape:deskcolor="#d1d1d1"
     inkscape:zoom="26.71875"
     inkscape:cx="16"
     inkscape:cy="16"
     inkscape:window-width="1920"
     inkscape:window-height="1057"
     inkscape:window-x="-8"
     inkscape:window-y="-8"
     inkscape:window-maximized="1"
     inkscape:current-layer="svg1" /><rect
     id="Overlap"
     x="0"
     y="0"
     width="32"
     height="32"
     style="fill:none;" /><g
     id="g1"
     transform="matrix(1.591345,0,0,1.591345,-9.4615204,-9.4615204)"><path
       d="M 19.28,21.867 C 18.202,24.301 15.765,26 12.935,26 9.107,26 6,22.893 6,19.065 c 0,-2.83 1.699,-5.267 4.133,-6.345 -0.002,0.072 -0.003,0.143 -0.003,0.215 0,4.931 4.004,8.935 8.935,8.935 0.072,0 0.143,-0.001 0.215,-0.003 z m -7.108,-9.695 c 0.25,-0.028 0.505,-0.042 0.763,-0.042 3.827,0 6.935,3.108 6.935,6.935 0,0.258 -0.014,0.513 -0.042,0.763 -0.25,0.028 -0.505,0.042 -0.763,0.042 -3.827,0 -6.935,-3.108 -6.935,-6.935 0,-0.258 0.014,-0.513 0.042,-0.763 z"
       style="fill:#7d87ff"
       id="path1" /><circle
       cx="19.065001"
       cy="12.935"
       r="6.9349999"
       style="fill:#62cdf9"
       id="circle1" /></g></svg>
