<?xml version="1.0" encoding="UTF-8" standalone="no"?>
<svg
   width="100%"
   height="100%"
   viewBox="0 0 32 32"
   version="1.1"
   xml:space="preserve"
   style="fill-rule:evenodd;clip-rule:evenodd;stroke-linejoin:round;stroke-miterlimit:2;"
   id="svg2"
   sodipodi:docname="univ_icon_settings_b.svg"
   inkscape:version="1.4 (86a8ad7, 2024-10-11)"
   xmlns:inkscape="http://www.inkscape.org/namespaces/inkscape"
   xmlns:sodipodi="http://sodipodi.sourceforge.net/DTD/sodipodi-0.dtd"
   xmlns="http://www.w3.org/2000/svg"
   xmlns:svg="http://www.w3.org/2000/svg"
   xmlns:serif="http://www.serif.com/"><defs
     id="defs2" /><sodipodi:namedview
     id="namedview2"
     pagecolor="#ffffff"
     bordercolor="#000000"
     borderopacity="0.25"
     inkscape:showpageshadow="2"
     inkscape:pageopacity="0.0"
     inkscape:pagecheckerboard="0"
     inkscape:deskcolor="#d1d1d1"
     inkscape:zoom="13.359375"
     inkscape:cx="26.011696"
     inkscape:cy="9.6935672"
     inkscape:window-width="1920"
     inkscape:window-height="1057"
     inkscape:window-x="-8"
     inkscape:window-y="-8"
     inkscape:window-maximized="1"
     inkscape:current-layer="svg2" /><rect
     id="Remove-Checker"
     serif:id="Remove Checker"
     x="1.2725146"
     y="1.2725146"
     width="29.454971"
     height="29.454971"
     style="fill:none;stroke-width:0.920468" /><g
     id="g2"
     transform="matrix(1.6324399,0,0,1.6324399,-10.119037,-10.119037)"><path
       d="m 16.87,7.042 0.386,1.412 c 0.488,0.081 0.966,0.209 1.429,0.383 l 1.04,-1.03 c 0.53,0.241 1.034,0.532 1.508,0.871 l -0.372,1.415 c 0.382,0.314 0.732,0.664 1.046,1.046 l 1.415,-0.372 c 0.339,0.474 0.63,0.978 0.871,1.508 l -1.03,1.04 c 0.174,0.463 0.302,0.941 0.383,1.429 l 1.412,0.386 c 0.056,0.578 0.056,1.162 0,1.74 l -1.412,0.386 c -0.081,0.488 -0.209,0.966 -0.383,1.429 l 1.03,1.04 c -0.241,0.53 -0.532,1.034 -0.871,1.508 l -1.415,-0.372 c -0.314,0.382 -0.664,0.732 -1.046,1.046 l 0.372,1.415 c -0.474,0.339 -0.978,0.63 -1.508,0.871 l -1.04,-1.03 c -0.463,0.174 -0.941,0.302 -1.429,0.383 l -0.386,1.412 c -0.578,0.056 -1.162,0.056 -1.74,0 l -0.386,-1.412 c -0.488,-0.081 -0.966,-0.209 -1.429,-0.383 l -1.04,1.03 c -0.53,-0.241 -1.034,-0.532 -1.508,-0.871 l 0.372,-1.415 C 10.757,21.593 10.407,21.243 10.093,20.861 L 8.678,21.233 C 8.339,20.759 8.048,20.255 7.807,19.725 l 1.03,-1.04 C 8.663,18.222 8.535,17.744 8.454,17.256 L 7.042,16.87 c -0.056,-0.578 -0.056,-1.162 0,-1.74 l 1.412,-0.386 c 0.081,-0.488 0.209,-0.966 0.383,-1.429 l -1.03,-1.04 c 0.241,-0.53 0.532,-1.034 0.871,-1.508 l 1.415,0.372 c 0.314,-0.382 0.664,-0.732 1.046,-1.046 L 10.767,8.678 c 0.474,-0.339 0.978,-0.63 1.508,-0.871 l 1.04,1.03 C 13.778,8.663 14.256,8.535 14.744,8.454 L 15.13,7.042 c 0.578,-0.056 1.162,-0.056 1.74,0 z M 16,10.976 c -2.76,0 -5,2.24 -5,5 0,2.759 2.24,5 5,5 2.76,0 5,-2.241 5,-5 0,-2.76 -2.24,-5 -5,-5 z"
       style="fill:#7d87ff"
       id="path1" /><path
       d="m 16,12.4 c 1.987,0 3.6,1.613 3.6,3.6 0,1.987 -1.613,3.6 -3.6,3.6 -1.987,0 -3.6,-1.613 -3.6,-3.6 0,-1.987 1.613,-3.6 3.6,-3.6 z m 0,1.8 c -0.993,0 -1.8,0.807 -1.8,1.8 0,0.993 0.807,1.8 1.8,1.8 0.993,0 1.8,-0.807 1.8,-1.8 0,-0.993 -0.807,-1.8 -1.8,-1.8 z"
       style="fill:#7d87ff"
       id="path2" /></g></svg>
