<svg width="32" height="32" viewBox="0 0 32 32" xmlns="http://www.w3.org/2000/svg">

<path d="m22.5 2.51c-1.45 1.57-2.83 3.02-4.81 3.85v2.73c1.93-0.362 3.42-1.53 4.81-2.84l3.26 3.26c-1.63 1.44-2.44 3.26-2.84 4.81h2.73c0.689-2.01 2.4-3.36 3.85-4.81z" fill="#dc87ff"/>
<path d="m22.9 17.7c0.387 1.89 1.5 3.47 2.84 4.81l-3.26 3.26c-1.28-1.49-2.98-2.26-4.81-2.84v2.73c2.01 0.688 3.36 2.4 4.81 3.85l7-7c-1.57-1.45-3.02-2.83-3.85-4.81z" fill="#ff87a9"/>
<path d="m6.36 17.7c-0.688 2.01-2.4 3.36-3.85 4.81l7 7c1.45-1.57 2.83-3.02 4.81-3.85v-2.73c-1.9 0.387-3.47 1.51-4.81 2.84l-3.26-3.26c1.48-1.28 2.28-2.97 2.84-4.81z" fill="#7d87ff"/>
<path d="m9.5 2.51-7 6.99c1.57 1.45 3.02 2.83 3.85 4.81h2.73c-0.388-1.89-1.5-3.47-2.84-4.81l3.26-3.26c1.28 1.48 2.97 2.28 4.81 2.84v-2.73c-2-0.689-3.36-2.4-4.81-3.85z" fill="#62cdf9"/>

<path d="m14 12-2.46-0.0073 4e-4 6.47c8.4e-5 1.36 0.62 1.95 2.04 1.95h4.86c1.42 0 2.03-0.584 2.03-1.95l-4e-4 -6.46h-2.47v6.45h-4z" fill="#ffffff"/>

</svg>
