<?xml version="1.0" encoding="UTF-8" standalone="no"?>
<svg
   width="100%"
   height="100%"
   viewBox="0 0 32 32"
   version="1.1"
   xml:space="preserve"
   style="fill-rule:evenodd;clip-rule:evenodd;stroke-linejoin:round;stroke-miterlimit:2;"
   id="svg8"
   sodipodi:docname="univ_icon_weld.svg"
   inkscape:version="1.4 (86a8ad7, 2024-10-11)"
   xmlns:inkscape="http://www.inkscape.org/namespaces/inkscape"
   xmlns:sodipodi="http://sodipodi.sourceforge.net/DTD/sodipodi-0.dtd"
   xmlns="http://www.w3.org/2000/svg"
   xmlns:svg="http://www.w3.org/2000/svg"><defs
   id="defs8" /><sodipodi:namedview
   id="namedview8"
   pagecolor="#ffffff"
   bordercolor="#000000"
   borderopacity="0.25"
   inkscape:showpageshadow="2"
   inkscape:pageopacity="0.0"
   inkscape:pagecheckerboard="0"
   inkscape:deskcolor="#d1d1d1"
   inkscape:zoom="18.893009"
   inkscape:cx="13.470591"
   inkscape:cy="10.559461"
   inkscape:window-width="1920"
   inkscape:window-height="1057"
   inkscape:window-x="-8"
   inkscape:window-y="-8"
   inkscape:window-maximized="1"
   inkscape:current-layer="svg8" />
    <g
   transform="matrix(1.3870479,0,0,1.3870479,-1063.1233,-6.2262203)"
   id="g8">
        <g
   id="Weld"
   transform="translate(656,0.0241185)">
            <rect
   x="106"
   y="0"
   width="32"
   height="32"
   style="fill:none"
   id="rect1" />
            <g
   transform="translate(-665,4)"
   id="g7">
                <g
   transform="matrix(0,0.772544,-0.775424,0,863.767,-0.090176)"
   id="g1">
                    <circle
   cx="7.5"
   cy="88.5"
   r="3.5"
   style="fill:#ff87a9"
   id="circle1" />
                </g>
                <g
   transform="matrix(0,0.772544,-0.775424,0,855.625,13.4797)"
   id="g2">
                    <circle
   cx="7.5"
   cy="88.5"
   r="3.5"
   style="fill:#62cdf9"
   id="circle2" />
                </g>
                <g
   transform="matrix(0,0.767935,-0.775424,0,847.483,-0.0717384)"
   id="g3">
                    <circle
   cx="7.5"
   cy="88.5"
   r="3.5"
   style="fill:#ff87a9"
   id="circle3" />
                </g>
                <g
   transform="matrix(0,0.904661,-0.904661,0,873.847,-1.53338)"
   id="g4">
                    <rect
   x="6"
   y="92"
   width="2"
   height="8"
   style="fill:#7d87ff"
   id="rect3" />
                </g>
                <g
   transform="matrix(0.783459,0.45233,-0.423485,0.733497,826.93,-60.8508)"
   id="g5">
                    <rect
   x="6"
   y="92"
   width="2"
   height="8"
   style="fill:#7d87ff"
   id="rect4" />
                </g>
                <g
   transform="matrix(0.783459,-0.45233,0.390841,0.676956,739.347,-49.3163)"
   id="g6">
                    <rect
   x="6"
   y="92"
   width="2"
   height="8"
   style="fill:#7d87ff"
   id="rect5" />
                </g>
            </g>
        </g>
    </g>
</svg>
