<?xml version="1.0" encoding="UTF-8" standalone="no"?>
<svg
   width="100%"
   height="100%"
   viewBox="0 0 32 32"
   version="1.1"
   xml:space="preserve"
   style="fill-rule:evenodd;clip-rule:evenodd;stroke-linejoin:round;stroke-miterlimit:2;"
   id="svg1"
   sodipodi:docname="univ_icon_zero.svg"
   inkscape:version="1.4 (86a8ad7, 2024-10-11)"
   xmlns:inkscape="http://www.inkscape.org/namespaces/inkscape"
   xmlns:sodipodi="http://sodipodi.sourceforge.net/DTD/sodipodi-0.dtd"
   xmlns="http://www.w3.org/2000/svg"
   xmlns:svg="http://www.w3.org/2000/svg"><defs
     id="defs1" /><sodipodi:namedview
     id="namedview1"
     pagecolor="#ffffff"
     bordercolor="#000000"
     borderopacity="0.25"
     inkscape:showpageshadow="2"
     inkscape:pageopacity="0.0"
     inkscape:pagecheckerboard="0"
     inkscape:deskcolor="#d1d1d1"
     inkscape:zoom="18.893009"
     inkscape:cx="10.665321"
     inkscape:cy="16.222932"
     inkscape:window-width="1920"
     inkscape:window-height="1057"
     inkscape:window-x="-8"
     inkscape:window-y="-8"
     inkscape:window-maximized="1"
     inkscape:current-layer="svg1" /><rect
     id="Zero"
     x="0"
     y="0"
     width="32"
     height="32"
     style="fill:none;" /><path
     d="M 13.447863,21.823292 3.4244719,31.846683 0.54205867,28.96427 10.428669,19.07766 C 6.8606819,14.472138 7.1892904,7.8165657 11.416162,3.5896936 c 4.58217,-4.58216953 12.021732,-4.58216953 16.603901,0 4.583838,4.5821695 4.583838,12.0233994 0,16.6055684 -3.95331,3.95331 -10.033399,4.497099 -14.5722,1.62803 z M 25.829897,5.7815286 c -3.372824,-3.3728237 -8.850744,-3.3728237 -12.223567,0 -3.372824,3.3728237 -3.372824,8.8507434 0,12.2235664 3.372823,3.372824 8.850743,3.372824 12.223567,0 3.372823,-3.372823 3.372823,-8.8507427 0,-12.2235664 z"
     style="fill:#7d87ff;stroke-width:1.66806"
     id="path1" /><circle
     cx="19.718113"
     cy="11.893312"
     r="5.0675764"
     style="fill:#dc87ff;stroke-width:1.66806"
     id="circle1" /></svg>
